<?xml version="1.0" encoding="UTF-8"?><svg xmlns="http://www.w3.org/2000/svg" xmlns:xlink="http://www.w3.org/1999/xlink" height="428.5" preserveAspectRatio="xMidYMid meet" version="1.0" viewBox="-1.1 -5.0 510.4 428.5" width="510.4" zoomAndPan="magnify"><g id="change1_1"><path d="M197.3803,49.1704c19.7997,8.4527,34.277,20.3012,44.3802,36.5058 c8.228,13.1969,14.8488,27.456,11.0171,43.9056c-5.9938,25.7315-26.6805,38.3168-52.1986,31.9183 c-26.2479-6.5815-48.0309-33.886-48.6673-61.2107c-0.2088-8.9647-0.0329-17.9383-0.0329-27.4688 c-20.9966,3.794-39.1619,13.2847-52.7153,32.0432c5.7185,2.2126,10.6469,3.9659,15.4544,6.0043 c33.5332,14.2184,39.3187,63.2233,18.0906,86.9949c-15.9716,17.8853-45.3646,15.5573-59.3207-7.0793 c-6.3118-10.2376-8.4622-23.2983-11.2025-35.3726c-1.4919-6.5735-0.2662-13.7632-0.2662-22.0357 c-14.7535,7.3983-23.0091,18.4841-29.4064,31.1124c-4.6341,9.1476-8.8119,18.5448-12.7787,28.0044 c-2.4339,5.8041-6.7991,8.4295-12.3742,7.1523c-6.6312-1.5191-8.4602-6.9751-6.7647-13.1595 c5.5165-20.1215,11.788-39.8515,25.1287-56.6308c9.4935-11.9404,21.5931-19.3209,35.7246-24.3358 c3.9698-1.4088,8.3973-4.3196,10.4817-7.813c19.9401-33.4197,50.1768-49.5047,87.8846-53.9601 c3.7921-0.448,8.4323-2.9432,10.6617-5.9719c24.5755-33.3849,57.7766-42.7941,97.0137-35.4091 c19.8436,3.7349,38.9972,10.3688,53.7303,24.4403c8.6046,8.2183,14.9209,19.1773,20.8843,29.6869 c3.8228,6.7371,0.1128,13.1267-6.3658,17.0751c-6.4298,3.9187-12.5505,1.9688-17.8434-2.398 c-2.649-2.1855-4.9321-5.1095-6.6112-8.1272c-12.472-22.4148-34.1649-28.7575-57.0616-33.266 c-17.3871-3.4236-33.0101,0.7634-47.3452,10.5425C203.8878,42.3574,201.5011,45.28,197.3803,49.1704z M182.1433,74.4078 c-0.6831,6.9298-2.6427,13.9486-1.7741,20.5984c1.983,15.1817,6.6842,29.478,22.6987,35.9469 c11.2228,4.5334,20.9617-0.5819,20.8817-10.441C223.8095,103.2474,201.4261,77.9673,182.1433,74.4078z M91.3628,132.5505 c-6.0392,9.4575-1.057,19.2561-0.2957,28.7625c0.3727,4.6538,2.8369,9.5639,5.5737,13.5142 c5.2556,7.5858,12.1848,6.6811,16.1404-1.5223C121.1417,155.9661,111.2974,136.9944,91.3628,132.5505z" fill="#FECFA7"/></g><g id="change2_1"><path d="M409.5143,217.9118c14.608-2.8202,28.3899-6.9746,42.356-7.7315 c12.4465-0.6745,25.1879,2.5433,35.2042,11.2063c22.229,19.2257,13.464,53.7083-8.7032,66.589 c-18.6898,10.8601-47.705,14.3697-74.084-7.2299c-6.3455,12.3103-6.1474,24.3474-0.9536,36.9663 c2.8498,6.924,4.5001,14.4247,5.968,21.809c1.349,6.7863-2.3772,12.153-8.6088,13.2702 c-4.0685,0.7294-10.3384-0.9637-12.9915-3.9259c-10.5254-11.7511-17.3928-25.7185-18.7602-41.663 c-1.7885-20.8564,4.2325-39.7616,14.7979-57.6992c2.6244-4.4557,3.1141-10.8649,2.7638-16.258 c-1.9223-29.5988,6.4654-55.0023,29.4167-74.5746c3.4208-2.9172,8.1536-4.827,12.5889-5.8159 c2.4363-0.5431,6.63,1.0871,7.9384,3.098c0.9505,1.4608-0.7583,5.9573-2.6017,7.7224 C417.932,178.9109,408.95,196.8804,409.5143,217.9118z M451.0451,241.3709c-0.3223-0.8131-0.6445-1.6262-0.9668-2.4393 c-8.7104,3.482-17.5962,6.5934-26.0609,10.5947c-4.5674,2.159-4.82,5.7841-1.0233,9.924 c8.3967,9.1558,26.1336,12.5136,38.0659,4.9537c4.5437-2.8787,8.7968-10.009,8.8443-15.2408c0.0615-6.794-7.323-7.953-13.5739-7.799 C454.5696,241.4077,452.8069,241.3709,451.0451,241.3709z" fill="#FED7FE"/></g><g id="change3_1"><path d="M228.3701,376.5941c-14.0994,0.1693-28.1773,2.2471-41.5244-0.004 c-15.3051-2.5813-27.2661-11.974-31.4909-28.3401c-3.4932-13.5319,3.6399-29.5007,16.9377-39.4271 c19.8922-14.8491,49.5128-14.1569,72.8131,4.5547c1.3495-7.0121,3.7097-13.3792,3.5568-19.6853 c-0.3386-13.9625-1.54-27.9409-3.1566-41.8236c-1.225-10.5208,2.2618-19.1798,9.7299-20.8677 c7.845-1.7732,15.6593,3.5074,18.025,14.0751c7.7078,34.4318,5.4611,67.8216-11.4034,99.6426 c-3.5844,6.7634-5.6995,14.4561-7.5661,21.951c-7.1239,28.6043-26.4919,45.3035-52.913,55.3029 c-2.1205,0.8026-4.8549,1.5362-6.8179,0.8702c-3.7336-1.2665-7.1156-3.569-10.6436-5.4412 c2.8035-2.3098,5.3158-5.1674,8.4596-6.8371C208.0674,402.231,221.5053,391.8124,228.3701,376.5941z M202.1058,350.7654 c0.1251,0.4119,0.2502,0.8238,0.3753,1.2357c6.921-2.0789,14.1124-3.5339,20.6978-6.3868 c9.2773-4.019,9.8027-10.1562,1.6221-16.1807c-8.0789-5.9496-17.482-6.4901-26.8854-4.2827 c-9.0757,2.1305-16.4502,9.7385-15.9613,15.4553c0.5143,6.0138,8.2868,10.1113,19.2711,10.1591 C201.5189,350.7665,201.8123,350.7654,202.1058,350.7654z" fill="#D0EBC8"/></g></svg>