<?xml version="1.0" encoding="UTF-8"?><svg xmlns="http://www.w3.org/2000/svg" xmlns:xlink="http://www.w3.org/1999/xlink" height="368.7" preserveAspectRatio="xMidYMid" version="1.1" viewBox="-0.0 -0.0 256.0 368.7" width="256.0" zoomAndPan="magnify">
 <g>
  <path d="m214.9 157.36c15.27 2.35 25.83 9.39 31.71 18.79 5.87 9.39 9.39 25.83 9.39 46.97 0 42.27-12.92 77.5-38.75 104.51-25.84 27.01-58.72 41.1-98.64 41.1-15.27 0-30.537-2.34-45.803-8.22-15.266-5.87-27.009-14.09-37.578-23.48-11.743-10.57-21.137-23.49-27.009-35.23-4.6971-12.92-8.22-25.84-8.22-38.75 0-14.1 3.5229-25.84 9.3945-34.06 5.8715-8.22 16.44-12.92 29.358-16.44-2.348-5.87-4.697-10.57-5.871-15.27-1.175-3.52-2.349-7.04-2.349-9.39 0-7.05 3.523-15.27 11.743-23.49s15.266-11.74 22.312-11.74c3.523 0 5.872 0 9.395 1.17 3.523 1.18 7.046 2.35 11.743 5.88-10.569-35.23-21.138-64.591-27.009-84.554-5.872-19.963-8.221-32.881-8.221-41.101 0-10.569 2.349-18.789 8.221-24.66 4.697-5.8721 12.917-9.395 22.312-9.395 15.266 0 35.232 35.229 59.892 106.86 4.69 11.75 7.04 21.14 9.39 28.19 2.35-4.7 4.7-12.92 8.22-22.32 24.66-70.455 45.8-105.68 62.24-105.68 8.22-0.0041 15.27 2.3445 21.14 8.216 4.7 5.872 8.22 14.092 8.22 23.486 0 7.046-2.35 21.138-8.22 41.101-7.05 19.964-15.27 45.797-27.01 77.507zm-180.84 103.34c2.349 2.35 5.872 7.04 9.395 12.91 10.568 15.27 21.137 23.49 30.532 23.49 3.523 0 5.871-1.17 8.22-3.52 2.348-2.35 3.523-4.7 3.523-5.87 0-2.35-1.175-7.05-4.697-12.92-3.523-5.87-8.221-12.92-14.092-19.96-7.046-8.22-12.918-15.27-16.441-18.79-4.697-3.53-8.22-5.87-10.568-5.87-5.872 0-11.744 3.52-16.441 9.39s-7.046 14.09-7.046 22.31c0 7.05 1.175 14.09 4.698 23.49 3.523 8.22 8.22 17.61 15.266 25.83 10.568 11.75 22.312 22.31 37.578 29.36s30.528 10.57 49.318 10.57c32.88 0 59.89-11.74 82.2-36.4 22.32-24.66 32.89-55.2 32.89-92.78 0-11.74-1.18-19.96-2.35-27-1.18-7.05-4.7-11.75-8.22-14.1-7.05-5.87-19.97-10.56-39.93-15.26s-41.1-7.05-62.24-7.05c-5.87 0-10.57 1.18-12.92 3.53-2.34 2.34-3.52 5.87-3.52 10.56 0 11.75 5.87 19.97 18.79 24.66 12.92 4.7 34.06 8.22 62.24 8.22h10.57c2.35 0 4.69 1.18 5.87 2.35 1.17 2.35 2.35 4.7 2.35 8.22-2.35 2.35-8.22 5.87-17.62 9.4-9.39 3.52-15.26 7.04-19.96 10.57-10.57 7.04-18.79 16.44-24.66 27.01-5.87 10.56-9.4 19.96-9.4 29.35 0 5.88 1.18 11.75 3.53 19.97s3.52 12.91 3.52 14.09v2.35 2.35c-7.05 0-12.92-4.7-17.61-12.92-4.7-8.22-5.88-18.79-5.88-32.88v-2.35c-1.17 1.17-2.34 2.35-3.52 2.35-1.17 0-2.35 1.17-4.7 1.17h-4.69c-1.18 0-2.35-1.17-4.7-1.17 0 2.35 1.17 3.52 1.17 5.87v4.7c0 5.87-2.34 11.74-7.042 16.44-4.697 4.69-10.569 7.04-17.615 7.04-10.569 0-21.137-4.69-32.881-15.26-10.568-10.57-16.44-19.97-16.44-30.54 0-2.34 0-3.52 1.174-4.69 0-5.87 1.175-7.05 2.349-8.22zm76.335 5.87c2.34 0 5.87-1.18 8.22-3.52 2.34-2.35 3.52-5.88 3.52-8.22 0-3.53-2.35-10.57-7.05-22.32-4.69-11.74-10.57-23.48-17.612-34.05-4.697-8.22-10.569-15.27-15.266-18.79-4.697-4.7-9.395-5.87-14.092-5.87-3.523 0-7.046 2.35-11.743 7.04-4.697 4.7-5.872 8.22-5.872 12.92 0 3.52 2.349 10.57 5.872 18.79 4.697 8.22 9.394 16.44 16.44 25.84 7.046 9.39 14.092 17.61 21.138 23.48 7.045 2.35 11.745 4.7 16.445 4.7zm24.66-122.13l-28.19-78.679c-7.043-19.963-11.741-34.055-16.438-39.926-3.523-5.872-7.046-9.395-11.743-9.395-3.523 0-5.872 1.175-8.22 3.523-3.523 3.523-4.698 7.046-4.698 11.743 0 8.221 3.523 21.138 9.395 39.927s15.266 44.627 27.014 75.157c1.17-2.35 2.34-3.52 4.69-3.52 2.35-1.18 4.7-1.18 7.05-1.18h5.87c3.52 1.18 8.22 1.18 15.27 2.35zm28.18 76.33c-7.05 0-14.09-1.17-21.14-2.35-7.04-1.17-12.92-2.35-18.79-4.7 2.35 5.88 4.7 10.57 7.05 16.45 2.35 5.87 3.52 10.56 4.7 16.44 3.52-4.7 8.22-9.4 12.91-14.1 5.87-4.69 10.57-8.22 15.27-11.74zm34.05-68.11c11.75-30.53 19.97-56.366 27.01-76.33 5.88-19.963 9.4-31.706 9.4-36.403 0-4.698-1.18-8.221-3.52-11.744-2.35-2.348-4.7-3.522-8.23-3.522-4.69 0-9.39 3.522-14.09 11.743-4.69 8.22-10.57 19.963-16.44 37.578l-25.83 72.808 31.7 5.87z"/>
 </g>
</svg>