<?xml version="1.0" encoding="UTF-8"?><svg xmlns="http://www.w3.org/2000/svg" xmlns:xlink="http://www.w3.org/1999/xlink" height="342.8" preserveAspectRatio="xMidYMid" version="1.1" viewBox="-5.9 -1.2 262.8 342.8" width="262.8" zoomAndPan="magnify">
 <g>
  <path d="m87.412 291.89h38.778s-16.32 45.26-19.46 49.68c-3.63-4.7-19.318-49.68-19.318-49.68zm42.558 0h38.78s-16.32 45.26-19.46 49.68c-3.63-4.7-19.32-49.68-19.32-49.68zm-2.03-136.01c-20.54 0-37.193-16.65-37.193-37.19 0-20.547 16.653-37.2 37.193-37.2s37.2 16.653 37.2 37.2c0 20.54-16.66 37.19-37.2 37.19zm125.42 70.32c-5.23-26.5-17.32-49.4-36.17-68.73-0.45-0.47-1.41-1.19-1.41-1.19s-0.11-2.28-0.12-3.48c-0.13-11.4-1.58-22.55-3.99-33.71-8.8-40.852-30.09-74.229-60.91-101.94-7.2-6.473-22.67-16.997-22.59-17.057 1.77-1.3023-15.93 11.445-22.22 16.917-12.975 11.307-24.209 23.64-34.001 38.107-19.483 28.788-30.381 60.203-31.271 95.013-0.049 1.92 0 5.98 0 5.98s-2.136 1.62-3.93 3.59c-29.99 34.17-42.628 73.24-34.177 118.5 1.4899 7.98 7.709 14.57 15.607 15.58 8.905 1.14 16.395-2.97 20.62-11.56 6.383-12.98 14.762-24.55 24.721-35.03 1.99-2.1 2.082-2.05 3.411 0.19 4.007 6.77 8.649 13.1 13.512 19.28 1.115 1.41 0.678 0.92 1.817 2.54h91.481c4.78-6.09 11.23-15.1 15.15-21.78 1.46-2.5 1.61-2.64 3.8-0.34 10.18 10.76 18.31 22.87 24.91 36.1 3.87 7.77 11.51 11.74 20.11 10.55 7.51-1.05 14-7.24 15.6-14.93 3.63-17.47 3.52-35.04 0.05-52.6m-105.42-107.46c0 11.01-8.93 19.94-19.94 19.94s-19.94-8.93-19.94-19.94 8.93-19.934 19.94-19.934 19.94 8.924 19.94 19.934" fill="#39a9f9"/>
 </g>
</svg>