<?xml version="1.0" encoding="UTF-8"?><svg xmlns="http://www.w3.org/2000/svg" xmlns:xlink="http://www.w3.org/1999/xlink" height="425.3" preserveAspectRatio="xMidYMid meet" version="1.0" viewBox="68.7 0.3 287.4 425.3" width="287.4" zoomAndPan="magnify"><g id="change1_1"><path d="M197.41,133.078c18.442-8.691,13.354-25.542,20.132-29.331c-6.406,0.207-12.89,0.715-18.941,2.824 c-5.336,1.86-10.35,5.1-13.582,9.687c1.296,2.067,5.832,8.964,11.132,16.982L197.41,133.078z" fill="#A596BB"/></g><g id="change1_2"><path d="M188.891,400.405c-2.121-8.281-4.438-21.281-6.892-35.045c-2.02-11.333-4.18-23.435-6.458-34.217 c-0.828-0.073-1.659-0.169-2.493-0.288l-4.214,76.409h19.936l1.157-5.586C189.436,401.418,189.04,400.984,188.891,400.405z" fill="#A596BB"/></g><g id="change2_1"><path d="M167.009,424.631h7.817c-0.259-0.382-0.398-0.848-0.347-1.343l0.777-7.55 c0.115-1.117,1.122-1.931,2.23-1.814c1.117,0.115,1.929,1.114,1.814,2.23l-0.777,7.55c-0.036,0.352-0.184,0.654-0.372,0.926h5.918 l4.7-17.369h-19.936L167.009,424.631z" fill="#E39294"/></g><g id="change1_3"><path d="M298.855,391.733c-0.091-0.405-7.383-33.014-13.164-55.422c-10.714-6.531-25.77-16.044-26.065-16.23 c-0.033,0.006-0.068,0.012-0.101,0.018l18.175,87.163h23.148l-0.008-13.939c-0.001,0-0.002,0-0.003,0 C299.906,393.324,299.067,392.68,298.855,391.733z" fill="#A596BB"/></g><g id="change2_2"><path d="M277.249,407.262l4.999,17.369h7.129c-0.187-0.27-0.333-0.571-0.37-0.92l-0.802-7.55 c-0.119-1.116,0.689-2.117,1.806-2.236c1.117-0.12,2.117,0.691,2.235,1.807l0.802,7.55c0.053,0.497-0.085,0.965-0.345,1.349h6.041 l2.104-17.369H277.7H277.249z" fill="#E39294"/></g><g id="change3_1"><path d="M315.12,424.631c-0.192-0.277-0.341-0.586-0.375-0.946l-0.709-7.548c-0.106-1.118,0.715-2.109,1.833-2.214 c1.123-0.111,2.108,0.715,2.214,1.833l0.709,7.551c0.046,0.489-0.093,0.947-0.349,1.324h4.909l1.932-16h-20.349l4.071,16H315.12z" fill="#F6B7B8"/></g><g id="change3_2"><path d="M204.462,424.631c-0.189-0.273-0.336-0.577-0.372-0.93l-0.762-7.55c-0.112-1.118,0.701-2.114,1.818-2.226 c1.108-0.116,2.113,0.7,2.226,1.818l0.762,7.55c0.05,0.494-0.089,0.958-0.347,1.339h4.857l2.349-14.641l-21.589-1.332l4.367,15.972 H204.462z" fill="#F6B7B8"/></g><g id="change4_1"><path d="M171.811,197.057c-0.183-5.278-0.515-10.739-0.998-16.362l-15.978-15.357l0.015,0.005 c-3.95-1.785-7.63-3.741-10.849-5.878c-10.654,24.197-14.74,51.096-12.846,77.481c-2.138,15.562-5.052,32.905,3.83,46.152 c-0.093-2.978,0.51-4.873,1.474-7.692c-0.468,5.865,2.215,21.344,8.674,23.894c0.083-1.821,0.486-6.814,0.621-8.94 c0.836,1.987,1.374,6.932,2.268,8.94c3.78,8.488,7.114,21.118,15.309,26.29c0.732,0.462,8.624,2.614,11.692,3.12 c-1.972-9.078-4.031-17.062-6.165-22.598c-0.365-0.949,0.032-1.998,0.889-2.488c-0.135-1.017-0.258-2.036-0.368-3.057l-0.48-2.149 l0.262-0.045c-0.504-5.565-0.672-11.205-0.61-16.982c1.606,5.399,3.054,10.842,4.2,16.359l0.955-0.165 c8.384-11.961,4.591-28.678,2.334-42.884c2.369,2.642,4.231,5.738,5.454,9.07c5.925-25.409-5.942-42.451-9.671-66.752 L171.811,197.057z M153.652,240.402c0,1.123-0.91,2.033-2.033,2.033c-1.122,0-2.033-0.91-2.033-2.033v-4.094 c0-1.123,0.91-2.033,2.033-2.033c1.122,0,2.033,0.91,2.033,2.033V240.402z M160.085,242.741c0,1.123-0.91,2.033-2.033,2.033 c-1.122,0-2.033-0.91-2.033-2.033v-0.585c0-1.123,0.91-2.033,2.033-2.033c1.122,0,2.033,0.91,2.033,2.033V242.741z" fill="#FDEFF6"/></g><g id="change4_2"><path d="M216.088,310.141l-0.436,12.46c10.152,5.076,32.754-0.547,43.874-2.502c0.033-0.006,0.068-0.012,0.101-0.018 c1.205-0.211,2.277-0.379,3.175-0.483c-0.005-0.004-0.01-0.008-0.015-0.012C243.878,304.618,233.786,309.77,216.088,310.141z" fill="#FDEFF6"/></g><g id="change4_3"><path d="M152.809,154.25c1.038,0.747,2.31,1.085,3.562,1.35c4.573,0.967,9.276,1.148,13.95,1.147 c1.423,0,2.888-0.025,4.198-0.582c1.309-0.556,2.483-1.798,2.498-3.221l-0.75-2.541c-2.666-4.018-5.684-8.309-10.288-9.743 c-2.668-0.831-5.594-0.57-8.232,0.351c-2.743,0.958-5.338,2.739-6.568,5.371C149.948,149.015,150.451,152.553,152.809,154.25z M156.783,145.592c0.324-1.076,1.466-1.683,2.532-1.361c1.076,0.324,1.685,1.457,1.362,2.532c-0.238,0.791-0.064,1.782,0.455,2.586 c0.525,0.818,1.411,1.507,2.492,1.94c0.425,0.17,0.778,0.248,1.006,0.245c0.208-0.005,0.458-0.072,0.72-0.197 c1.124-0.533,1.839-2.007,1.564-3.22c-0.249-1.094,0.438-2.183,1.532-2.432c1.1-0.252,2.185,0.439,2.432,1.532 c0.701,3.086-0.928,6.437-3.787,7.793c-0.789,0.374-1.591,0.572-2.385,0.588c-0.032,0.001-0.062,0.001-0.094,0.001 c-0.782,0-1.6-0.176-2.5-0.537c-1.886-0.756-3.408-1.97-4.4-3.515C156.552,149.746,156.204,147.519,156.783,145.592z" fill="#FDEFF6"/></g><g id="change4_4"><path d="M129.537,130.626c-0.67-3.306-1.474-6.611-3.147-9.521c-1.968-3.421-4.982-6.096-7.962-8.684 c-1.891-1.642-3.928-3.318-6.257-4.1c0.401,5.131,2.374,10.139,5.606,14.146c3.001,3.72,7.074,6.574,11.591,8.146 C129.424,130.611,129.481,130.624,129.537,130.626z" fill="#FDEFF6"/></g><g id="change5_1"><path d="M198.145,230.812c-10.866-4.325-22.94-17.749-24.511-47.406l-2.821-2.711 c0.483,5.622,0.816,11.083,0.998,16.362l0.011-0.037c3.728,24.301,15.596,41.343,9.671,66.752c-1.223-3.332-3.085-6.428-5.454-9.07 c2.257,14.206,6.05,30.924-2.334,42.884l-0.955,0.165c-1.147-5.517-2.594-10.96-4.2-16.359c-0.062,5.777,0.106,11.417,0.61,16.982 l-0.262,0.045l0.48,2.149c0.11,1.021,0.233,2.04,0.368,3.057c0.089-0.051,0.179-0.102,0.277-0.14 c0.001-0.001,0.003-0.001,0.005-0.001c1.043-0.396,2.219,0.121,2.622,1.167c4.945,12.834,9.411,37.889,13.351,59.994 c2.44,13.688,4.744,26.616,6.828,34.751c0.226,0.886-0.173,1.778-0.915,2.231l0.668,2.997c0.181-0.039,0.368-0.064,0.566-0.054 l22.282,1.374l-0.036-83.375c0.096,0.003,0.193,0.006,0.257,0.032l0.436-12.46c17.699-0.372,27.79-5.524,46.699,9.445 c0.198-0.02,0.399-0.04,0.596-0.06c4.052,0.02,9.53,0.209,15.534,0.482c-0.465-0.262-0.959-0.529-1.474-0.806 c-7.056-3.8-18.866-10.159-16.667-36.551c0.094-1.119,1.077-1.958,2.195-1.857c1.118,0.093,1.949,1.075,1.857,2.194 c-1.978,23.738,7.571,28.88,14.543,32.635c1.252,0.674,2.422,1.314,3.433,2.02c1.422,0.993,2.518,2.119,2.993,3.689 c5.689,18.814,16.913,69.01,17.026,69.515c0.242,1.081-0.429,2.151-1.501,2.413l2.784,11.369c0.155-0.038,0.315-0.064,0.482-0.064 h20.813l-1.875-76.664l0.287-5.46c0.76-9.919,7.066-33.205,5.145-54.491c2.909,1.552,5.959,2.844,9.128,3.805 c-0.664-1.833-1.755-3.51-3.162-4.861c6.818,2.297,14.057,3.34,21.246,3.064c-3.76-7.406-10.615-13.177-18.553-15.62 c5.227-0.268,10.515,0.75,15.268,2.941c-5.228-9.082-12.731-16.842-21.632-22.372c-4.786-2.974-20.237-6.209-25.659-4.675 c-8.996-4.121-21.161-5.941-37.515-4.338C230.118,229.618,201.812,232.272,198.145,230.812z M299.079,311.04 c-0.161-1.111,0.607-2.142,1.719-2.304c1.105-0.161,2.144,0.607,2.304,1.719l0.593,4.095c0.161,1.111-0.61,2.142-1.72,2.302 c-0.099,0.015-0.197,0.021-0.294,0.021c-0.994,0-1.863-0.729-2.009-1.742L299.079,311.04z M303.329,329.136 c-0.12,0.022-0.24,0.032-0.359,0.032c-0.966,0-1.824-0.692-1.998-1.677l-0.625-3.499c-0.199-1.105,0.537-2.162,1.642-2.359 c1.105-0.201,2.162,0.537,2.359,1.642l0.625,3.505C305.172,327.884,304.434,328.94,303.329,329.136z M309.851,340.542 c-0.109,0.018-0.217,0.026-0.324,0.026c-0.981,0-1.843-0.711-2.005-1.71l-0.655-4.082c-0.18-1.108,0.574-2.151,1.682-2.33 c1.11-0.177,2.153,0.575,2.33,1.683l0.658,4.084C311.714,339.322,310.96,340.364,309.851,340.542z M321.495,347.018 c0,1.123-0.91,2.033-2.033,2.033c-1.122,0-2.033-0.91-2.033-2.033v-3.217c0-1.123,0.91-2.033,2.033-2.033 c1.122,0,2.033,0.91,2.033,2.033V347.018z M321.495,314.264c0,1.123-0.91,2.033-2.033,2.033c-1.122,0-2.033-0.91-2.033-2.033v-4.387 c0-1.123,0.91-2.033,2.033-2.033c1.122,0,2.033,0.91,2.033,2.033V314.264z M293.189,234.414c1.043-0.412,2.224,0.099,2.637,1.144 c0.371,0.94,0.517,1.97,0.426,2.979c-0.098,1.055-0.983,1.847-2.022,1.847c-0.062,0-0.126-0.003-0.188-0.009 c-1.118-0.103-1.941-1.092-1.839-2.21c0.036-0.378-0.02-0.763-0.159-1.114C291.633,236.006,292.145,234.825,293.189,234.414z M282.651,231.375c1.031-0.444,2.227,0.027,2.673,1.057l1.771,4.087c0.447,1.03-0.026,2.226-1.056,2.673 c-0.263,0.114-0.537,0.168-0.807,0.168c-0.786,0-1.534-0.459-1.866-1.225l-1.771-4.087 C281.148,233.018,281.622,231.822,282.651,231.375z M267.084,232.48c0.979-0.549,2.219-0.203,2.768,0.776l2.311,4.11 c0.55,0.979,0.202,2.218-0.775,2.768c-0.315,0.177-0.658,0.261-0.995,0.261c-0.711,0-1.4-0.373-1.773-1.037l-2.311-4.111 C265.758,234.269,266.106,233.03,267.084,232.48z M188.724,346.895c-0.105,0.017-0.209,0.024-0.312,0.024 c-0.986,0-1.851-0.719-2.006-1.723l-0.717-4.66c-0.171-1.11,0.592-2.147,1.7-2.317c1.098-0.173,2.148,0.59,2.317,1.7l0.717,4.657 C190.594,345.686,189.834,346.723,188.724,346.895z M201.153,351.262c-0.234,0.087-0.472,0.128-0.708,0.128 c-0.826,0-1.601-0.507-1.906-1.326c-0.663-1.785-0.896-3.73-0.672-5.623c0.13-1.115,1.146-1.912,2.255-1.781 c1.116,0.131,1.914,1.141,1.781,2.256c-0.147,1.257,0.007,2.548,0.447,3.734C202.741,349.701,202.205,350.871,201.153,351.262z M201.397,336.059c-0.234,0.087-0.472,0.128-0.708,0.128c-0.826,0-1.601-0.507-1.906-1.326c-0.663-1.787-0.896-3.732-0.671-5.625 c0.131-1.114,1.126-1.91,2.258-1.779c1.114,0.132,1.911,1.143,1.779,2.258c-0.148,1.255,0.005,2.546,0.446,3.732 C202.985,334.498,202.449,335.668,201.397,336.059z" fill="#D2CAE5"/></g><g id="change5_2"><path d="M217.82 165.912L217.821 165.914 217.822 165.915 217.821 165.913z" fill="#D2CAE5"/></g><g id="change5_3"><path d="M112.249,126.196c2.305,3.751,5.562,7.07,9.675,8.638c3.372,1.286,8.715,2.058,9.376,7.776l0.218-0.723 c0.044,1.676,0.377,3.289,0.954,4.843c-20.511,158.655,1.08,164.602,1.08,164.602l4.318-13.288c0.022,0.046,0.046,0.092,0.068,0.139 c-1.784,14.103,3.905,22.298,3.905,22.298l4.141-7.588c3.018,4.813,6.073,8.771,8.848,10.741c5.895,4.186,12.103,6.346,18.213,7.221 c0.834,0.119,1.665,0.216,2.493,0.288c-0.172-0.816-0.345-1.631-0.519-2.431c-3.068-0.506-10.96-2.658-11.692-3.12 c-8.195-5.172-11.529-17.803-15.309-26.29c-0.894-2.008-1.432-6.953-2.268-8.94c-0.136,2.126-0.538,7.119-0.621,8.94 c-6.459-2.549-9.142-18.029-8.674-23.894c-0.963,2.819-1.567,4.714-1.474,7.692c-8.883-13.247-5.968-30.59-3.83-46.152 c-1.894-26.385,2.192-53.284,12.846-77.481c3.219,2.137,6.899,4.093,10.849,5.878l18.665,6.819l0.016,0.006l0.009,0.135 c0.001-0.044,0.003-0.088,0.004-0.132c19.835,5.942,39.224,8.514,39.224,8.514c6.709-4.144,7.362-9.384,5.055-14.77 c1.395,3.26,1.618,6.974-0.436,10.027c-1.842,2.737-5.602,0.823-7.559-1.138c-1.466-1.469-2.317-3.534-2.311-5.609 c0.003-0.763,0.12-1.538,0.457-2.223c0.86-1.748,2.938-2.54,4.874-2.749c1.794-0.194,3.154-0.475,4.149,0.449 c-2.868-4.313-12.745-19.177-20.845-31.432c-5.3-8.018-9.836-14.915-11.132-16.982c-0.001-0.001-0.002-0.002-0.003-0.003 c-0.483-0.771-3.754-2.314-8.464-3.513c-0.033,1.449,0.143,2.902,0.564,4.336c0,0-0.468,2.858-3.988,2.111 c-5.698-1.209-4.572-5.059-4.572-5.059c-0.035-0.959,0.007-1.879,0.08-2.779c-4.634-0.463-9.759-0.351-14.704,0.896 c0.285,1.069,0.516,2.183,0.653,3.366c0,0,1.693,3.636-3.756,5.691c-3.367,1.27-4.262-1.485-4.262-1.485 c0.211-1.561,0.141-3.099-0.147-4.599c-4.164,2.365-7.88,5.922-10.633,11.103c-0.683,0.744-1.745,1.695-2.485,1.387 c-1.554-0.648-0.728-3.534-3.246-9.356c-3.666-8.477-14.48-15.105-23.57-16.734c-0.358-0.064-0.756-0.113-1.059,0.087 c-0.335,0.222-0.428,0.667-0.474,1.066c-0.443,3.843,0.838,7.653,2.1,11.31C108.492,118.245,109.945,122.445,112.249,126.196z M151.178,146.383c1.23-2.632,3.825-4.413,6.568-5.371c2.638-0.921,5.565-1.182,8.232-0.351c4.604,1.435,7.622,5.725,10.288,9.743 l0.75,2.541c-0.015,1.423-1.188,2.664-2.498,3.221c-1.309,0.556-2.775,0.582-4.198,0.582c-4.675,0.001-9.377-0.18-13.95-1.147 c-1.252-0.264-2.524-0.602-3.562-1.35C150.451,152.553,149.948,149.015,151.178,146.383z M109.976,105.967 c1.101-0.067,2.084,0.787,2.15,1.907c0.009,0.15,0.033,0.298,0.045,0.447c2.329,0.783,4.366,2.459,6.257,4.1 c2.979,2.587,5.994,5.263,7.962,8.684c1.673,2.91,2.477,6.215,3.147,9.521c0.269,0.01,0.542,0.057,0.801,0.18l0.83,0.393 c0.955,0.452,1.404,1.56,1.035,2.549c-0.303,0.811-1.075,1.321-1.904,1.321c-0.181,0-0.365-0.024-0.549-0.076 c-5.909-1.656-11.284-5.198-15.136-9.972c-3.852-4.776-6.176-10.778-6.544-16.903C108.002,106.997,108.856,106.034,109.976,105.967z" fill="#D2CAE5"/></g><g id="change6_1"><path d="M153.933,112.247c-2.316-8.698-8.907-13.642-9.728-15.02c-2.822-4.741-0.861-14.553-3.778-19.246 c-0.191-0.308-0.425-0.625-0.793-0.744c-1.024-0.331-1.716,1.001-1.835,1.992c-0.374,3.123,0.18,11.126,0.276,14.256 c-10.885-0.97-19.09-8.432-23.85-22.949c-1.571-4.79-1.161-13.503-4.767-14.166c-3.605-0.662-3.107,5.014-3.074,7.886 c0.057,4.897,2.719,14.507,5.025,18.885c-7.497-1.052-15.887-4.048-19.694-14.884c-2.294-6.531-1.232-16.162-1.195-23.066 c0.017-3.056,1.616-8.077-1.3-8.986c-2.916-0.909-3.376,3.977-3.419,6.476c-0.044,2.499-1.674,13.346-2.488,15.752 c-3.159-4.453-5.919-18.326-6.357-24.607c-0.437-6.281,0.466-12.708-1.03-18.83c-0.249-1.014-0.87-2.23-2.021-2.173 c-0.834,0.041-1.425,0.759-1.829,1.429c-1.707,2.823-2.401,6.04-2.747,9.217c-0.605,5.574-0.212,11.178,0.519,16.709 c2.111,15.978,7.751,32.579,21.478,42.546c5.695,4.135,12.479,6.889,19.403,9.065c8.14,2.557,16.707,4.427,23.92,8.648 c5.777,3.381,10.616,8.753,11.773,14.785c0.288,1.5,0.358,3.038,0.147,4.599c0,0,0.895,2.754,4.262,1.485 c5.449-2.055,3.756-5.691,3.756-5.691C154.449,114.43,154.217,113.315,153.933,112.247z" fill="#FFE5BB"/></g><g id="change6_2"><path d="M240.94,26.77c-0.112-5.578-0.569-11.177-2.009-16.595c-0.821-3.089-1.992-6.165-4.106-8.697 c-0.501-0.601-1.194-1.221-2.024-1.136c-1.147,0.117-1.577,1.413-1.669,2.453c-0.556,6.277,1.307,12.494,1.824,18.769 c0.515,6.275-0.12,20.405-2.571,25.284c-1.168-2.255-4.416-12.732-4.837-15.196c-0.421-2.464-1.612-7.224-4.358-5.886 c-2.745,1.339-0.406,6.061,0.071,9.08c1.079,6.82,3.582,16.18,2.299,22.983c-2.127,11.286-9.97,15.514-17.221,17.685 c1.618-4.676,2.799-14.578,2.117-19.427c-0.401-2.845-0.765-8.531-4.229-7.332s-1.744,9.75-2.574,14.723 c-2.515,15.069-9.499,23.683-20.114,26.285c-0.378-3.108-1.037-11.103-1.878-14.134c-0.267-0.961-1.153-2.174-2.115-1.692 c-0.345,0.173-0.529,0.523-0.672,0.856c-2.175,5.079,1.244,14.483-0.83,19.596c-0.617,1.521-6.646,7.653-7.407,16.963 c-0.073,0.901-0.115,1.82-0.08,2.779c0,0-1.125,3.85,4.572,5.059c3.52,0.747,3.988-2.111,3.988-2.111 c-0.421-1.434-0.597-2.887-0.564-4.336c0.141-6.217,4.157-12.358,9.423-16.625c6.493-5.261,14.679-8.402,22.34-12.159 c6.517-3.195,12.808-6.942,17.814-11.889C238.195,60.145,241.264,42.883,240.94,26.77z" fill="#FFE5BB"/></g><g id="change7_1"><path d="M175.255,415.738l-0.777,7.55c-0.051,0.495,0.087,0.961,0.347,1.343c0.326,0.48,0.846,0.823,1.468,0.888 c0.07,0.007,0.14,0.011,0.21,0.011c0.682,0,1.277-0.362,1.648-0.898c0.188-0.272,0.335-0.574,0.372-0.926l0.777-7.55 c0.115-1.117-0.697-2.115-1.814-2.23C176.378,413.808,175.371,414.622,175.255,415.738z" fill="#16213D"/></g><g id="change7_2"><path d="M290.012,413.926c-1.117,0.118-1.925,1.12-1.806,2.236l0.802,7.55c0.037,0.35,0.183,0.65,0.37,0.92 c0.37,0.537,0.966,0.898,1.648,0.898c0.071,0,0.144-0.003,0.217-0.011c0.62-0.066,1.137-0.409,1.461-0.887 c0.26-0.383,0.398-0.852,0.345-1.349l-0.802-7.55C292.129,414.616,291.129,413.806,290.012,413.926z" fill="#16213D"/></g><g id="change7_3"><path d="M285.692,336.311c5.781,22.408,13.073,55.016,13.164,55.422c0.212,0.947,1.051,1.591,1.982,1.591 c0.001,0,0.002,0,0.003,0c0.145,0,0.293-0.016,0.442-0.049c0.014-0.003,0.026-0.01,0.04-0.013c1.071-0.263,1.742-1.332,1.501-2.413 c-0.112-0.505-11.337-50.701-17.026-69.515c-0.475-1.57-1.571-2.697-2.993-3.689c-1.011-0.706-2.181-1.346-3.433-2.02 c-6.973-3.755-16.522-8.897-14.543-32.635c0.093-1.119-0.738-2.101-1.857-2.194c-1.118-0.101-2.101,0.738-2.195,1.857 c-2.199,26.392,9.611,32.751,16.667,36.551c0.514,0.277,1.008,0.544,1.474,0.806c-6.003-0.272-11.482-0.461-15.534-0.482 c-0.197,0.02-0.398,0.04-0.596,0.06c0.005,0.004,0.01,0.008,0.015,0.012c-0.899,0.104-1.97,0.272-3.175,0.483 C259.922,320.267,274.978,329.78,285.692,336.311z" fill="#16213D"/></g><g id="change7_4"><path d="M304.588,408.632h0.349h20.349h0.165c1.122,0,2.033-0.91,2.033-2.033s-0.91-2.033-2.033-2.033h-0.049 h-20.813c-0.167,0-0.327,0.026-0.482,0.064c-0.889,0.217-1.551,1.013-1.551,1.969C302.555,407.722,303.466,408.632,304.588,408.632z" fill="#16213D"/></g><g id="change7_5"><path d="M315.869,413.924c-1.118,0.105-1.939,1.096-1.833,2.214l0.709,7.548c0.033,0.36,0.183,0.669,0.375,0.946 c0.37,0.535,0.963,0.898,1.646,0.898c0.064,0,0.127-0.003,0.192-0.009c0.629-0.059,1.157-0.404,1.485-0.889 c0.255-0.377,0.394-0.836,0.349-1.324l-0.709-7.551C317.977,414.639,316.993,413.813,315.869,413.924z" fill="#16213D"/></g><g id="change7_6"><path d="M215.305,410.01c0.044,0.003,0.086,0.004,0.127,0.004c1.067,0,1.961-0.83,2.027-1.908 c0.069-1.12-0.783-2.085-1.903-2.154l-0.127-0.008l-22.282-1.374c-0.198-0.01-0.385,0.015-0.566,0.054 c-0.884,0.191-1.53,0.921-1.589,1.85c-0.069,1.12,0.783,2.085,1.903,2.154l0.508,0.031l21.589,1.332L215.305,410.01z" fill="#16213D"/></g><g id="change7_7"><path d="M205.146,413.925c-1.117,0.112-1.931,1.109-1.818,2.226l0.762,7.55c0.036,0.353,0.183,0.657,0.372,0.93 c0.37,0.536,0.965,0.898,1.648,0.898c0.069,0,0.138-0.003,0.206-0.011c0.623-0.063,1.145-0.406,1.472-0.888 c0.258-0.381,0.396-0.845,0.347-1.339l-0.762-7.55C207.26,414.625,206.254,413.809,205.146,413.925z" fill="#16213D"/></g><g id="change7_8"><path d="M186.406,345.195c0.155,1.004,1.02,1.723,2.006,1.723c0.103,0,0.208-0.007,0.312-0.024 c1.11-0.171,1.87-1.209,1.699-2.318l-0.717-4.657c-0.169-1.11-1.219-1.873-2.317-1.7c-1.109,0.17-1.871,1.208-1.7,2.317 L186.406,345.195z" fill="#16213D"/></g><g id="change7_9"><path d="M200.122,342.659c-1.109-0.131-2.125,0.666-2.255,1.781c-0.224,1.894,0.009,3.838,0.672,5.623 c0.304,0.819,1.08,1.326,1.906,1.326c0.236,0,0.474-0.041,0.708-0.128c1.052-0.391,1.588-1.561,1.198-2.613 c-0.441-1.186-0.594-2.477-0.447-3.734C202.035,343.801,201.237,342.79,200.122,342.659z" fill="#16213D"/></g><g id="change7_10"><path d="M200.371,327.456c-1.131-0.13-2.127,0.665-2.258,1.779c-0.225,1.893,0.008,3.838,0.671,5.625 c0.304,0.819,1.08,1.326,1.906,1.326c0.236,0,0.474-0.041,0.708-0.128c1.052-0.391,1.588-1.561,1.198-2.613 c-0.441-1.186-0.594-2.477-0.446-3.732C202.281,328.6,201.485,327.589,200.371,327.456z" fill="#16213D"/></g><g id="change7_11"><path d="M268.619,239.359c0.373,0.664,1.063,1.037,1.773,1.037c0.337,0,0.68-0.085,0.995-0.261 c0.978-0.551,1.326-1.79,0.775-2.768l-2.311-4.11c-0.549-0.979-1.789-1.325-2.768-0.776c-0.978,0.55-1.326,1.789-0.775,2.768 L268.619,239.359z" fill="#16213D"/></g><g id="change7_12"><path d="M282.651,231.375c-1.03,0.447-1.503,1.643-1.056,2.673l1.771,4.087c0.332,0.767,1.08,1.225,1.866,1.225 c0.27,0,0.544-0.054,0.807-0.168c1.03-0.447,1.503-1.643,1.056-2.673l-1.771-4.087C284.879,231.403,283.682,230.931,282.651,231.375 z" fill="#16213D"/></g><g id="change7_13"><path d="M149.587,240.402c0,1.123,0.91,2.033,2.033,2.033c1.122,0,2.033-0.91,2.033-2.033v-4.094 c0-1.123-0.91-2.033-2.033-2.033c-1.122,0-2.033,0.91-2.033,2.033V240.402z" fill="#16213D"/></g><g id="change7_14"><path d="M160.085,242.741v-0.585c0-1.123-0.91-2.033-2.033-2.033c-1.122,0-2.033,0.91-2.033,2.033v0.585 c0,1.123,0.91,2.033,2.033,2.033C159.175,244.774,160.085,243.864,160.085,242.741z" fill="#16213D"/></g><g id="change7_15"><path d="M319.462,316.297c1.122,0,2.033-0.91,2.033-2.033v-4.387c0-1.123-0.91-2.033-2.033-2.033 c-1.122,0-2.033,0.91-2.033,2.033v4.387C317.429,315.387,318.34,316.297,319.462,316.297z" fill="#16213D"/></g><g id="change7_16"><path d="M301.974,316.852c1.11-0.16,1.882-1.191,1.72-2.302l-0.593-4.095c-0.16-1.112-1.199-1.88-2.304-1.719 c-1.112,0.161-1.88,1.193-1.719,2.304l0.593,4.091c0.146,1.013,1.015,1.742,2.009,1.742 C301.777,316.873,301.875,316.867,301.974,316.852z" fill="#16213D"/></g><g id="change7_17"><path d="M300.973,327.491c0.175,0.985,1.032,1.677,1.998,1.677c0.119,0,0.238-0.011,0.359-0.032 c1.105-0.197,1.842-1.252,1.645-2.357l-0.625-3.505c-0.197-1.106-1.254-1.843-2.359-1.642c-1.105,0.198-1.841,1.254-1.642,2.359 L300.973,327.491z" fill="#16213D"/></g><g id="change7_18"><path d="M309.527,340.568c0.107,0,0.216-0.008,0.324-0.026c1.109-0.178,1.863-1.22,1.686-2.329l-0.658-4.084 c-0.177-1.108-1.22-1.86-2.33-1.683c-1.108,0.179-1.862,1.223-1.682,2.33l0.655,4.082 C307.683,339.856,308.546,340.568,309.527,340.568z" fill="#16213D"/></g><g id="change7_19"><path d="M317.429,347.018c0,1.123,0.91,2.033,2.033,2.033c1.122,0,2.033-0.91,2.033-2.033v-3.217 c0-1.123-0.91-2.033-2.033-2.033c-1.122,0-2.033,0.91-2.033,2.033V347.018z" fill="#16213D"/></g><g id="change7_20"><path d="M293.189,234.414c-1.044,0.412-1.556,1.593-1.145,2.637c0.139,0.351,0.195,0.736,0.159,1.114 c-0.102,1.118,0.721,2.107,1.839,2.21c0.062,0.006,0.126,0.009,0.188,0.009c1.039,0,1.924-0.792,2.022-1.847 c0.091-1.008-0.056-2.039-0.426-2.979C295.413,234.513,294.232,234.001,293.189,234.414z" fill="#16213D"/></g><g id="change7_21"><path d="M173.634 183.407L174.357 184.102 173.539 172.303 173.53 172.168 173.514 172.162 154.849 165.344 154.835 165.338 170.812 180.695z" fill="#16213D"/></g><g id="change7_22"><path d="M188.891,400.405c0.149,0.58,0.545,1.013,1.035,1.272c0.287,0.151,0.598,0.257,0.932,0.257 c0.167,0,0.336-0.021,0.506-0.064c0.201-0.052,0.381-0.139,0.55-0.242c0.742-0.453,1.141-1.345,0.915-2.231 c-2.084-8.135-4.388-21.063-6.828-34.751c-3.939-22.105-8.406-47.16-13.351-59.994c-0.403-1.046-1.579-1.563-2.622-1.167 c-0.001,0.001-0.003,0.001-0.005,0.001c-0.099,0.038-0.188,0.089-0.277,0.14c-0.856,0.49-1.254,1.539-0.889,2.488 c2.133,5.536,4.192,13.52,6.165,22.598c0.174,0.8,0.347,1.615,0.519,2.431c2.279,10.782,4.438,22.885,6.458,34.217 C184.452,379.123,186.77,392.123,188.891,400.405z" fill="#16213D"/></g><g id="change7_23"><path d="M217.386,175.943c2.054-3.054,1.831-6.768,0.435-10.029c-0.001-0.001-0.001-0.001-0.001-0.001 c-0.24-0.559-0.515-0.952-0.823-1.239c-0.995-0.924-2.355-0.643-4.149-0.449c-1.937,0.209-4.014,1.001-4.874,2.749 c-0.337,0.685-0.455,1.46-0.457,2.223c-0.007,2.075,0.844,4.14,2.311,5.609C211.784,176.766,215.544,178.68,217.386,175.943z" fill="#16213D"/></g><g id="change7_24"><path d="M159.315,144.231c-1.065-0.322-2.207,0.285-2.532,1.361c-0.58,1.927-0.232,4.154,0.929,5.957 c0.992,1.544,2.514,2.759,4.4,3.515c0.9,0.361,1.718,0.537,2.5,0.537c0.032,0,0.062-0.001,0.094-0.001 c0.794-0.015,1.596-0.213,2.385-0.588c2.86-1.356,4.489-4.707,3.787-7.793c-0.247-1.094-1.333-1.784-2.432-1.532 c-1.094,0.249-1.781,1.338-1.532,2.432c0.275,1.213-0.441,2.688-1.564,3.22c-0.262,0.124-0.512,0.192-0.72,0.197 c-0.228,0.003-0.581-0.075-1.006-0.245c-1.081-0.433-1.966-1.122-2.492-1.94c-0.519-0.805-0.693-1.796-0.455-2.586 C160.999,145.688,160.391,144.555,159.315,144.231z" fill="#16213D"/></g><g id="change7_25"><path d="M108.07,108.118c0.368,6.124,2.692,12.127,6.544,16.903c3.852,4.775,9.227,8.316,15.136,9.972 c0.184,0.052,0.368,0.076,0.549,0.076c0.83,0,1.601-0.51,1.904-1.321c0.369-0.989-0.079-2.097-1.035-2.549l-0.83-0.393 c-0.259-0.122-0.533-0.17-0.801-0.18c-0.056-0.002-0.113-0.015-0.169-0.012c-4.516-1.572-8.59-4.426-11.591-8.146 c-3.232-4.007-5.205-9.015-5.606-14.146c-0.012-0.149-0.036-0.298-0.045-0.447c-0.066-1.12-1.049-1.974-2.15-1.907 C108.856,106.034,108.002,106.997,108.07,108.118z" fill="#16213D"/></g></svg>