<?xml version="1.0" encoding="UTF-8"?><svg xmlns="http://www.w3.org/2000/svg" xmlns:xlink="http://www.w3.org/1999/xlink" height="416.8" preserveAspectRatio="xMidYMid meet" version="1.0" viewBox="-6.8 -6.3 407.3 416.8" width="407.3" zoomAndPan="magnify"><g id="change1_1"><path d="M332.61,199.65c7.92,7.32,15.01,15.58,21.05,24.76c15.78,23.96,23.34,53.34,17.42,81.73 c-5.87,28.17-24,52.32-46.64,69.48c-25.86,19.61-57.47,29.14-89.52,31.95c-34.19,3-69.86-0.51-103.27-8.22 c-28.78-6.64-57.66-19.23-74.89-44.35c-15.8-23.04-19.55-52.72-14.16-79.74c3.15-15.78,9.7-30.68,18.64-44 c-13.86-0.3-28.36-2.25-40.46-9.18c-23.63-13.53-27.56-46.52-9.62-66.33c8.67-9.58,21.74-15.88,34.78-15.42 c10.03,0.35,19.19,4.49,27,10.5c-6.83-13.95-11.03-29.23-12.24-44.72c-2.4-30.59,8.52-60.8,30.88-82.02 c24.08-22.86,57.17-30.34,88.43-18.55c31.49,11.88,55.87,36.35,70.91,65.88c8.96-21.01,27.74-38,49.33-45.21 c20.33-6.79,43.12-3.09,61.18,8.14c19.21,11.95,31.44,31.74,34.46,54.07c3.18,23.57-3.3,47.42-16.01,67.3 C368.07,174.21,351.18,188.27,332.61,199.65z" fill="#F5AF4D"/></g><g id="change2_1"><path d="M249.32,78.27c12.55,26.47,17.3,56.54,12.53,85.55c-4.51-0.92-9.06-1.65-13.62-2.19 c-0.31-0.18-0.67-0.3-1.11-0.31c-0.51-0.01-1.02,0.01-1.53,0.01c-18.99-1.98-38.29-0.94-57.44,1.65c-3.36,0.45-6.71,0.95-10.06,1.48 c-0.05,0.01-0.09,0-0.14,0.01c-0.07,0.01-0.15,0.03-0.22,0.05c-5.33,0.83-10.65,1.73-15.96,2.67 c-18.83,4.24-37.16,10.81-53.75,20.47C62.76,152.52,49.22,80.38,87.27,35.24c20.04-23.78,50.43-36.37,81.19-28.64 c31.23,7.85,57.45,31.42,73.81,58.52c2.42,4.02,4.65,8.15,6.68,12.37C249.01,77.79,249.14,78.05,249.32,78.27z M79.67,162.76 c-0.36-0.09-0.72-0.29-1.05-0.64c-11.29-12.28-27.09-20.65-44-15.84c-14.57,4.15-26.81,16.32-29.7,31.37 c-2.98,15.5,3.9,32.09,17.55,40.2c12.41,7.38,27.73,8.89,41.93,8.96c6.24-8.54,13.48-16.37,21.42-23.3 c5.71-4.98,11.79-9.42,18.14-13.39C94.4,182.37,86.25,173.07,79.67,162.76z M355.34,35.98c-18.54-10.04-40.87-11.71-60.22-2.96 c-18.68,8.45-34.61,24.43-41.5,43.89c12.61,27.37,17.37,58.54,12.61,87.85c5.96,1.39,11.88,3.14,17.73,5.31 c4.9,1.81,9.67,3.87,14.33,6.16c0.15,0.05,0.3,0.08,0.44,0.13c0.36,0.12,0.65,0.29,0.88,0.51c10.63,5.34,20.54,11.93,29.49,19.66 c19.74-11.93,37.51-26.86,49.29-46.98C400.48,111.8,396.96,58.53,355.34,35.98z" fill="#A4F4EC"/></g><g id="change3_1"><path d="M330.12,285.47c0,1.98-1.61,3.59-3.59,3.59c-1.98,0-3.59-1.61-3.59-3.59s1.61-3.59,3.59-3.59 C328.51,281.89,330.12,283.49,330.12,285.47z M230.71,283.23c-1.98,0-3.59,1.61-3.59,3.59s1.61,3.59,3.59,3.59 c1.98,0,3.59-1.61,3.59-3.59S232.69,283.23,230.71,283.23z M235.35,289.93c-0.84,0-1.53,0.68-1.53,1.53c0,0.84,0.68,1.53,1.53,1.53 s1.53-0.68,1.53-1.53C236.88,290.61,236.2,289.93,235.35,289.93z M331.17,288.59c-0.84,0-1.53,0.68-1.53,1.53 c0,0.84,0.68,1.53,1.53,1.53s1.53-0.68,1.53-1.53C332.7,289.27,332.02,288.59,331.17,288.59z" fill="#F5F5F5"/></g><g id="change4_1"><path d="M233.65,313.56c0,3.82-6.52,6.92-14.56,6.92c-8.04,0-14.56-3.1-14.56-6.92s6.52-6.92,14.56-6.92 C227.13,306.64,233.65,309.73,233.65,313.56z M344.03,305.3c-8.04,0-14.56,3.1-14.56,6.92c0,3.82,6.52,6.92,14.56,6.92 c8.04,0,14.56-3.1,14.56-6.92C358.6,308.39,352.08,305.3,344.03,305.3z" fill="#FF5C50"/></g><g id="change5_1"><path d="M379.9,155.7c12.71-19.89,19.19-43.74,16.01-67.3c-3.02-22.33-15.24-42.12-34.46-54.07 C343.4,23.1,320.6,19.4,300.27,26.19C278.68,33.4,259.9,50.4,250.94,71.4c-15.03-29.53-39.41-54-70.91-65.88 c-31.26-11.79-64.35-4.31-88.43,18.55C69.25,45.3,58.32,75.51,60.73,106.1c1.22,15.5,5.42,30.77,12.24,44.72 c-7.81-6-16.97-10.15-27-10.5c-13.04-0.45-26.11,5.84-34.78,15.42c-17.94,19.81-14.02,52.8,9.62,66.33 c12.1,6.93,26.6,8.87,40.46,9.18c-8.95,13.33-15.5,28.22-18.64,44c-5.39,27.02-1.64,56.7,14.16,79.74 c17.22,25.12,46.11,37.71,74.89,44.35c33.4,7.7,69.08,11.22,103.27,8.22c32.05-2.81,63.65-12.34,89.52-31.95 c22.63-17.16,40.77-41.31,46.64-69.48c5.92-28.39-1.64-57.77-17.42-81.73c-6.04-9.17-13.13-17.43-21.05-24.76 C351.18,188.27,368.07,174.21,379.9,155.7z M87.27,35.24c20.04-23.78,50.43-36.37,81.19-28.64c31.23,7.85,57.45,31.42,73.81,58.52 c2.42,4.02,4.65,8.15,6.68,12.37c0.06,0.3,0.19,0.56,0.37,0.78c12.55,26.47,17.3,56.54,12.53,85.55c-4.51-0.92-9.06-1.65-13.62-2.19 c-0.31-0.18-0.67-0.3-1.11-0.31c-0.51-0.01-1.02,0.01-1.53,0.01c-18.99-1.98-38.29-0.94-57.44,1.65c-3.36,0.45-6.71,0.95-10.06,1.48 c-0.05,0.01-0.09,0-0.14,0.01c-0.07,0.01-0.15,0.03-0.22,0.05c-5.33,0.83-10.65,1.73-15.96,2.67 c-18.83,4.24-37.16,10.81-53.75,20.47C62.76,152.52,49.22,80.38,87.27,35.24z M22.47,217.84c-13.65-8.11-20.53-24.7-17.55-40.2 c2.89-15.05,15.13-27.22,29.7-31.37c16.91-4.81,32.71,3.57,44,15.84c0.33,0.35,0.68,0.55,1.05,0.64 c6.58,10.32,14.73,19.62,24.29,27.35c-6.35,3.97-12.43,8.41-18.14,13.39c-7.94,6.93-15.18,14.76-21.42,23.3 C50.2,226.73,34.88,225.22,22.47,217.84z M156.14,399.38c-0.79-0.12-1.57-0.24-2.36-0.37c-0.01,0-0.02-0.01-0.03-0.01 c-15.02-3.27-28.4-9.17-38.31-21.3c-12.19-14.91-19.61-33.6-22.51-52.52c-6.38-41.57,8.79-85.61,32.14-119.73 c13.02-19.03,31.05-32.51,53.99-36.64c14.21-2.21,28.57-3.89,42.91-4.15c-32.69,9.47-57.47,37.87-70.29,69.8 c-17.98,44.8-17.16,98.8,11.39,139.05c8.92,12.57,20.58,23.87,34.55,30.04C183.59,402.95,169.65,401.44,156.14,399.38z M336.21,209.47c19.21,20.59,32.33,47.8,32.45,76.3c0.12,28.03-12.96,54.12-32.49,73.72c-15.53,15.58-33.65,26.24-53.19,33.21 c-0.12-0.01-0.24-0.02-0.37-0.01c-10.54,0.75-21.22,0.99-31.54-1.62c-12.14-3.07-22.83-9.9-31.97-18.33 c-16.31-15.05-26.95-35.67-30.96-57.42c-3.59-19.49-3.79-41.9,2.52-60.84c6.88-20.66,20.48-39.63,37.19-53.45 c18.58-15.36,44.71-27.96,69.08-20.51C311.56,187.75,324.96,197.4,336.21,209.47z M329.1,196.52c-8.95-7.73-18.86-14.31-29.49-19.66 c-0.23-0.21-0.52-0.39-0.88-0.51c-0.15-0.05-0.3-0.09-0.44-0.13c-4.65-2.28-9.43-4.35-14.33-6.16c-5.85-2.16-11.77-3.91-17.73-5.31 c4.76-29.31-0.01-60.48-12.61-87.85c6.89-19.46,22.82-35.44,41.5-43.89c19.35-8.76,41.69-7.09,60.22,2.96 c41.62,22.55,45.14,75.82,23.05,113.57C366.62,169.66,348.84,184.59,329.1,196.52z M233.65,278.43c-6.18,0-11.18,5.01-11.18,11.18 s5.01,11.18,11.18,11.18c6.18,0,11.18-5.01,11.18-11.18S239.82,278.43,233.65,278.43z M230.71,290.4c-1.98,0-3.59-1.61-3.59-3.59 s1.61-3.59,3.59-3.59c1.98,0,3.59,1.61,3.59,3.59S232.69,290.4,230.71,290.4z M235.35,292.99c-0.84,0-1.53-0.68-1.53-1.53 c0-0.84,0.68-1.53,1.53-1.53s1.53,0.68,1.53,1.53C236.88,292.3,236.2,292.99,235.35,292.99z M329.47,299.45 c6.18,0,11.18-5.01,11.18-11.18s-5.01-11.18-11.18-11.18c-6.18,0-11.18,5.01-11.18,11.18S323.29,299.45,329.47,299.45z M332.7,290.12c0,0.84-0.68,1.53-1.53,1.53s-1.53-0.68-1.53-1.53c0-0.84,0.68-1.53,1.53-1.53S332.7,289.27,332.7,290.12z M326.53,281.89c1.98,0,3.59,1.61,3.59,3.59s-1.61,3.59-3.59,3.59c-1.98,0-3.59-1.61-3.59-3.59S324.55,281.89,326.53,281.89z M297.2,328.36c-1.63,7.61-8.46,13.81-16.46,13.68c-7.99-0.13-14.69-6.41-16.1-14.1c-0.52-2.84,3.82-4.04,4.34-1.2 c2.48,13.59,21,13.95,23.88,0.42C293.47,324.32,297.8,325.53,297.2,328.36z" fill="#702106"/></g></svg>