<?xml version="1.0" encoding="UTF-8"?><svg xmlns="http://www.w3.org/2000/svg" xmlns:xlink="http://www.w3.org/1999/xlink" height="401.1" preserveAspectRatio="xMidYMid meet" version="1.0" viewBox="-0.0 12.0 425.2 401.1" width="425.2" zoomAndPan="magnify"><path d="M360.686,386.178l-7.901-11.555l0.069,1.253c0,0,1.536,13.869-2.72,24.626l1.41-0.065l9.632-13.784 C360.992,386.526,360.821,386.375,360.686,386.178z" fill="none"/><g id="change1_1"><path d="M120.133,276.75c-2.008,15.56-15.926,51.592-16.518,53.12c-0.093,0.241-0.234,0.461-0.415,0.644 c-0.062,0.063-0.997,1.019-2.571,2.626l-0.297,0.918L88.889,345.26c-9.574,21.404-22.489,51.944-25.807,67.914h52.553 c0.261-17.259-12.266-20.339-12.266-20.339l60.046-58.777l6.397-38.637c-6.39-0.381-12.764-1.069-19.088-2.123 C140.921,291.663,124.394,279.883,120.133,276.75z" fill="#A98BC0"/></g><g id="change1_2"><path d="M329.528,393.35c1.612-3.801,8.218-7.546,9.925-1.843l1.958,9.396l8.723-0.399 c4.256-10.757,2.72-24.626,2.72-24.626l-0.069-1.253l-33.371-48.804c-0.165-0.242-0.273-0.519-0.314-0.808l-10.771-75.996 c-0.041-0.132-0.12-0.374-0.228-0.694c-6.727,1.671-16.866,13.302-22.991,17.184c-0.613,0.388-1.242,0.749-1.859,1.131 l10.911,49.864l20.408,68.602l-10.717,15.337l-10.133,0.464l-1.958-9.396c-1.706-5.702-8.313-1.958-9.925,1.843 c-1.612,3.801,2.318,17.556,4.082,19.824h47.69C331.846,410.906,327.916,397.151,329.528,393.35z" fill="#A98BC0"/></g><g id="change1_3"><path d="M313.201,256.204l6.008,42.39C317.903,283.643,315.914,266.147,313.201,256.204z" fill="#A98BC0"/></g><g id="change2_1"><path d="M315.701,143.216c-6.852-6.067-13.146-12.664-18.111-20.33c-3.736-5.769-6.767-12.189-11.963-16.69 c-0.908,0.915-1.816,1.829-2.724,2.742c0.739-4.261,1.689-8.483,2.821-12.656c-0.011-0.007-0.024-0.009-0.035-0.017 c-0.509-0.335-0.881-0.822-1.074-1.375c-0.645,0.199-1.329,0.273-2.002,0.204c1.931-5.296,4.084-10.512,6.452-15.627 c-21.554,33.346-138.828,100.265-152.512,101.838c-1.935,0.222-4.011,0.355-6.196,0.435c12.095,1.868,23.689,7.805,32.187,16.586 c0.733,0.756,0.713,1.965-0.043,2.697c-0.371,0.358-0.849,0.536-1.327,0.536c-0.499,0-0.997-0.194-1.37-0.581 c-8.585-8.869-20.555-14.639-32.84-15.831c-4.339-0.421-8.835-0.307-13.184-0.191c-3.924,0.099-7.983,0.206-12.006-0.072 c-1.051-0.072-1.844-0.983-1.771-2.034c0.013-0.181,0.058-0.352,0.116-0.516c-25.01,1.85-51.793,10.776-62.486,53.395 c-10.533,41.984-0.941,85.879-0.941,85.879S5.441,386.984-0.001,413.174h52.553c0.212-14.041-8.038-18.697-11.122-19.945 c-0.446,0.446-0.894,0.895-1.317,1.318c-0.372,0.371-0.86,0.558-1.348,0.558c-0.489,0-0.977-0.186-1.349-0.559 c-0.744-0.745-0.744-1.953,0.001-2.698c18.271-18.257,59.024-59.882,62.781-63.719c1.49-3.883,14.334-37.641,16.158-51.91 c1.815-14.194-2.285-31.721-15.536-38.883c-0.926-0.5-1.272-1.658-0.771-2.584c0.5-0.928,1.657-1.275,2.585-0.771 c14.841,8.021,19.485,27.236,17.505,42.722c-0.002,0.016-0.005,0.032-0.007,0.048c4.261,3.134,20.788,14.914,30.592,16.549 c6.324,1.054,12.698,1.742,19.088,2.123c31.033,1.852,62.485-4.095,90.849-16.797c7.786-3.487,15.332-7.505,22.59-11.989 c0.617-0.381,1.246-0.743,1.859-1.131c6.126-3.882,16.264-15.513,22.991-17.184c-1.376-4.069-8.203-22.287-21.6-27.389 c-0.985-0.374-1.479-1.476-1.104-2.461c0.375-0.983,1.475-1.481,2.461-1.103c16.81,6.4,23.874,29.7,24.167,30.688 c0.026,0.089,0.046,0.181,0.06,0.273l1.116,7.875c2.713,9.942,4.702,27.438,6.008,42.39l3.606,25.439l41.02,59.992 c0.595,0.869,0.371,2.056-0.498,2.651c-0.329,0.225-0.704,0.333-1.075,0.333c-0.388,0-0.764-0.13-1.087-0.355l-9.632,13.784 l-1.41,0.065l-8.723,0.399l-1.958-9.396c-1.706-5.702-8.313-1.958-9.925,1.843c-1.612,3.801,2.318,17.556,4.082,19.824h1.519h47.69 l7.164-2.639c13.505-8.136,10.561-34.658,10.561-34.658l-25.673-80.758c0,0,18.136-83.117,18.136-86.602 c0,0-29.218-19.263-42.679-30.561C337.596,167.268,326.078,155.693,315.701,143.216z M87.526,188.724 c0.747-0.743,1.955-0.735,2.697,0.012l0.827,0.833c0.741,0.748,0.736,1.956-0.012,2.697c-0.371,0.369-0.857,0.553-1.342,0.553 c-0.491,0-0.982-0.189-1.355-0.565l-0.827-0.833C86.772,190.674,86.777,189.466,87.526,188.724z M47.557,232.96 c-0.353,0.615-0.995,0.959-1.657,0.959c-0.322,0-0.648-0.081-0.947-0.253c-0.744-0.426-1.351-1.051-1.757-1.807 c-0.498-0.928-0.15-2.084,0.779-2.582c0.928-0.499,2.084-0.15,2.583,0.777c0.066,0.125,0.171,0.232,0.293,0.303 C47.765,230.881,48.081,232.046,47.557,232.96z M56.725,215.127l-1.12-1.544c-0.619-0.852-0.43-2.045,0.423-2.664 c0.854-0.62,2.046-0.428,2.664,0.423l1.12,1.544c0.619,0.852,0.43,2.045-0.423,2.664c-0.338,0.246-0.731,0.364-1.119,0.364 C57.68,215.914,57.098,215.641,56.725,215.127z M60.879,230.263c-0.325,0.217-0.694,0.322-1.057,0.322 c-0.616,0-1.221-0.298-1.588-0.848l-0.418-0.628c-0.582-0.877-0.343-2.061,0.535-2.644c0.879-0.581,2.061-0.343,2.644,0.535 l0.412,0.618C61.991,228.495,61.755,229.678,60.879,230.263z M62.396,207.639c-0.123,0.017-0.246,0.026-0.369,0.026 c-0.712,0-1.416-0.293-1.939-0.82c-0.613-0.617-0.905-1.481-0.778-2.311c0.158-1.041,1.137-1.746,2.172-1.599 c0.658,0.101,1.186,0.525,1.445,1.088c0.562,0.263,0.985,0.794,1.081,1.454C64.16,206.519,63.439,207.487,62.396,207.639z M71.557,218.765c-0.371,0.529-0.962,0.812-1.563,0.812c-0.378,0-0.76-0.112-1.093-0.345c-0.785-0.551-1.428-1.295-1.86-2.151 c-0.474-0.941-0.096-2.087,0.844-2.562c0.94-0.476,2.087-0.096,2.562,0.843c0.15,0.297,0.373,0.555,0.644,0.745 C71.953,216.713,72.162,217.902,71.557,218.765z M74.167,203.48c-0.325,0.217-0.694,0.322-1.057,0.322 c-0.616,0-1.221-0.298-1.588-0.848l-0.831-1.247c-0.584-0.877-0.346-2.061,0.53-2.645c0.875-0.587,2.061-0.348,2.645,0.529 l0.829,1.244C75.279,201.712,75.043,202.895,74.167,203.48z M86.807,207.125c-0.349,0-0.703-0.096-1.02-0.297 c-0.865-0.548-1.565-1.368-1.972-2.31c-0.418-0.966,0.027-2.089,0.994-2.507c0.968-0.42,2.091,0.027,2.508,0.995 c0.104,0.241,0.291,0.461,0.513,0.601c0.89,0.564,1.154,1.742,0.589,2.633C88.057,206.812,87.439,207.125,86.807,207.125z M128.467,263.011c0.747-0.743,1.955-0.735,2.697,0.012l1.031,1.039c0.743,0.746,0.739,1.955-0.007,2.697 c-0.372,0.37-0.859,0.555-1.345,0.555c-0.49,0-0.98-0.188-1.352-0.563l-1.036-1.044 C127.713,264.961,127.718,263.753,128.467,263.011z M132.222,281.386c-0.307,0.184-0.646,0.272-0.98,0.272 c-0.648,0-1.279-0.329-1.637-0.925l-0.623-1.038c-0.542-0.904-0.25-2.075,0.654-2.618c0.903-0.54,2.075-0.248,2.617,0.653 l0.622,1.038C133.418,279.671,133.125,280.843,132.222,281.386z M141.914,274.267c-0.371,0.369-0.857,0.553-1.342,0.553 c-0.491,0-0.982-0.189-1.355-0.565l-0.827-0.834c-0.741-0.748-0.736-1.956,0.012-2.697c0.747-0.741,1.955-0.736,2.697,0.012 l0.827,0.835C142.668,272.317,142.663,273.525,141.914,274.267z M147.267,285.934c-0.366,0.334-0.826,0.499-1.285,0.499 c-0.517,0-1.033-0.209-1.409-0.621c-0.665-0.729-1.113-1.627-1.296-2.594c-0.195-1.036,0.486-2.033,1.521-2.228 c1.036-0.204,2.032,0.487,2.228,1.52c0.05,0.268,0.18,0.528,0.364,0.729C148.1,284.018,148.045,285.224,147.267,285.934z M154.468,272.844c-0.183,0.055-0.368,0.081-0.549,0.081c-0.821,0-1.578-0.533-1.826-1.36c-0.282-0.939-0.669-1.848-1.149-2.702 c-0.517-0.918-0.191-2.08,0.726-2.598c0.918-0.518,2.081-0.19,2.598,0.728c0.619,1.099,1.116,2.269,1.478,3.477 C156.049,271.478,155.477,272.541,154.468,272.844z M167.573,290.486c-0.325,0.217-0.694,0.322-1.057,0.322 c-0.616,0-1.221-0.298-1.588-0.848l-0.83-1.243c-0.586-0.875-0.351-2.06,0.525-2.646c0.874-0.585,2.06-0.35,2.646,0.525l0.833,1.246 C168.685,288.717,168.45,289.901,167.573,290.486z M281.469,108.97c1-0.332,2.079,0.207,2.412,1.206l1.084,3.253 c0.333,1-0.207,2.08-1.206,2.413c-0.2,0.067-0.403,0.098-0.603,0.098c-0.799,0-1.543-0.505-1.809-1.304l-1.084-3.253 C279.929,110.383,280.469,109.302,281.469,108.97z M276.467,118.955c0.756-0.733,1.965-0.715,2.697,0.042l0.409,0.421 c0.733,0.756,0.714,1.964-0.042,2.697c-0.371,0.359-0.849,0.538-1.327,0.538c-0.498,0-0.996-0.194-1.37-0.58l-0.409-0.421 C275.692,120.896,275.711,119.687,276.467,118.955z M245.132,130.125c-0.355,0.289-0.782,0.431-1.206,0.431 c-0.553,0-1.101-0.238-1.478-0.7c-0.694-0.848-1.044-1.962-0.959-3.056c0.081-1.051,1.001-1.858,2.05-1.753 c1.051,0.081,1.835,0.998,1.754,2.049c-0.009,0.117,0.034,0.256,0.108,0.346C246.068,128.256,245.947,129.458,245.132,130.125z M258.649,117.94c-0.574-0.5-0.815-1.319-0.544-2.079c0.353-0.993,1.445-1.515,2.436-1.157c0.442,0.156,1.376,0.642,1.757,1.996 c0.328,0.081,0.639,0.25,0.896,0.508c0.834,0.838,0.875,2.118,0.096,3.042c-0.512,0.606-1.25,0.926-1.981,0.926 c-0.483,0-0.963-0.139-1.373-0.428C258.787,119.936,258.688,118.608,258.649,117.94z M260.396,132.801l-0.379-1.053 c-0.355-0.992,0.16-2.084,1.152-2.44c0.991-0.354,2.084,0.16,2.439,1.151l0.376,1.051c0.357,0.991-0.157,2.084-1.149,2.44 c-0.213,0.077-0.432,0.113-0.646,0.113C261.409,134.062,260.675,133.579,260.396,132.801z M263.661,275.754 c-0.201,0.067-0.405,0.098-0.605,0.098c-0.798,0-1.542-0.504-1.809-1.303l-0.417-1.244c-0.335-0.998,0.204-2.08,1.202-2.414 c1.002-0.34,2.081,0.202,2.415,1.202l0.417,1.247C265.199,274.34,264.66,275.42,263.661,275.754z M266.652,250.221 c-0.37,0.358-0.848,0.535-1.324,0.535c-0.499,0-0.998-0.195-1.373-0.584l-0.815-0.846c-0.731-0.757-0.71-1.965,0.048-2.696 c0.757-0.731,1.966-0.71,2.697,0.048l0.815,0.846C267.432,248.282,267.41,249.489,266.652,250.221z M270.949,122.317 c-0.201,0.067-0.404,0.098-0.604,0.098c-0.798,0-1.542-0.504-1.809-1.304l-0.415-1.246c-0.333-0.998,0.206-2.079,1.205-2.413 c1-0.333,2.079,0.206,2.413,1.206l0.415,1.246C272.487,120.903,271.948,121.983,270.949,122.317z M273.186,113.306 c-0.813,0-1.555-0.522-1.813-1.319l-1.575-4.857c-0.325-1.002,0.224-2.077,1.226-2.403c1.003-0.324,2.078,0.225,2.403,1.226 l0.74,2.281c0.499,0.327,0.838,0.88,0.864,1.521l0.063,1.566c0.038,0.952-0.632,1.787-1.57,1.955 C273.41,113.296,273.297,113.306,273.186,113.306z M280.833,263.036c-0.222,0.083-0.449,0.123-0.672,0.123 c-0.771,0-1.497-0.471-1.785-1.234l-0.463-1.228c-0.372-0.986,0.125-2.086,1.111-2.457c0.985-0.369,2.086,0.127,2.457,1.111 l0.463,1.228C282.316,261.565,281.819,262.665,280.833,263.036z M283.071,245.307c-0.066,0.006-0.131,0.01-0.196,0.01 c-0.967,0-1.795-0.731-1.895-1.715c-0.018-0.173-0.101-0.351-0.222-0.477c-0.731-0.759-0.71-1.966,0.049-2.697 c0.759-0.729,1.966-0.709,2.697,0.05c0.716,0.741,1.167,1.715,1.271,2.739C284.883,244.265,284.12,245.2,283.071,245.307z M286.869,230.814c-0.354,0.289-0.782,0.431-1.206,0.431c-0.553,0-1.101-0.238-1.478-0.7c-0.548-0.669-0.825-1.514-0.782-2.378 c0.053-1.053,0.952-1.865,2-1.809c1.01,0.051,1.797,0.878,1.812,1.874C287.795,229.042,287.652,230.175,286.869,230.814z M294.639,245.228c0.959-0.435,2.091-0.019,2.528,0.941l0.93,2.03c0.438,0.957,0.017,2.089-0.94,2.528 c-0.258,0.117-0.527,0.173-0.793,0.173c-0.723,0-1.415-0.414-1.735-1.114l-0.93-2.03 C293.26,246.799,293.681,245.667,294.639,245.228z" fill="#C3B4D9"/></g><g id="change2_2"><path d="M392.809,208.031l0.199,0.486C393.008,208.512,392.936,208.336,392.809,208.031z" fill="#C3B4D9"/></g><g id="change2_3"><path d="M100.629,333.14c-3.059,3.124-8.606,8.784-15.3,15.605l3.56-3.485l11.444-11.201L100.629,333.14z" fill="#C3B4D9"/></g><g id="change3_1"><path d="M425.181,131.605c-0.01-0.302-0.025-0.604-0.045-0.905c-0.009-0.135-0.017-0.269-0.028-0.404 c-0.023-0.285-0.053-0.569-0.085-0.853c-0.016-0.144-0.031-0.288-0.05-0.432c-0.036-0.278-0.082-0.553-0.128-0.83 c-0.025-0.145-0.046-0.291-0.073-0.436c-0.054-0.287-0.119-0.572-0.184-0.857c-0.03-0.13-0.055-0.26-0.087-0.39 c-0.101-0.405-0.214-0.808-0.341-1.209c-0.002-0.006-0.003-0.012-0.005-0.017c-0.231-0.731-0.513-1.44-0.816-2.141 c-0.469-1.082-1.004-2.137-1.593-3.17c-0.485-0.85-0.999-1.688-1.525-2.52c-0.526-0.833-1.064-1.659-1.596-2.488 c-0.532-0.828-1.057-1.658-1.559-2.497c-1.505-2.516-2.792-5.111-3.38-7.975c-0.29-1.413-0.398-2.846-0.415-4.287 c-0.034-2.882,0.296-5.801,0.259-8.683c-0.019-1.441-0.129-2.872-0.423-4.285c-0.132-0.633-0.307-1.25-0.504-1.86 c-0.062-0.19-0.133-0.376-0.2-0.565c-0.151-0.422-0.314-0.839-0.493-1.251c-0.087-0.201-0.174-0.4-0.267-0.598 c-0.199-0.423-0.412-0.841-0.636-1.254c-0.083-0.153-0.16-0.31-0.246-0.462c-0.309-0.543-0.635-1.078-0.979-1.606 c-0.11-0.168-0.227-0.332-0.339-0.498c-0.25-0.369-0.503-0.735-0.766-1.097c-0.158-0.217-0.319-0.434-0.482-0.649 c-0.232-0.307-0.466-0.613-0.704-0.916c-0.174-0.221-0.346-0.443-0.523-0.662c-0.037-0.046-0.072-0.093-0.109-0.138 c-0.002,0-0.003,0-0.005-0.001c-5.512-0.802-11.537,0.138-17.116,1.177c-4.975,0.928-9.951,1.854-14.927,2.781 c-4.401,0.82-8.881,1.667-12.826,3.782c-7.3,3.915-12.013,12.934-9.536,20.838c2.426,7.742,10.663,12.348,18.691,13.52 c4.089,0.597,9.002,0.949,11.002,4.565c2.154,3.894-0.709,8.891,0.598,13.144c1.53,4.977,7.717,6.55,12.908,6.955 c10.25,0.801,21.707-0.34,29.401-6.673h0c0-0.002,0-0.005,0.001-0.008c0.038-0.422,0.068-0.843,0.092-1.265 c0.003-0.057,0.006-0.114,0.009-0.171c0.019-0.366,0.032-0.731,0.04-1.096c0.002-0.094,0.003-0.188,0.004-0.283 c0.004-0.327,0.002-0.654-0.004-0.98C425.188,131.841,425.185,131.723,425.181,131.605z M379.93,101.836 c-1.429,1.18-3.258,1.808-5.063,1.808c-0.845,0-1.684-0.138-2.475-0.421c-2.004-0.719-3.483-2.215-4.783-3.727 c-0.687-0.798-0.597-2.003,0.201-2.69c0.797-0.689,2.002-0.599,2.69,0.201c0.894,1.038,1.95,2.183,3.18,2.624 c1.219,0.435,2.759,0.139,3.825-0.739c1.07-0.882,1.724-2.353,1.707-3.841c-0.012-1.053,0.833-1.917,1.886-1.928 c0.007,0,0.014,0,0.022,0c1.043,0,1.895,0.841,1.907,1.886C383.055,97.663,381.899,100.215,379.93,101.836z M402.375,118.251 c-0.975,0.145-1.966-0.061-2.919-0.314c-1.832-0.486-3.618-1.144-5.326-1.964c-0.617-0.296-1.296-0.707-1.406-1.383 c-0.089-0.548,0.241-1.078,0.629-1.475c1.427-1.455,3.711-1.777,5.697-1.326c1.987,0.451,3.753,1.558,5.472,2.65l0.211,2.215 C404.349,117.563,403.35,118.106,402.375,118.251z M402.816,97.174c-0.663,0.212-1.349,0.312-2.033,0.312 c-2.871,0-5.725-1.761-6.819-4.465c-0.396-0.976,0.075-2.087,1.052-2.484c0.977-0.394,2.089,0.076,2.484,1.053 c0.615,1.517,2.595,2.44,4.158,1.951c1.561-0.498,2.639-2.403,2.262-3.997c-0.243-1.026,0.391-2.053,1.416-2.296 c1.022-0.243,2.053,0.392,2.295,1.417C408.463,92.179,406.259,96.077,402.816,97.174z M408.928,116.443 c-0.535,0.127-1.181-0.039-1.44-0.524c-0.126-0.237-0.145-0.514-0.142-0.782c0.033-2.672,1.989-4.881,3.837-6.811l3.068,1.239 c0.106,1.251-0.405,2.493-1.168,3.49c-0.763,0.997-1.757,1.788-2.741,2.567C409.913,115.966,409.463,116.317,408.928,116.443z" fill="#E9EBF7"/></g><g id="change2_4"><path d="M321.225,94.778c-2.124-0.977-4.892-0.446-6.376,1.36c-0.817,0.994-1.218,2.263-1.495,3.519 c-1.073,4.865-0.389,10.36,2.886,14.113c1.175,1.347,2.778,2.477,4.566,2.497c1.491,0.016,2.884-0.739,4.079-1.63l-0.131-14.228 C324.728,98.072,323.349,95.754,321.225,94.778z" fill="#C3B4D9"/></g><g id="change4_1"><path d="M413.27,100.195c-0.025-2.161,0.154-4.344,0.229-6.516C413.424,95.851,413.245,98.033,413.27,100.195z" fill="#D2CAE5"/></g><g id="change4_2"><path d="M395.648,142.434c-5.19-0.405-11.378-1.978-12.908-6.955c-1.308-4.253,1.556-9.25-0.598-13.144 c-2-3.615-6.914-3.967-11.002-4.565c-8.028-1.172-16.265-5.778-18.691-13.52c-2.477-7.905,2.235-16.924,9.536-20.838 c3.945-2.115,8.426-2.963,12.826-3.782c4.976-0.927,9.951-1.853,14.927-2.781c5.579-1.039,11.605-1.979,17.116-1.177 c-0.792-0.977-1.604-1.939-2.413-2.885c-10.386-12.137-21.552-23.964-33.043-35.06c0.128-2.594,0.256-5.188,0.383-7.782 c-1.483,1.095-2.966,2.189-4.45,3.283c0.261-3.515,0.523-7.03,0.784-10.545c-2.107,2.573-4.215,5.146-6.322,7.719 c-0.367-4.066-0.316-8.168,0.15-12.223c-3.266,2.533-5.988,5.762-7.933,9.409c-1.036-4.394-2.317-8.73-3.836-12.981 c-1.711,3.23-2.51,6.938-2.281,10.586c-3.232-4.136-6.114-8.545-8.603-13.166c-1.512,3.618-1.709,7.77-0.547,11.515 c-4.322-3.658-8.645-7.315-12.967-10.972c-0.416,3.093-0.139,6.278,0.805,9.253c-4.263-2.25-8.184-5.147-11.589-8.558 c-0.349,4.191-0.274,8.417,0.225,12.594c-3.646-2.289-6.932-5.15-9.7-8.447c0.157,5.246,0.314,10.492,0.472,15.738 c-2.416-2.979-4.833-5.959-7.249-8.938c0.065,5.607,0.552,11.21,1.458,16.744c-3.175-0.823-6.351-1.646-9.526-2.469 c0.501,4.027,2.261,7.888,4.972,10.907c-2.856,0.323-5.77,0.127-8.557-0.576c2.336,2.849,4.883,5.526,7.614,8 c-2.71,3.555-5.667,6.922-8.843,10.068c1.607,0.679,3.347,1.044,5.092,1.07c-2.303,4.311-4.607,8.623-6.91,12.934 c1.775,0.212,3.626-0.311,5.027-1.421c-2.368,5.116-4.521,10.331-6.452,15.627c0.672,0.069,1.356-0.005,2.002-0.204 c-0.055-0.156-0.101-0.316-0.125-0.481c-0.151-1.043,0.571-2.01,1.613-2.162c0.697-0.102,1.359,0.186,1.767,0.7 c0.635,0.17,1.163,0.666,1.346,1.346c0.274,1.017-0.328,2.064-1.345,2.337c-0.222,0.06-0.451,0.089-0.679,0.089 c-0.511,0-1.021-0.153-1.468-0.438c-1.132,4.173-2.082,8.396-2.821,12.656c0.908-0.914,1.816-1.828,2.724-2.742 c5.195,4.501,8.226,10.921,11.963,16.69c4.965,7.667,11.259,14.263,18.111,20.33c5.779,5.118,11.954,9.86,18.076,14.538 c5.451,4.165,8.683,6.463,14.589,9.952c4.047,2.391,8.695,3.557,13.322,4.387c5.622,1.01,11.326,1.563,17.037,1.663 c3.551,0.063,7.106-0.048,10.646-0.339c10.076-0.83,20.835-3.573,27.164-11.457c3.967-4.942,5.674-11.285,7.042-17.474 c0.632-2.86,1.207-5.796,1.471-8.725C417.355,142.095,405.898,143.235,395.648,142.434z M320.807,116.268 c-1.788-0.02-3.391-1.15-4.566-2.497c-3.275-3.754-3.959-9.248-2.886-14.113c0.277-1.256,0.678-2.525,1.495-3.519 c1.484-1.806,4.252-2.336,6.376-1.36c2.124,0.976,3.503,3.294,3.53,5.631l0.131,14.228 C323.691,115.529,322.298,116.284,320.807,116.268z" fill="#D2CAE5"/></g><g id="change5_1"><path d="M378.726,173.756c-5.711-0.1-11.415-0.653-17.037-1.663c-4.627-0.83-9.274-1.996-13.322-4.387 c-5.907-3.488-9.138-5.787-14.589-9.952c-6.123-4.678-12.297-9.42-18.076-14.538c10.377,12.477,21.895,24.052,34.629,34.74 c13.46,11.298,42.679,30.561,42.679,30.561l-0.199-0.486L378.726,173.756z" fill="#16213D"/></g><g id="change5_2"><path d="M372.392,103.223c0.791,0.283,1.63,0.421,2.475,0.421c1.805,0,3.635-0.628,5.063-1.808 c1.968-1.621,3.125-4.172,3.096-6.826c-0.012-1.046-0.864-1.886-1.907-1.886c-0.007,0-0.014,0-0.022,0 c-1.054,0.011-1.898,0.875-1.886,1.928c0.017,1.488-0.637,2.959-1.707,3.841c-1.066,0.878-2.605,1.173-3.825,0.739 c-1.229-0.441-2.285-1.586-3.18-2.624c-0.687-0.8-1.892-0.89-2.69-0.201c-0.798,0.687-0.888,1.891-0.201,2.69 C368.909,101.007,370.388,102.504,372.392,103.223z" fill="#16213D"/></g><g id="change5_3"><path d="M407.631,88.664c-0.242-1.024-1.273-1.66-2.295-1.417c-1.025,0.243-1.659,1.27-1.416,2.296 c0.377,1.594-0.701,3.499-2.262,3.997c-1.563,0.489-3.543-0.433-4.158-1.951c-0.395-0.977-1.507-1.447-2.484-1.053 c-0.977,0.396-1.447,1.508-1.052,2.484c1.095,2.705,3.948,4.465,6.819,4.465c0.684,0,1.37-0.099,2.033-0.312 C406.259,96.077,408.463,92.179,407.631,88.664z" fill="#16213D"/></g><g id="change5_4"><path d="M399.05,111.79c-1.987-0.451-4.271-0.129-5.697,1.326c-0.388,0.396-0.718,0.927-0.629,1.475 c0.11,0.676,0.789,1.087,1.406,1.383c1.708,0.82,3.494,1.478,5.326,1.964c0.953,0.253,1.944,0.459,2.919,0.314 c0.975-0.145,1.975-0.687,2.358-1.596l-0.211-2.215C402.802,113.347,401.036,112.24,399.05,111.79z" fill="#16213D"/></g><g id="change5_5"><path d="M407.347,115.137c-0.003,0.268,0.016,0.545,0.142,0.782c0.258,0.485,0.905,0.651,1.44,0.524 c0.535-0.127,0.984-0.477,1.415-0.82c0.983-0.78,1.977-1.571,2.741-2.567c0.764-0.997,1.275-2.239,1.168-3.49l-3.068-1.239 C409.335,110.257,407.379,112.466,407.347,115.137z" fill="#16213D"/></g><g id="change5_6"><path d="M322.815,324.034l-3.606-25.439l-6.008-42.39l-1.116-7.875c-0.014-0.092-0.034-0.184-0.06-0.273 c-0.292-0.988-7.357-24.288-24.167-30.688c-0.987-0.379-2.086,0.119-2.461,1.103c-0.375,0.985,0.119,2.087,1.104,2.461 c13.398,5.102,20.224,23.32,21.6,27.389c0.108,0.319,0.186,0.562,0.228,0.694l10.771,75.996c0.042,0.289,0.149,0.566,0.314,0.808 l33.371,48.804l7.901,11.555c0.134,0.196,0.305,0.347,0.49,0.476c0.323,0.225,0.699,0.355,1.087,0.355 c0.371,0,0.746-0.108,1.075-0.333c0.869-0.595,1.093-1.782,0.498-2.651L322.815,324.034z" fill="#16213D"/></g><g id="change5_7"><path d="M103.2,330.514c0.181-0.184,0.322-0.404,0.415-0.644c0.592-1.529,14.51-37.561,16.518-53.12 c0.002-0.016,0.005-0.032,0.007-0.048c1.98-15.486-2.665-34.702-17.505-42.722c-0.928-0.504-2.085-0.156-2.585,0.771 c-0.5,0.926-0.155,2.084,0.771,2.584c13.25,7.161,17.351,24.689,15.536,38.883c-1.824,14.269-14.669,48.027-16.158,51.91 c-3.756,3.837-44.51,45.463-62.781,63.719c-0.746,0.745-0.746,1.953-0.001,2.698c0.373,0.373,0.861,0.559,1.349,0.559 c0.488,0,0.976-0.186,1.348-0.558c0.422-0.422,0.871-0.872,1.317-1.318c11.369-11.385,30.045-30.37,43.899-44.484 c6.694-6.82,12.241-12.481,15.3-15.605C102.203,331.533,103.139,330.577,103.2,330.514z" fill="#16213D"/></g><g id="change5_8"><path d="M161.175,201.559c0.478,0,0.956-0.179,1.327-0.536c0.757-0.733,0.776-1.941,0.043-2.697 c-8.498-8.781-20.092-14.718-32.187-16.586c-1.005-0.156-2.013-0.292-3.024-0.391c-4.573-0.445-9.189-0.324-13.652-0.207 c-3.835,0.099-7.802,0.201-11.644-0.063c-0.875-0.082-1.637,0.468-1.918,1.255c-0.059,0.164-0.104,0.335-0.116,0.516 c-0.073,1.051,0.72,1.962,1.771,2.034c4.023,0.278,8.082,0.171,12.006,0.072c4.349-0.115,8.845-0.23,13.184,0.191 c12.285,1.192,24.254,6.963,32.84,15.831C160.178,201.365,160.676,201.559,161.175,201.559z" fill="#16213D"/></g><g id="change5_9"><path d="M274.166,108.234l-0.74-2.281c-0.325-1.001-1.4-1.55-2.403-1.226c-1.002,0.325-1.551,1.401-1.226,2.403 l1.575,4.857c0.258,0.797,1,1.319,1.813,1.319c0.111,0,0.224-0.01,0.337-0.03c0.938-0.168,1.608-1.002,1.57-1.955l-0.063-1.566 C275.004,109.115,274.665,108.561,274.166,108.234z" fill="#16213D"/></g><g id="change5_10"><path d="M283.881,110.175c-0.333-0.998-1.412-1.537-2.412-1.206c-1,0.333-1.54,1.413-1.206,2.413l1.084,3.253 c0.266,0.798,1.01,1.304,1.809,1.304c0.2,0,0.403-0.031,0.603-0.098c1-0.333,1.54-1.413,1.206-2.413L283.881,110.175z" fill="#16213D"/></g><g id="change5_11"><path d="M259.935,120.748c0.41,0.289,0.89,0.428,1.373,0.428c0.731,0,1.47-0.32,1.981-0.926 c0.779-0.924,0.739-2.204-0.096-3.042c-0.256-0.258-0.568-0.427-0.896-0.508c-0.381-1.354-1.315-1.839-1.757-1.996 c-0.991-0.358-2.083,0.164-2.436,1.157c-0.271,0.76-0.03,1.578,0.544,2.079C258.688,118.608,258.787,119.936,259.935,120.748z" fill="#16213D"/></g><g id="change5_12"><path d="M268.12,119.866l0.415,1.246c0.267,0.8,1.011,1.304,1.809,1.304c0.2,0,0.404-0.031,0.604-0.098 c0.999-0.334,1.539-1.414,1.205-2.413l-0.415-1.246c-0.334-1-1.413-1.539-2.413-1.206 C268.326,117.787,267.786,118.868,268.12,119.866z" fill="#16213D"/></g><g id="change5_13"><path d="M279.531,122.115c0.756-0.733,0.776-1.941,0.042-2.697l-0.409-0.421c-0.733-0.757-1.941-0.775-2.697-0.042 c-0.756,0.733-0.775,1.941-0.042,2.697l0.409,0.421c0.374,0.386,0.872,0.58,1.37,0.58 C278.681,122.653,279.16,122.474,279.531,122.115z" fill="#16213D"/></g><g id="change5_14"><path d="M285.725,96.282c0.447,0.285,0.957,0.438,1.468,0.438c0.228,0,0.456-0.03,0.679-0.089 c1.017-0.273,1.62-1.32,1.345-2.337c-0.183-0.68-0.712-1.176-1.346-1.346c-0.409-0.514-1.07-0.802-1.767-0.7 c-1.042,0.151-1.765,1.119-1.613,2.162c0.024,0.165,0.07,0.325,0.125,0.481c0.193,0.553,0.565,1.04,1.074,1.375 C285.701,96.272,285.714,96.274,285.725,96.282z" fill="#16213D"/></g><g id="change5_15"><path d="M245.132,130.125c0.815-0.667,0.936-1.869,0.269-2.683c-0.074-0.091-0.117-0.23-0.108-0.346 c0.081-1.051-0.703-1.968-1.754-2.049c-1.048-0.104-1.968,0.703-2.05,1.753c-0.085,1.094,0.264,2.208,0.959,3.056 c0.377,0.462,0.925,0.7,1.478,0.7C244.35,130.555,244.777,130.414,245.132,130.125z" fill="#16213D"/></g><g id="change5_16"><path d="M260.396,132.801c0.279,0.779,1.013,1.262,1.794,1.262c0.214,0,0.433-0.036,0.646-0.113 c0.992-0.356,1.506-1.449,1.149-2.44l-0.376-1.051c-0.356-0.991-1.449-1.505-2.439-1.151c-0.992,0.356-1.507,1.448-1.152,2.44 L260.396,132.801z" fill="#16213D"/></g><g id="change5_17"><path d="M59.389,215.55c0.852-0.618,1.042-1.812,0.423-2.664l-1.12-1.544c-0.618-0.852-1.811-1.043-2.664-0.423 c-0.852,0.618-1.042,1.812-0.423,2.664l1.12,1.544c0.373,0.514,0.955,0.787,1.545,0.787 C58.659,215.914,59.051,215.796,59.389,215.55z" fill="#16213D"/></g><g id="change5_18"><path d="M74.167,203.48c0.876-0.585,1.112-1.768,0.527-2.645l-0.829-1.244c-0.584-0.877-1.77-1.116-2.645-0.529 c-0.877,0.584-1.114,1.768-0.53,2.645l0.831,1.247c0.368,0.55,0.972,0.848,1.588,0.848C73.473,203.802,73.841,203.698,74.167,203.48 z" fill="#16213D"/></g><g id="change5_19"><path d="M62.396,207.639c1.042-0.152,1.764-1.12,1.612-2.162c-0.096-0.661-0.519-1.191-1.081-1.454 c-0.26-0.563-0.787-0.987-1.445-1.088c-1.035-0.147-2.014,0.559-2.172,1.599c-0.127,0.83,0.165,1.694,0.778,2.311 c0.523,0.527,1.228,0.82,1.939,0.82C62.15,207.665,62.274,207.656,62.396,207.639z" fill="#16213D"/></g><g id="change5_20"><path d="M91.038,192.267c0.749-0.741,0.754-1.95,0.012-2.697l-0.827-0.833c-0.742-0.748-1.95-0.755-2.697-0.012 c-0.749,0.741-0.754,1.95-0.012,2.697l0.827,0.833c0.373,0.376,0.864,0.565,1.355,0.565 C90.181,192.82,90.666,192.636,91.038,192.267z" fill="#16213D"/></g><g id="change5_21"><path d="M87.831,203.607c-0.222-0.14-0.409-0.36-0.513-0.601c-0.417-0.967-1.54-1.414-2.508-0.995 c-0.967,0.418-1.412,1.541-0.994,2.507c0.407,0.941,1.107,1.762,1.972,2.31c0.317,0.201,0.671,0.297,1.02,0.297 c0.631,0,1.249-0.313,1.612-0.885C88.984,205.349,88.72,204.171,87.831,203.607z" fill="#16213D"/></g><g id="change5_22"><path d="M71.091,216.108c-0.272-0.19-0.495-0.448-0.644-0.745c-0.474-0.939-1.622-1.319-2.562-0.843 c-0.941,0.474-1.319,1.621-0.844,2.562c0.432,0.856,1.075,1.599,1.86,2.151c0.333,0.233,0.715,0.345,1.093,0.345 c0.601,0,1.193-0.283,1.563-0.812C72.162,217.902,71.953,216.713,71.091,216.108z" fill="#16213D"/></g><g id="change5_23"><path d="M46.558,230.054c-0.499-0.928-1.655-1.277-2.583-0.777c-0.928,0.498-1.277,1.654-0.779,2.582 c0.406,0.756,1.013,1.381,1.757,1.807c0.299,0.173,0.625,0.253,0.947,0.253c0.661,0,1.304-0.344,1.657-0.959 c0.524-0.914,0.208-2.079-0.706-2.603C46.729,230.287,46.625,230.18,46.558,230.054z" fill="#16213D"/></g><g id="change5_24"><path d="M58.233,229.736c0.368,0.55,0.972,0.848,1.588,0.848c0.364,0,0.732-0.104,1.057-0.322 c0.876-0.585,1.112-1.768,0.527-2.645L60.994,227c-0.583-0.878-1.765-1.116-2.644-0.535c-0.877,0.582-1.117,1.767-0.535,2.644 L58.233,229.736z" fill="#16213D"/></g><g id="change5_25"><path d="M130.842,267.315c0.486,0,0.973-0.185,1.345-0.555c0.747-0.743,0.751-1.951,0.007-2.697l-1.031-1.039 c-0.742-0.748-1.95-0.755-2.697-0.012c-0.749,0.741-0.754,1.95-0.012,2.697l1.036,1.044 C129.862,267.128,130.352,267.315,130.842,267.315z" fill="#16213D"/></g><g id="change5_26"><path d="M151.67,266.265c-0.918,0.518-1.243,1.68-0.726,2.598c0.481,0.854,0.867,1.763,1.149,2.702 c0.248,0.827,1.005,1.36,1.826,1.36c0.181,0,0.366-0.026,0.549-0.081c1.009-0.303,1.581-1.366,1.278-2.374 c-0.362-1.208-0.859-2.378-1.478-3.477C153.751,266.075,152.588,265.747,151.67,266.265z" fill="#16213D"/></g><g id="change5_27"><path d="M144.798,280.991c-1.035,0.195-1.716,1.192-1.521,2.228c0.183,0.967,0.631,1.865,1.296,2.594 c0.376,0.412,0.892,0.621,1.409,0.621c0.459,0,0.92-0.165,1.285-0.499c0.778-0.71,0.833-1.916,0.123-2.695 c-0.184-0.201-0.314-0.461-0.364-0.729C146.83,281.478,145.834,280.787,144.798,280.991z" fill="#16213D"/></g><g id="change5_28"><path d="M129.605,280.733c0.358,0.596,0.989,0.925,1.637,0.925c0.334,0,0.673-0.088,0.98-0.272 c0.903-0.543,1.195-1.715,0.653-2.618l-0.622-1.038c-0.542-0.902-1.714-1.193-2.617-0.653c-0.903,0.543-1.196,1.714-0.654,2.618 L129.605,280.733z" fill="#16213D"/></g><g id="change5_29"><path d="M140.572,274.819c0.486,0,0.971-0.184,1.342-0.553c0.749-0.741,0.754-1.95,0.012-2.697l-0.827-0.835 c-0.742-0.749-1.95-0.754-2.697-0.012c-0.749,0.741-0.754,1.95-0.012,2.697l0.827,0.834 C139.59,274.631,140.08,274.819,140.572,274.819z" fill="#16213D"/></g><g id="change5_30"><path d="M164.928,289.959c0.368,0.55,0.972,0.848,1.588,0.848c0.364,0,0.732-0.104,1.057-0.322 c0.876-0.585,1.112-1.768,0.527-2.645l-0.833-1.246c-0.586-0.875-1.772-1.11-2.646-0.525c-0.875,0.586-1.111,1.771-0.525,2.646 L164.928,289.959z" fill="#16213D"/></g><g id="change5_31"><path d="M285.404,226.358c-1.048-0.056-1.947,0.756-2,1.809c-0.043,0.864,0.234,1.709,0.782,2.378 c0.377,0.462,0.925,0.7,1.478,0.7c0.424,0,0.852-0.142,1.206-0.431c0.783-0.64,0.926-1.772,0.347-2.583 C287.2,227.236,286.414,226.408,285.404,226.358z" fill="#16213D"/></g><g id="change5_32"><path d="M297.167,246.169c-0.438-0.96-1.57-1.376-2.528-0.941c-0.957,0.44-1.378,1.571-0.94,2.528l0.93,2.03 c0.32,0.7,1.012,1.114,1.735,1.114c0.266,0,0.535-0.056,0.793-0.173c0.957-0.44,1.378-1.571,0.94-2.528L297.167,246.169z" fill="#16213D"/></g><g id="change5_33"><path d="M281.481,259.35c-0.372-0.985-1.472-1.48-2.457-1.111c-0.986,0.371-1.483,1.472-1.111,2.457l0.463,1.228 c0.288,0.764,1.014,1.234,1.785,1.234c0.224,0,0.451-0.04,0.672-0.123c0.986-0.371,1.483-1.471,1.111-2.457L281.481,259.35z" fill="#16213D"/></g><g id="change5_34"><path d="M263.14,249.327l0.815,0.846c0.374,0.389,0.874,0.584,1.373,0.584c0.477,0,0.954-0.178,1.324-0.535 c0.758-0.731,0.78-1.938,0.048-2.696l-0.815-0.846c-0.731-0.759-1.94-0.78-2.697-0.048 C262.43,247.362,262.408,248.569,263.14,249.327z" fill="#16213D"/></g><g id="change5_35"><path d="M283.505,240.478c-0.73-0.759-1.938-0.779-2.697-0.05c-0.759,0.731-0.78,1.938-0.049,2.697 c0.121,0.125,0.204,0.304,0.222,0.477c0.1,0.983,0.928,1.715,1.895,1.715c0.065,0,0.13-0.004,0.196-0.01 c1.048-0.107,1.811-1.042,1.704-2.09C284.672,242.193,284.221,241.219,283.505,240.478z" fill="#16213D"/></g><g id="change5_36"><path d="M261.248,274.55c0.266,0.798,1.01,1.303,1.809,1.303c0.2,0,0.404-0.031,0.605-0.098 c0.999-0.334,1.538-1.414,1.204-2.414l-0.417-1.247c-0.335-1-1.413-1.542-2.415-1.202c-0.998,0.334-1.537,1.416-1.202,2.414 L261.248,274.55z" fill="#16213D"/></g></svg>