<?xml version="1.0" encoding="UTF-8"?><svg xmlns="http://www.w3.org/2000/svg" xmlns:xlink="http://www.w3.org/1999/xlink" height="443.6" preserveAspectRatio="xMidYMid meet" version="1.0" viewBox="-10.6 71.7 504.7 443.6" width="504.7" zoomAndPan="magnify"><g id="change1_1"><path d="M458.772,159.891c-3.728-7.456-6.524-13.98-13.048-18.64c-5.592-4.66-16.776-18.019-18.64-15.844 c-1.864,2.175,0.621,9.631-11.184,0c-5.592-4.66-11.184-11.184-17.708-15.844c-11.184-7.456-35.727-15.533-38.212-13.98 c-2.485,1.553,3.417,7.456,1.864,10.252c-1.553,2.796-8.388-4.66-13.048-6.524c-4.66-1.864-9.32-2.796-14.912-4.66 c-4.66-0.932-9.32-0.932-14.912-0.932c-4.66,0-14.291-3.417-15.844,0c-1.553,3.417,4.66,3.728,4.66,6.524 c-3.728,1.864-13.98-1.864-18.64-2.796c-6.524-0.932-13.048-2.796-19.572-3.728c-11.184-0.932-33.552,3.417-34.484,6.524 c-0.932,3.107,6.835,5.592,8.699,7.456c-7.456,2.796-24.543,2.796-31.999,3.728c-10.252,1.864-19.572,1.864-29.824,3.728 c-8.388,1.864-15.844,3.728-23.3,6.524c-6.524,1.864-23.611,5.592-23.3,9.32c0.311,3.728,9.631,7.145-18.64,10.252 c-14.852,1.633-37.901,16.155-37.28,18.64c0.621,2.485,10.194,2.257,9.92,4.569c-0.164,1.387-1.998,3.003-6.192,4.751 c-8.388,2.796-16.776,6.524-24.232,10.252c-8.388,4.66-16.776,8.388-23.3,14.912c-4.66,4.66-17.087,18.64-13.98,20.504 s16.776-9.32,13.048,1.864c-2.796,7.456-7.456,13.98-11.184,20.504c-6.524,13.98-22.989,36.969-22.368,40.076 s6.524-4.039,9.631-2.175c3.107,1.864-21.436,40.076-18.019,42.251c3.417,2.175,6.835-4.349,10.252-1.864 c3.417,2.485-10.563,17.087-8.388,21.436s10.133-3.918,8.794,0.371c-1.338,4.289-4.134,12.677-5.066,14.541 c-0.932,7.456-6.213,21.747-2.796,24.232c3.417,2.485,9.382-2.131,11.246,9.053c0.932,7.456,6.774,31.023,9.879,32.266 c3.107,1.243,5.903-9.32,8.699-9.32s-0.932,15.533,1.864,22.057c2.796,4.66,5.592,14.291,8.388,15.844 c2.796,1.553,5.251-8.336,6.524-6.835c1.273,1.5,6.524,12.425,10.252,17.085c2.268,2.835,6.666,7.812,10.133,8.949 c4.571,1.497,6.783-5.419,11.311-4.285c11.296,5.65,23.992,13.001,36.935,13.4c15.02,0.464,28.637-8.86,43.165-11.454 c7.189-1.284,15.892-0.035,22.489-3.715c12.727-7.1,24.692-23.28,35.304-33.39c10.079-9.603,20.105-19.263,30.105-28.95 c20.036-19.406,40.132-38.745,60.362-57.946c38.49-36.533,76.732-73.32,115.206-109.868c7.689-7.303,15.085-15.415,23.268-22.176 c0.015-0.013,16.207-13.389,16.207-13.389c-0.091-0.611-0.196-1.199-0.293-1.797l4.954-4.725 C463.432,178.531,463.432,167.347,458.772,159.891z" fill="#D19262"/></g><g id="change2_1"><path d="M489.416,193.443c-3.784,6.934-11.408,12.563-19.404,14.073c10.55,20.187,14.204,45.202,10.345,67.943 c-0.839,6.524-4.213,12.116-5.89,18.64c-1.696,7.456-14.763,155.961-167.779,196.26c-55.491,14.632-115.698,7.251-172.196-6.133 c-9.506-2.255-32.359-9.022-43.729-20.634c5.182-8.984,21.212-12.228,29.936-13.887c1.007-0.186,0.783-1.491,0-1.789 c-2.05-0.783-4.119-1.361-6.3-1.584c-1.268-0.13-6.729-0.298-6.729-0.28c0-2.274,2.516-4.026,4.194-5.107 c5.424-3.504,12.153-5.201,18.286-6.953c6.934-1.994,13.943-3.709,20.821-5.853c4.436-1.379,9.469-2.871,13.011-6.002 c0.82-0.727-0.224-1.976-1.118-1.473c-6.375,3.616-15.248,5.648-22.256,2.665c15.658-7.568,33.366-10.904,46.991-22.331 c0.727-0.596-0.056-1.808-0.913-1.547c-5.778,1.733-15.005,5.163-20.28,0.783c22.238-5.312,39.927-18.733,55.361-35.267 c0.671-0.708,0-1.734-0.895-1.566c-2.852,0.559-5.573,1.417-8.295,2.349c9.152-15.546,26.171-24.996,33.049-42.201 c0.335-0.839-0.727-1.361-1.379-1.063c-2.572,1.268-5.126,2.311-7.81,3.038c8.537-11.482,17.317-22.871,23.393-35.919 c0.261-0.578-0.037-1.491-0.82-1.417c-2.05,0.205-3.933-0.466-5.872-0.932c4.716-6.804,11.538-11.687,16.403-18.36 c5.946-8.127,6.71-17.559,7.568-27.289c0.503-5.778,0.913-11.706,2.815-17.223c1.734-5.089,4.38-9.879,7.083-14.502 c0.913-1.547,1.883-3.02,2.833-4.53c-5.424-2.591-10.159-6.915-12.88-11.911c-3.728-6.524-4.66-16.776,0.932-21.436 c5.592-4.343,18.994,2.871,29.265,9.003c11.613,9.189,28.351,15.49,30.141,14.912c2.647-0.839-2.405-6.915-3.635-8.779 c6.207-0.615,15.359,2.162,20.504,0.708c2.181-0.615-9.413-3.728-9.413-7.456s7.456-2.479,10.569-2.479 c3.113,0,9.32,2.479,11.184,1.23c2.479-1.864,4.343-9.32,4.343-12.414c6.841-1.249,13.048,3.728,18.025,7.456 c4.343,3.094,4.977,0.615,8.071-3.113c2.498-2.479,4.362-6.207,6.841-1.249c2.479,5.592-0.615,16.161,8.705,8.09 c3.094-2.498,5.592-4.362,9.32-0.634c2.479,2.498,1.864,6.841,3.728,9.954c3.094,4.343,3.728,0,7.456-1.864 c4.343-2.498,4.343,0.615,6.207,3.728c4.977,8.686,10.252,0.615,13.048-3.812c2.796-4.427,29.693-18.37,36.236-13.281 C494.076,176.667,493.144,186.919,489.416,193.443z" fill="#E7D6C6"/></g><g id="change3_1"><path d="M488.484,172.007c-6.543-5.089-33.44,8.854-36.236,13.281c-0.125,0.198-0.259,0.408-0.393,0.617 c4.632-1.029,10.058-3.599,14.222-1.933c2.071,0.828,7.003,3.95,5.171,6.791c-0.477,0.742-1.305,1.446-1.674,2.216 c-1.553,3.242,4.589,3.204,5.898,3.353c2.149,0.244,4.407,1.709,6.108,2.956c0.664,0.487,1.245,1.005,1.793,1.538 c2.462-2.151,4.554-4.66,6.041-7.383C493.144,186.919,494.076,176.667,488.484,172.007z" fill="#E0AE8C"/></g><g id="change3_2"><path d="M286.519,203.479c0.121-3.726,1.519-7.143,5.797-8.051c2.572-0.546,5.173-0.563,7.792-0.503 c2.766,0.063,2.936,0.686,3.191-2.078c0.175-1.909,0.393-3.706,0.138-5.614c-0.056-0.418,0.328-0.781,0.684-0.898 c3.126-1.042,6.244-1.131,9.37-0.87c-2.196-1.387-4.345-2.872-6.339-4.451c-10.271-6.133-23.673-13.346-29.265-9.003 c-5.592,4.66-4.66,14.912-0.932,21.436C279.104,197.385,282.516,200.893,286.519,203.479z" fill="#E0AE8C"/></g><g id="change4_1"><path d="M431.423,242.815c0.007-0.362,0.013-0.723,0.02-1.085c0.17-1.476,0.572-2.776,1.21-3.9 c1.135-1.989,2.697-2.789,4.397-2.736c-0.117-0.015-0.235-0.03-0.352-0.045c0.147,0.009,0.296,0.034,0.442,0.045 c0.166,0.007,0.332,0.028,0.5,0.052c0.464,0.045,0.926,0.078,1.404,0.144c1.32,0.179,2.878,1.644,3.877,2.887 c2.022,2.518,3.007,6.606,2.595,10.299c-0.518,4.66-3.169,8.138-6.364,8.368c-2.533,0.181-5.072-1.696-6.585-4.865 c-0.77-1.625-1.227-3.406-1.368-5.34C431.099,245.247,431.192,243.993,431.423,242.815z" fill="#9C4639"/></g><g id="change4_2"><path d="M339.988,242.816c0.007-0.362,0.013-0.723,0.02-1.085c0.17-1.476,0.572-2.776,1.21-3.9 c1.135-1.989,2.697-2.789,4.397-2.736c-0.117-0.015-0.235-0.03-0.352-0.045c0.147,0.009,0.296,0.034,0.442,0.045 c0.166,0.007,0.332,0.028,0.5,0.052c0.464,0.045,0.926,0.078,1.404,0.144c1.32,0.179,2.878,1.644,3.877,2.887 c2.022,2.518,3.007,6.606,2.595,10.299c-0.518,4.66-3.169,8.138-6.364,8.368c-2.533,0.181-5.072-1.696-6.585-4.865 c-0.77-1.625-1.227-3.406-1.368-5.34C339.662,245.247,339.755,243.994,339.988,242.816z" fill="#9C4639"/></g><g id="change3_3"><path d="M313.068,482.363c2.179,8.077,10.545,18.554,13.341,25.078c2.796,6.524,27.667,7.853,37.608,5.366 c6.213-1.864,9.32-5.592,5.592-12.427c-2.485-5.592-7.456-6.835-13.669-6.835c-6.835,0-8.077-1.243-11.805-7.456 c-2.485-3.728-4.039-6.461-7.456-11.743C333.263,469.063,310.889,474.286,313.068,482.363z" fill="#E0AE8C"/></g><g id="change3_4"><path d="M354.171,463.102c-1.338,6.524,12.332,19.261,8.604,26.096c-1.864,2.485-3.107,3.107-1.243,5.592 c1.864,2.485,5.592,3.107,8.699,3.728c6.213,1.243,16.776,1.243,21.125-4.349c3.728-4.971,3.728-9.941-0.621-13.048 c-5.592-4.349-6.213-7.456-6.213-14.912s2.796-16.155-4.66-19.883C372.407,442.598,355.51,456.578,354.171,463.102z" fill="#E0AE8C"/></g><g id="change3_5"><path d="M125.464,482.646c-1.901,8.105-3.618,19.125-0.037,22.705c2.863,3.581,15.275,0.216,19.572,0.932 c6.444,2.147,14.276,4.306,21.436,4.306c5.012,0,10.58,0.695,12.012-6.464c1.432-12.172-18.616-9.307-23.628-12.888 c0-3.581,4.5-6.08,5.728-10.74C161.775,475.839,127.366,474.543,125.464,482.646z" fill="#E0AE8C"/></g><g id="change2_2"><path d="M373.663,122.443c9.238,2.339,17.139,5.814,23.397,13.104c0.328,0.382,1.131,0.211,1.204-0.319 c1.463-10.429-17.11-14.241-24.307-14.975C372.69,120.124,372.468,122.139,373.663,122.443L373.663,122.443z" fill="#E7D6C6"/></g><g id="change2_3"><path d="M324.584,108.131c4.259,1.622,8.244,3.967,12.228,6.162c3.139,1.73,6.149,3.935,9.808,4.101 c1.314,0.06,1.665-1.491,0.973-2.349c-2.459-3.048-6.613-4.485-10.075-6.144c-3.963-1.899-8.026-3.137-12.355-3.877 C323.773,105.786,323.263,107.628,324.584,108.131L324.584,108.131z" fill="#E7D6C6"/></g><g id="change2_4"><path d="M294.428,129.961c10.569,1.227,21.007,2.703,29.298,9.952c0.52,0.455,1.497,0.032,1.241-0.723 c-3.991-11.766-20.472-11.35-30.54-11.501C292.93,127.666,293.014,129.797,294.428,129.961L294.428,129.961z" fill="#E7D6C6"/></g><g id="change2_5"><path d="M261.145,111.47c6.384,1.323,13.687,3.474,20.237,2.673c0.757-0.093,1.267-1.159,0.431-1.588 c-5.898-3.022-13.523-2.712-19.958-3.655C260.196,108.657,259.432,111.114,261.145,111.47L261.145,111.47z" fill="#E7D6C6"/></g><g id="change2_6"><path d="M195.323,149.823c10.407-1.512,21.488-2.444,31.619-5.223c0.833-0.229,0.88-1.525,0-1.728 c-10.513-2.429-22.094,2.242-32.234,4.718C193.221,147.954,193.89,150.032,195.323,149.823L195.323,149.823z" fill="#E7D6C6"/></g><g id="change2_7"><path d="M153.637,142.157c16.174-5.342,32.312-6.956,49.032-9.51c0.906-0.138,0.552-1.363-0.198-1.46 c-16.845-2.157-33.912,2.742-49.334,9.158C152.054,140.796,152.457,142.546,153.637,142.157L153.637,142.157z" fill="#E7D6C6"/></g><g id="change2_8"><path d="M204.956,177.312c8.028-0.281,16.552,0.246,24.476-1.003c0.759-0.119,0.921-1.366,0.22-1.678 c-7.618-3.372-16.774-0.876-24.694,0.147C203.389,174.982,203.281,177.371,204.956,177.312L204.956,177.312z" fill="#E7D6C6"/></g><g id="change2_9"><path d="M249.072,153.637c8.039-0.3,16.325-0.949,23.781,2.679c0.757,0.369,1.743-0.414,1.225-1.225 c-5.206-8.175-17.453-4.913-25.324-3.814C247.4,151.466,247.739,153.686,249.072,153.637L249.072,153.637z" fill="#E7D6C6"/></g><g id="change3_6"><path d="M397.342,245.014c-11.378,0-20.48,4.349-29.013,13.048c-4.552,5.592-7.396,11.805-13.085,15.533 c-5.689,3.728-13.654,6.835-14.222,14.291c-0.569,9.32,1.707,12.427,10.241,14.912c6.257,2.485,13.085,3.728,19.343,4.971 c11.378,1.864,22.185,2.485,34.132,1.864c10.683-0.555,50.121-13.607,33.565-31.688c-5.178-5.655-13.05-6.973-18.834-11.639 c-6.078-4.902-5.284-12.772-10.15-18.208c-3.519-3.926-9.754-2.606-14.265-2.464C395.767,245.443,396.611,245.014,397.342,245.014z" fill="#E0AE8C"/></g><g id="change2_10"><path d="M91.584,193.4c5.186-1.775,10.489-3.072,15.917-3.829c5.421-0.757,11.109-0.393,16.409-1.7 c1.249-0.308,1.26-2.227,0-2.528c-11.013-2.63-23.49,0.727-33.285,5.78C89.376,191.769,90.246,193.859,91.584,193.4L91.584,193.4z" fill="#E7D6C6"/></g><g id="change2_11"><path d="M118.871,171.464c4.462-1.635,9.238-2.049,13.956-2.235c4.433-0.177,8.958,0.964,13.343,0.224 c0.843-0.142,0.774-1.24,0.214-1.637c-7.089-5.016-21.436-2.649-28.32,1.732C117.099,170.161,117.71,171.889,118.871,171.464 L118.871,171.464z" fill="#E7D6C6"/></g><g id="change2_12"><path d="M116.758,240.535c13.618-9.253,28.191-13.009,43.72-17.583c1.051-0.309,0.829-1.857-0.255-1.888 c-16.567-0.475-32.329,7.34-45.027,17.447C114.049,239.422,115.553,241.351,116.758,240.535L116.758,240.535z" fill="#E7D6C6"/></g><g id="change2_13"><path d="M55.941,237.662c5.827-5.262,12.627-8.888,19.52-12.53c0.764-0.405,0.209-1.461-0.555-1.318 c-8.157,1.53-14.811,6.489-20.416,12.396C53.574,237.176,54.962,238.546,55.941,237.662L55.941,237.662z" fill="#E7D6C6"/></g><g id="change2_14"><path d="M61.168,289.702c3.484-4.675,6.837-9.506,11.011-13.602c4.002-3.929,10.757-5.161,13.54-10.185 c0.259-0.466-0.056-1.264-0.678-1.184c-5.202,0.667-10.377,4.295-14.444,7.467c-5.214,4.063-8.174,10.794-11.389,16.357 C58.454,289.854,60.314,290.846,61.168,289.702L61.168,289.702z" fill="#E7D6C6"/></g><g id="change2_15"><path d="M22.654,284.43c1.92-6.559,7.969-10.116,12.086-15.158c0.628-0.768-0.162-2.011-1.111-1.441 c-6.004,3.609-11.913,8.757-12.953,16.053C20.491,285.159,22.272,285.737,22.654,284.43L22.654,284.43z" fill="#E7D6C6"/></g><g id="change2_16"><path d="M36.596,344.801c3.694-6.078,7.982-11.708,12.616-17.098c4.763-5.542,10.776-9.872,15.43-15.48 c0.762-0.919-0.17-2.099-1.243-1.612c-13.367,6.054-22.564,20.456-28.083,33.442C34.949,344.91,36.084,345.644,36.596,344.801 L36.596,344.801z" fill="#E7D6C6"/></g><g id="change2_17"><path d="M70.544,357.46c3.174-4.529,6.47-8.364,11.061-11.514c4.08-2.8,8.716-4.72,12.332-8.157 c0.882-0.839-0.041-2.172-1.126-1.935c-9.941,2.166-22.081,10.243-24.461,20.679C68.035,357.903,69.768,358.565,70.544,357.46 L70.544,357.46z" fill="#E7D6C6"/></g><g id="change2_18"><path d="M71.992,391.519c5.023,0.565,8.822-1.782,13.141-4.017c7.29-3.771,15.123-6.513,21.662-11.555 c1.031-0.796,0.501-2.746-0.96-2.276c-5.791,1.864-11.262,4.255-16.746,6.882c-5.253,2.515-11.24,8.172-17.097,8.738 C70.549,389.431,70.568,391.359,71.992,391.519L71.992,391.519z" fill="#E7D6C6"/></g><g id="change2_19"><path d="M108.349,404.612c11.691-2.684,26.515-6.162,33.668-16.696c0.677-0.997-0.675-2.371-1.674-1.674 c-10.081,7.044-21.123,11.827-32.633,16.053C106.269,402.824,106.821,404.962,108.349,404.612L108.349,404.612z" fill="#E7D6C6"/></g><g id="change2_20"><path d="M24.13,386.055c0.516-5.225,2.584-10.12,3.284-15.318c0.119-0.882-0.941-1.433-1.476-0.623 c-3.197,4.833-4.572,10.163-4.254,15.941C21.772,387.653,23.975,387.608,24.13,386.055L24.13,386.055z" fill="#E7D6C6"/></g><g id="change2_21"><path d="M143.109,335.517c5.648-1.359,9.316-5.754,13.178-9.834c5.163-5.454,10.61-10.69,14.368-17.264 c0.759-1.327-0.938-2.485-2.024-1.562c-4.606,3.916-8.692,8.382-12.748,12.856c-4.205,4.638-8.233,10.492-13.598,13.849 C141.247,334.21,141.92,335.804,143.109,335.517L143.109,335.517z" fill="#E7D6C6"/></g><g id="change2_22"><path d="M177.537,341.001c8.222-4.779,12.768-10.589,14.55-19.965c0.201-1.057-1.23-1.446-1.601-0.442 c-2.841,7.706-7.208,13.926-14.03,18.558C175.326,339.92,176.331,341.703,177.537,341.001L177.537,341.001z" fill="#E7D6C6"/></g><g id="change2_23"><path d="M128.441,291.897c8.34-6.06,15.123-13.035,21.773-20.853c0.658-0.774-0.339-1.775-1.113-1.113 c-7.581,6.502-14.299,13.894-21.932,20.319C126.264,291.014,127.477,292.596,128.441,291.897L128.441,291.897z" fill="#E7D6C6"/></g><g id="change2_24"><path d="M199.428,226.3c14.23-6.013,27.46-8.515,42.81-6.552c0.705,0.089,1.12-0.98,0.587-1.417 c-12.189-9.984-32.818-0.393-44.764,5.631C196.466,224.765,197.866,226.959,199.428,226.3L199.428,226.3z" fill="#E7D6C6"/></g><g id="change2_25"><path d="M215.166,251.27c3.484,0.654,6.876,0.186,10.355-0.326c4.964-0.731,9.864-0.988,14.852-1.394 c0.828-0.067,1.07-1.029,0.408-1.506c-6.653-4.794-18.388-1.115-25.615,0.656C213.932,249.001,213.85,251.022,215.166,251.27 L215.166,251.27z" fill="#E7D6C6"/></g><g id="change2_26"><path d="M210.856,297.7c12.94-1.965,22.223-10.981,30.195-20.94c0.647-0.807-0.164-2.108-1.165-1.51 c-10.634,6.367-17.18,17.177-29.647,20.217C208.759,295.83,209.421,297.918,210.856,297.7L210.856,297.7z" fill="#E7D6C6"/></g><g id="change4_3"><path d="M344.415,131.931c4.472,1.683,8.994,3.148,13.249,5.355c4.416,2.291,6.671,5.594,10.149,8.871 c0.444,0.418,1.128,0.22,1.314-0.347c3.542-10.694-17.658-14.597-24.027-16.364C343.47,128.993,342.887,131.357,344.415,131.931 L344.415,131.931z" fill="#9C4639"/></g><g id="change4_4"><path d="M296.548,159.975c3.329,0.915,6.919,1.152,10.343,1.484c3.879,0.375,7.372,1.942,11.147,2.434 c0.446,0.058,0.949-0.453,0.895-0.895c-0.906-7.592-16.679-4.876-21.656-5.676C295.567,157.046,294.801,159.496,296.548,159.975 L296.548,159.975z" fill="#9C4639"/></g><g id="change4_5"><path d="M418.748,149.827c0.287,1.814,0.706,3.599,1.042,5.404c0.272,1.46,0.762,3.13,1.892,4.159 c0.419,0.382,1.068,0.421,1.482,0c2.697-2.74,0.022-7.538-0.794-10.561C421.727,146.438,418.379,147.492,418.748,149.827 L418.748,149.827z" fill="#9C4639"/></g><g id="change4_6"><path d="M221.373,192.885c4.664,1.413,9.29,1.163,14.114,0.941c5.862-0.27,11.473,0.041,17.313,0.535 c0.768,0.065,1.258-1.07,0.649-1.566c-8.271-6.731-21.926-2.559-31.716-2.57C220.18,190.224,219.921,192.444,221.373,192.885 L221.373,192.885z" fill="#9C4639"/></g><g id="change4_7"><path d="M152.764,195.331c4.49,0.52,8.261-0.712,12.379-2.466c6.052-2.578,12.673-3.424,18.92-5.415 c0.788-0.252,0.88-1.48,0-1.685c-4.464-1.04-8.433-0.028-12.798,1.096c-6.261,1.612-11.958,5.648-18.5,5.935 C151.098,192.871,151.175,195.147,152.764,195.331L152.764,195.331z" fill="#9C4639"/></g><g id="change4_8"><path d="M173.268,255.175c7.286-0.943,15.622-3.735,21.566-8.164c0.624-0.464,0.518-1.698-0.442-1.629 c-7.408,0.537-14.416,4.921-21.514,6.919C171.341,252.735,171.591,255.393,173.268,255.175L173.268,255.175z" fill="#9C4639"/></g><g id="change4_9"><path d="M104.67,285.674c0.986-4.88,6.53-8.582,10.088-11.702c4.304-3.773,8.886-7.081,12.698-11.395 c0.8-0.906-0.246-2.488-1.35-1.75c-5.758,3.851-11.262,8.095-16.265,12.897c-3.329,3.195-7.117,6.789-7.188,11.676 C102.636,286.542,104.437,286.824,104.67,285.674L104.67,285.674z" fill="#9C4639"/></g><g id="change4_10"><path d="M108.5,349.86c8.202-2.755,16.163-10.869,18.211-19.371c0.375-1.556-1.555-2.188-2.436-1.027 c-5.055,6.675-9.711,12.944-17.139,17.164C105.415,347.605,106.573,350.509,108.5,349.86L108.5,349.86z" fill="#9C4639"/></g><g id="change4_11"><path d="M74.45,438.024c8.407-4.319,18.383-7.974,20.856-18.155c0.267-1.102-1.191-1.693-1.797-0.757 c-5.104,7.868-12.461,12.058-20.25,16.875C71.962,436.79,73.101,438.717,74.45,438.024L74.45,438.024z" fill="#9C4639"/></g><g id="change4_12"><path d="M18.683,331.135c3.094-9.044,7.32-17.701,10.12-26.84c0.322-1.053-1.217-1.679-1.756-0.74 c-4.85,8.425-9.277,17.205-11.102,26.825C15.606,332.175,18.087,332.877,18.683,331.135L18.683,331.135z" fill="#9C4639"/></g><g id="change4_13"><path d="M54.275,216.284c3.553-1.307,6.651-3.767,9.687-5.987c3.527-2.58,7.171-5.329,9.922-8.75 c0.652-0.813-0.142-1.909-1.111-1.441c-3.819,1.843-7.258,4.513-10.677,6.997c-3.048,2.216-6.487,4.382-8.925,7.281 C52.509,215.171,53.108,216.713,54.275,216.284L54.275,216.284z" fill="#9C4639"/></g><g id="change4_14"><path d="M239.752,123.878c4.528,0.194,9.057,0.242,13.576,0.623c5.046,0.425,9.797,1.877,14.75,2.764 c0.872,0.157,1.711-0.906,0.936-1.607c-7.864-7.106-19.607-4.867-29.261-4.315C238.124,121.437,238.113,123.808,239.752,123.878 L239.752,123.878z" fill="#9C4639"/></g><g id="change4_15"><path d="M407.305,267.779c6.086,2.552-2.166,14.291-8.612,14.291c-4.513,0-16.776-9.32-12.116-12.737 S401.219,265.227,407.305,267.779z" fill="#9C4639"/></g><g id="change4_16"><path d="M415.389,287.385c-6.595,1.486-10.811-2.585-14.897-7.111c-1.158-1.281-3.124-0.779-3.993,0.514 c-2.423,3.614-6.149,5.667-10.243,6.891c-3.789,1.133-7.531-0.615-11.406-0.041c-0.723,0.108-1.15,1.185-0.718,1.765 c6.738,9.035,21.766,1.471,26.756-6.049c-1.331,0.171-2.662,0.343-3.993,0.514c4.649,5.1,13.631,12.684,19.917,5.963 C417.831,288.74,416.82,287.062,415.389,287.385L415.389,287.385z" fill="#9C4639"/></g><g id="change3_7"><path d="M324.979,256.027c-22.733,0-24.286,33.669-3.029,35.088C345.077,292.66,349.851,256.027,324.979,256.027z" fill="#E0AE8C"/></g><g id="change3_8"><path d="M460.362,256.027c-22.733,0-24.286,33.669-3.029,35.088C480.461,292.66,485.235,256.027,460.362,256.027z" fill="#E0AE8C"/></g><g id="change5_1"><path d="M372.545,414.14c-4.531-8.513-9.795-9.766-14.832-10.455c0.179-0.11,0.358-0.222,0.537-0.334 c2.474-0.686,4.945-1.381,7.415-2.086c3.769-1.076,7.538-2.151,11.307-3.223c1.049,5.057,2.887,10.586,5.745,15.333 c4.269,7.089,12.891,11.216,19.682,13.521c2.962,0.837-3.275-16.317-6.151-20.411c-5.249-7.471-10.366-9.178-15.268-9.583 c5.756-1.631,11.516-3.245,17.285-4.833c0.065,0.132,0.13,0.267,0.196,0.397c0.136-0.117,0.272-0.237,0.408-0.356 c1.525,5.67,2.623,9.73,6.229,14.936c5.27,7.605,22.961,13.615,30.702,15.704c3.365,0.723-11.208-17.859-14.711-22.221 c-6.751-8.41-12.878-9.655-18.649-9.607c0.393-0.106,0.785-0.216,1.176-0.322c5.456-1.48,10.91-2.982,16.249-4.783 c2.093,5.383,5.143,11.141,9.176,15.848c6.019,7.027,20.627,7.089,28.543,8.375c3.42,0.375-10.968-14.496-14.897-18.478 c-6.507-6.593-12.017-7.974-17.076-7.829c4.229-1.661,8.354-3.585,12.314-5.922c1.104-0.651,2.17-1.346,3.217-2.065 c2.123,3.937,5.087,7.825,8.865,10.606c5.739,4.224,15.216,3.955,22.224,2.988c2.954-0.548-5.553-12.233-9.091-14.591 c-6.446-4.298-12.073-3.961-17.397-2.466c2.063-1.679,4.056-3.448,6.015-5.258c6.559-0.188,13.197-0.898,18.485-8.427 c2.332-3.322,4.591-5.763,6.876-9.117c3.68-4.328-3.909-6.047-6.729-5.514c-6.571,1.562-12.2,3.102-15.848,8.845 c-2.418,3.806-3.711,8.321-4.235,12.582c-2.041,1.87-4.112,3.7-6.265,5.437c2.874-3.933,4.794-8.563,3.174-15.425 c-0.923-3.914-8.455-15.549-9.907-13.205c-3.152,5.68-6.496,13.745-4.645,20.243c1.258,4.42,3.844,8.522,6.735,11.861 c-1.079,0.74-2.179,1.454-3.318,2.127c-4.474,2.641-9.212,4.71-14.081,6.462c3.312-4.013,5.834-9.007,3.995-18.165 c-0.926-4.613-2.546-24.793-3.892-22.489c-2.912,5.616-11.57,19.745-9.917,27.259c1.117,5.078,3.443,10.198,6.116,14.664 c-5.234,1.709-10.576,3.132-15.866,4.559c3.21-3.517,5.605-8.174,4.796-16.588c-0.451-4.684-4.149-23.876-5.724-21.721 c-3.469,5.288-9.378,17.412-8.502,25.054c0.569,4.962,2.244,10.075,4.326,14.651c-5.696,1.562-11.383,3.156-17.065,4.77 c3.068-2.956,5.476-6.975,5.234-14.535c-0.134-4.207-4.38-17.781-5.911-15.95c-3.398,4.522-7.32,11.24-6.975,18.111 c0.229,4.578,1.489,9.368,3.15,13.658c-3.866,1.103-7.732,2.209-11.6,3.312c-0.63,0.181-1.264,0.35-1.894,0.529 c1.862-2.155,3.277-5.163,3.709-9.89c0.337-3.693-1.903-16.023-3.439-14.588c-3.461,3.585-7.62,9.037-8.062,15.08 c-0.27,3.693,0.203,7.628,1.042,11.286c-3.094,0.848-6.192,1.683-9.296,2.5c-5.825,1.532-11.564,3.348-16.845,6.297 c-1.195,0.667-0.082,2.475,1.111,1.808c5.376-3.001,11.24-4.729,17.162-6.287c2.8-0.736,5.594-1.491,8.386-2.259 c0.056,0.205,0.108,0.416,0.166,0.617c0.123-0.071,0.246-0.143,0.369-0.216c0.349,4.613,1.361,9.775,3.391,14.334 c4.118,9.253,8.973,10.679,15.745,13.958C378.21,433.709,374.616,418.03,372.545,414.14z" fill="#7E7935"/></g><g id="change5_2"><path d="M109.954,153.967c5.799,7.706,4.708,13.005,3.206,17.861c0.175-0.116,0.352-0.231,0.529-0.345 c1.668-1.952,3.342-3.898,5.025-5.838c2.569-2.96,5.135-5.922,7.7-8.884c-4.14-3.089-8.373-7.091-11.467-11.689 c-4.621-6.865-4.714-16.424-3.935-23.553c0.492-3.038,13.404,9.866,15.898,14.202c4.552,7.915,3.937,13.274,2.231,17.887 c3.911-4.526,7.808-9.065,11.685-13.622c-0.091-0.116-0.186-0.231-0.278-0.345c0.164-0.073,0.33-0.147,0.494-0.22 c-4.494-3.778-7.71-6.489-10.903-11.959c-4.666-7.991-2.632-26.564-1.254-34.462c0.766-3.355,11.447,17.706,13.92,22.724 c4.768,9.674,3.307,15.753,0.824,20.963c0.263-0.311,0.528-0.619,0.79-0.93c3.648-4.319,7.314-8.627,11.203-12.703 c-3.993-4.173-7.922-9.37-10.483-15.014c-3.823-8.425,2.296-21.691,4.475-29.408c1.105-3.258,8.502,16.068,10.45,21.311 c3.225,8.684,2.147,14.261-0.123,18.785c3.292-3.132,6.779-6.056,10.571-8.656c1.057-0.725,2.136-1.398,3.232-2.043 c-2.671-3.588-4.941-7.916-5.864-12.519c-1.402-6.986,2.846-15.462,6.686-21.404c1.745-2.447,8.738,10.204,9.38,14.405 c1.171,7.659-1.514,12.616-5.119,16.81c2.395-1.161,4.841-2.218,7.309-3.228c2.943-5.864,6.393-11.581,15.451-13.19 c3.995-0.71,7.165-1.724,11.169-2.377c5.478-1.504,3.829,6.099,2.153,8.427c-4.192,5.296-7.967,9.745-14.714,10.623 c-4.47,0.582-9.111-0.155-13.193-1.482c-2.557,1.059-5.091,2.164-7.575,3.379c4.779-0.943,9.788-0.725,15.322,3.642 c3.158,2.492,10.517,14.235,7.78,14.56c-6.479,0.455-15.201,0.076-20.31-4.347c-3.474-3.008-6.099-7.085-7.901-11.117 c-1.126,0.665-2.239,1.361-3.329,2.108c-4.283,2.938-8.162,6.358-11.808,10.028c5.038-1.307,10.629-1.48,18.15,4.058 c3.79,2.79,21.393,12.787,18.735,13.035c-6.319,0.265-22.786,2.138-28.896-2.535c-4.131-3.159-7.786-7.432-10.705-11.741 c-3.762,4.021-7.309,8.261-10.839,12.453c4.544-1.422,9.777-1.624,17.059,2.666c4.054,2.388,19.883,13.851,17.266,14.37 c-6.259,0.91-19.743,1.137-26.299-2.885c-4.257-2.613-8.183-6.293-11.449-10.114c-3.823,4.502-7.672,8.983-11.536,13.449 c3.976-1.532,8.636-2.015,15.385,1.402c3.756,1.899,14.263,11.486,11.956,12.097c-5.534,1.169-13.281,1.883-19.361-1.335 c-4.052-2.144-7.86-5.311-11.046-8.628c-2.634,3.038-5.27,6.075-7.905,9.111c-0.431,0.496-0.852,0.995-1.281,1.493 c2.74-0.777,6.065-0.787,10.532,0.82c3.489,1.254,13.717,8.498,11.767,9.283c-4.712,1.622-11.41,3.087-17.076,0.932 c-3.461-1.316-6.828-3.407-9.788-5.715c-2.076,2.446-4.142,4.9-6.196,7.368c-3.851,4.63-7.924,9.066-12.826,12.604 c-1.111,0.801-2.278-0.971-1.169-1.773c4.992-3.603,9.037-8.187,12.951-12.897c1.851-2.226,3.717-4.44,5.592-6.645 c-0.162-0.138-0.33-0.274-0.488-0.412c0.117-0.08,0.233-0.162,0.35-0.242c-4.034-2.267-8.284-5.365-11.559-9.132 c-6.645-7.642-5.885-12.645-5.993-20.168C94.615,140.561,107.303,150.444,109.954,153.967z" fill="#7E7935"/></g></svg>