<?xml version="1.0" encoding="UTF-8"?><svg xmlns="http://www.w3.org/2000/svg" xmlns:xlink="http://www.w3.org/1999/xlink" height="1913.8" preserveAspectRatio="xMidYMid meet" version="1.0" viewBox="0.1 0.1 1323.5 1913.8" width="1323.5" zoomAndPan="magnify"><g><g fill="#A8B95C" id="change1_1"><path d="M914.52,1156.34c6.61,12.22,12.76,23.59,18.92,34.95c1.01,1.87,0.74,2.89-1.5,3.62 c-12.54,4.1-23.32,11.14-32.76,20.26c-1.45,1.4-2.16,1.48-3.33-0.22c-4.42-6.44-8.84-12.9-14.59-18.28 c-1.38-1.29-1.2-2.48-0.45-3.98c2.36-4.76,4.68-9.54,6.9-14.37c0.76-1.65,1.92-2.56,3.57-3.19 C900.75,1171.49,909.42,1166.77,914.52,1156.34z" fill="inherit"/><path d="M923.24,1248.66c-10.75,0.17-10.74,0.17-13.78-8.07c-0.81-2.18-1.36-4.55-2.59-6.47 c-2.8-4.36-1.66-7.51,2.01-10.71c8.35-7.3,17.32-13.41,28.03-16.77c2.88-0.9,4.55-0.66,5.92,2.32c2.97,6.5,6.25,12.86,9.44,19.26 c1.2,2.41,1.96,4.97,2.2,7.63c0.65,7.15-1.71,10.08-8.61,11.18C937.77,1248.32,929.59,1248.09,923.24,1248.66z" fill="inherit"/><path d="M898.61,1248.74c-9.82,0.17-19.28-0.22-28.67-1.7c-5.64-0.89-9.11-5.65-7.6-11.14 c2.52-9.17,6.89-17.65,10.71-26.33c0.99-2.25,2.02-1.08,2.87-0.03C885.43,1221.36,894.43,1233.47,898.61,1248.74z" fill="inherit"/></g><g fill="#411F19" id="change2_1"><path d="M955.18,1.06c9.18,0.01,18.35,0.02,27.52,0.03c38.46,3.18,74.55,14.04,107.31,34.58 c40.51,25.39,68.15,61.18,82.66,106.71c15.03,47.17,17.85,95.42,10.11,144.2c-3.31,20.84-11.4,40.29-20.13,59.4 c-11.09,24.26-24.05,47.52-38.58,69.88c-2.05,3.15-2.35,5.69-1,9.17c26.49,68.58,52.5,137.33,75.39,207.23 c10.6,32.37,20.15,64.97,20.72,99.32c0.67,39.78-5.15,78.39-24.28,114c-10.78,20.07-25.32,37.51-39.55,55.12 c-10.15,12.57-20.61,24.89-30.93,37.32c-0.94,1.13-1.85,2.28-3.19,3.95c8.95,1.75,17.44,3.04,25.74,5.1 c27.8,6.9,55.71,13.97,80.71,28.41c47.47,27.42,75.71,69.21,87.07,122.31c8.8,41.13,3.62,80.38-18.77,116.81 c-15.07,24.52-36.82,40.82-62.54,52.44c-3.09,1.4-3.63,2.64-2.71,5.87c9.19,32.32,19.12,64.53,25.39,97.52 c13.07,68.75,15.52,137.75-2.44,206.1c-5.16,19.64-5.72,39.45-7.65,59.26c-3.26,33.49-6.42,67.01-16.08,99.43 c-8.48,28.42-19.06,56.02-32.79,82.4c-23.12,44.41-58.21,73.62-106.93,86.3c-16.32,4.25-32.68,7.86-49.53,9.02 c-10.17-0.01-20.34-0.02-30.51-0.03c-21.04-1.64-41.59-5.57-60.97-14.22c-30.68-13.7-45.23-42.56-37.44-73.76 c1.6-6.41,4.12-12.56,8.47-17.36c16.53-18.22,24.34-40.11,28.27-63.87c2.2-13.3,4.86-26.52,7.47-39.75 c0.68-3.45-0.06-4.62-3.83-4.5c-38.13,1.24-76.27,2.36-114.41,3.35c-3.52,0.09-4.01,1.48-4.02,4.48 c-0.06,15.19,4.21,29.61,7.69,44.16c3.54,14.79,8.75,28.54,18.05,41.19c12.67,17.24,11.2,37.09,5.03,56.52 c-7.88,24.82-24.25,41.61-49.66,48.21c-38.42,9.99-77.49,14.28-116.75,6.53c-53.7-10.61-94.57-39.46-120.22-88.64 c-27.57-52.86-48.29-108.17-58.67-166.98c-6.32-35.81-15.93-70.66-26.16-105.5c-13.78-46.94-16.37-95.09-9.87-143.54 c3.44-25.66,11.92-50.14,20.4-74.5c1.35-3.89,1.03-6.65-1.31-10.02c-6.64-9.58-12.33-19.76-17.89-30.01 c-14.93-27.53-17.69-57.17-16.03-87.74c1.29-23.65,5.93-46.53,14.64-68.55c1.1-2.78,1.09-4.24-2.08-5.64 c-58.79-26.06-98.77-70.69-127.1-127.4c-35.26-70.6-67.25-142.67-98.55-215.07c-1.67-3.85-3.9-5.42-7.83-6.33 c-36.23-8.37-71.61-19.3-105.28-35.39c-24.28-11.6-44.62-28.34-63.3-47.31c-28.33-28.77-51.59-60.97-66.2-98.93 C6.15,575.4,2.65,557.83,1.04,539.83c0.01-10.52,0.02-21.03,0.03-31.55c11.74-84.41,53.57-147.32,132.5-182.62 c46.39-20.75,93.36-17.33,139.96,0.75c20.91,8.11,38.23,21.41,54.47,36.41c8.08,7.47,15.96,15.14,23.2,23.43 c2.16,2.47,3.21,2.24,5.18-0.19c27.86-34.31,58.14-66.42,89-98.01c24.58-25.16,52.22-45.85,84.23-60.66 c11.9-5.5,23.72-7.5,36.16-2.31c3.57,1.49,7.09,3.17,9.55,6.18c1.89,2.32,3.53,2.37,5.92,0.98c1.85-1.08,3.99-1.64,5.98-2.5 c15.64-6.72,29.61-4.17,41.77,7.7c1.97,1.92,3.71,2.26,6.2,1.4c34.29-11.84,69.73-18.59,105.55-23.57 c11.13-1.55,22.3-0.85,33.42,0.11c3.98,0.34,4.67-0.82,4.56-4.54c-0.71-25.03-1.32-50.34,6.03-74.43 C803.84,73.85,843.34,30.28,906.7,10.14C922.49,5.12,938.68,2.26,955.18,1.06z M407.01,1034.08l-0.05-0.05 c0.18,0.62,0.19,1.39,0.58,1.83c6.07,6.81,11.98,13.79,18.34,20.32c21.64,22.24,48.23,36.93,76.12,49.62 c2.06,0.94,2.96,0.25,4.11-1.19c23.03-28.95,53.1-48.89,85.68-64.98c50.12-24.75,103.27-38.67,159.32-40.44 c22.82-0.72,45.64-0.71,68.26,3.19c6.63,1.14,6.48,1.2,6.43-5.44c-0.26-36.21,14.7-49.21,38.47-58.42 c22.55-8.74,45.76-11.07,69.65-9.03c21.21,1.81,42.36,4.6,63.76,3.4c8.29-0.46,16.64-0.09,24.96,0.6 c19.15,1.59,37.7,6.25,56.27,10.79c1.71,0.42,3.43,1.65,5.03-0.22c6.52-7.59,14.69-13.46,21.23-21.1 c17.54-20.53,34.35-41.61,51.02-62.84c32.58-41.5,41.14-89.21,37.64-140.27c0.2-4.99,0.65-10.02-1.86-14.67 c-1.91-17.99-7.22-35.18-12.65-52.31c-20.38-64.25-43.85-127.4-67.96-190.33c-5.53-14.44-10.55-29.09-16.29-43.42 c-7.58-18.94-20.4-34.52-34.8-48.92c-29.8-29.81-60.99-57.83-99.22-76.56c-50.14-24.56-102.5-42.68-157.83-51.26 c-18.59-2.89-37.5-4.5-56.29-2.89c-18.73,1.6-37.24,5.28-55.68,9.09c-19.27,3.98-37.84,10.43-56.69,15.9 c-9.6,2.79-14.44,1.09-20.38-6.82c-5.37-7.15-9.32-8.35-17.73-5.28c-8.22,3-15.44,7.73-22.42,12.9 c-4.92,3.64-10.55,3.86-14.91,0.88c-4.42-3.03-6.09-8.16-4.62-14.21c0.16-0.65,0.3-1.31,0.55-1.92c0.9-2.16-0.04-2.83-2.12-3.27 c-3.67-0.79-6.97,0.22-10.16,1.66c-23.81,10.8-45.88,24.27-64.95,42.38c-11.24,10.67-22.12,21.7-32.91,32.83 c-42.19,43.49-81.48,89.21-113.83,140.76c-19.21,30.6-35.35,62.5-47.99,96.25c-16.29,43.49-20.89,88.81-21.35,134.87 c-0.26,25.68,4.04,49.81,14.87,73.5c24.15,52.81,46.32,106.52,71.58,158.84c13.67,28.32,26.57,57.06,42.88,84.03 C395.81,1019.69,400.57,1027.51,407.01,1034.08z M946.17,1181.12c2.1-4.15,3.72-7.62,5.59-10.95c1.87-3.32,4.79-4.84,8.4-3.04 c3.65,1.81,4.03,5.12,2.58,8.57c-1.35,3.22-3.32,6.19-4.49,9.46c-2.45,6.85-3.48,13.57,0.58,20.54 c3.75,6.44,6.98,13.27,9.66,20.23c6.92,17.95-2.07,35.03-19.79,36.84c-27.06,2.77-54.21,3.07-81.31,0.13 c-11-1.2-17.97-8.13-20.47-18.94c-1.37-5.93-0.87-11.58,1.45-17.1c3.81-9.04,7.62-18.08,11.64-27.02 c1.09-2.42,0.99-4.24-0.42-6.45c-2.28-3.58-5.89-5.98-8.19-9.35c-2.61-3.83-4.2-2.58-6.54-0.09 c-16.95,17.98-38.39,25.73-62.53,27.01c-3.46,0.18-4.88,1.96-6.37,4.54c-12.97,22.5-26.47,44.69-41.4,65.96 c-7.48,10.65-15.44,20.86-25.47,29.36c-26.94,22.81-58.21,35.06-93.11,38.25c-30.48,2.78-59.88-0.41-86.23-17.87 c-1.86-1.23-2.44-0.54-3.05,1.29c-8.06,23.81-16.48,47.6-19.64,72.65c-5.41,42.93-2.31,85.43,8.22,127.41 c5.08,20.26,12.28,39.48,26.87,54.99c20.6,21.91,44.77,38.65,72.9,49.56c19.71,7.64,39.96,13.54,60.24,19.42 c55.29,16.04,111.83,22.33,169.22,21.57c27.65-0.37,55.29-1.68,82.94-2.43c15.98-0.43,32.11,0.66,47.92-1.14 c31.89-3.64,63.52-9.43,94.77-16.79c37.62-8.86,74.53-19.68,108.33-39.39c21.39-12.47,39.02-28.24,50.84-50.18 c1.51-2.81,2.79-5.65,3.46-8.77c14.13-66.04,11.14-131.87-3.65-197.26c-7.49-33.08-17.12-65.68-25.66-98.52 c-0.56-2.16-1.52-2.48-3.43-2.41c-5.66,0.21-11.33,0.18-16.94-0.77c-35.11-5.96-66.07-21.07-93.63-43.25 c-16.52-13.29-31.13-28.67-45.23-44.46c-3.77-4.22-7.43-6.03-13.2-5.69c-30.66,1.78-56.85-8.36-78.21-30.56 c-1.2-1.24-2.35-1.61-3.97-1.24c-7.29,1.66-14.59,3.29-21.9,4.9c-1.72,0.38-2.78,0.88-1.63,2.97 C932.24,1155.56,939.06,1168.1,946.17,1181.12z M914.48,944.89c-11.85-1.43-25.96,2.47-39.93,6.85 c-16.36,5.13-30.26,13.14-32.08,32.48c-1.53,16.25-2.13,25.1,13.31,35.68c2.99,2.05,5.97,4.88,9.29,5.47 c2.6,0.46,4.37-3.59,6.77-5.37c13.67-10.1,29.75-13.6,45.89-16.86c3.76-0.76,8.47,3.22,9.09,7.03c0.67,4.17-2.28,7.83-6.95,8.82 c-11.5,2.46-23.03,4.62-33.45,10.71c-20.77,12.14-27.86,35.54-15.69,55.43c5.53,9.04,13.41,15.46,25.27,14.95 c13.3-0.57,26.32-2.99,39.3-5.49c5.68-1.1,9.51,0.68,12.38,5.01c2.93,4.43,5.24,9.25,8.02,13.79 c14.77,24.17,36.65,36.23,64.66,37.57c6.48,0.31,13,0.04,19.49,0.03c3.25-0.01,6.28,0.59,8.65,3.07 c7.47,7.82,15.18,15.43,22.34,23.51c9.62,10.86,20.45,20.39,31.56,29.6c14.74,12.2,31.75,20.6,49.21,28.09 c18,7.72,36.8,11.43,56.39,9.63c11.43-1.05,22.71-3.34,32.72-9.42c11.86-7.2,22.03-16.14,30.19-27.67 c14.68-20.73,22.08-43.65,23.01-68.84c0.38-10.15-0.27-20.23-1.97-30.26c-2.95-17.33-8.68-33.76-16.53-49.4 c-8.97-17.87-21.39-33.08-36.65-46.08c-9.68-8.24-19.95-15.54-31.45-20.85c-12.07-5.58-24.77-9.53-37.42-13.61 c-18.53-5.98-37.45-9.93-56.66-12.78c-10.79-1.6-21.87-2.12-32.3-5.01c-33.57-9.28-67.55-13.92-102.38-12 c-4.32,0.24-8.74,0.49-12.98-0.15C949.65,946.4,933.67,944.98,914.48,944.89z M492.99,1211.39c0,2.33,0.02,4.67,0,7 c-0.18,15.62,2.44,30.64,8.64,45.08c5.41,12.59,12.47,24.21,19.91,35.63c3.25,4.99,5.88,10.49,10.65,14.35 c16.67,13.48,36.28,19.13,57.19,20.39c22.59,1.35,44.63-1.82,66.01-9.76c22.27-8.28,41.9-20.57,56.71-39.09 c19.12-23.91,34.93-50.19,49.5-77.04c5.25-9.67,11.85-12.35,21.63-13.14c14.26-1.15,28.32-3.58,39.95-13.25 c5.11-4.25,10.21-8.47,14.96-13.14c5.71-5.6,11.96-8.92,20.61-6.64c10.22,2.69,20.36,1.11,30.17-2.87 c11.88-4.83,17.14-16.86,12.2-28.59c-1.68-3.98-3.57-7.87-5.34-11.81c-0.75-1.66-1.85-2.44-3.82-2.56 c-16.88-1.06-28.02-10.76-36.25-24.58c-4.97-8.35-7.05-17.49-6.73-27.19c0.06-1.99,0.35-4.07-2.77-4.2 c-3.47-0.14-6.91-0.77-10.38-0.95c-5.53-0.28-8.75-2.86-8.85-7.35c-0.12-5.33,2.82-8.52,8.75-8.56c4.27-0.03,8.67,0.34,12.8,1.39 c3.29,0.84,4.39-0.38,5.72-2.91c1.6-3.03-0.67-3.88-2.34-5.01c-3.99-2.7-8.27-5.09-11.47-8.72c-4.28-4.86-8.93-7.99-15.82-8.73 c-11.17-1.19-22.27-3.77-33.48-3.96c-21.25-0.37-42.51-0.6-63.76,1.61c-15.69,1.63-31.17,4.13-46.46,7.81 c-31.92,7.68-62.81,18.27-91.63,34.28c-25.52,14.19-49.74,30.13-68.54,53c-3.67,4.46-8.18,8.48-10.44,13.86 C498.82,1153.11,491.54,1181.38,492.99,1211.39z M24.99,527.67c-0.2,7.55,1.25,18.39,3.11,29.17 c3.69,21.41,12.43,40.97,23.16,59.55c6.94,12.03,14.85,23.61,24.1,34.09c6.14,6.96,10.77,15.29,18.02,21.16 c7.62,6.16,13.84,13.71,21.43,19.92c9.54,7.81,19.26,15.5,30.12,21.05c32.09,16.4,66.26,27.28,101.17,35.91 c4.62,1.14,5.69,0.18,4.5-4.3c-3.56-13.41-4.91-27.02-4.61-40.89c0.3-14.29-0.32-28.61,1.1-42.87c0.38-3.85-0.69-6.06-4.65-7.4 c-5.49-1.86-10.71-4.52-16.06-6.8c-18.81-7.99-36.5-17.71-50.57-32.98c-15.3-16.6-23.59-36.39-25.63-58.66 c-1.36-14.87,1.36-29.44,5.78-43.66c8.3-26.7,25.58-46.3,48.96-60.75c14.09-8.71,29.8-13.43,46.25-13.92 c12.97-0.39,25.61,3.17,37.77,7.76c9.01,3.4,17.85,7.24,26.78,10.84c1.06,0.42,2.05,1.7,3.3-0.24 c8.21-12.69,16.52-25.3,24.91-37.88c1.07-1.61,1.14-2.81-0.4-3.76c-5.68-3.5-8.02-10.14-13.16-14.06 c-7.43-5.66-13.09-13.12-20.1-19.19c-8.27-7.17-16.39-14.63-25.74-20.34c-24.34-14.86-51.28-21.57-79.44-23.22 c-17.52-1.03-34.78,2.04-51.33,7.86c-35.25,12.39-64.33,33.29-86.84,63.37c-9.28,12.4-17.13,25.53-23.77,39.43 C31.5,471.33,25.18,497.06,24.99,527.67z M1104.03,401.79c11.53-18.28,22.25-36.5,31.35-55.63c13.02-27.38,24.4-55.12,25.83-86.14 c0.83-18.14,1.19-36.21-0.47-54.24c-1.58-17.14-4.91-34.02-9.7-50.64c-5.49-19.03-13.75-36.81-25.06-52.84 c-5.69-8.06-11.84-16.06-19.57-22.85c-5.96-5.24-11.67-10.91-18.1-15.55c-20.43-14.72-43.1-24.77-67.38-31.39 c-28.25-7.71-56.8-9.72-85.58-4.24c-28.55,5.44-54.83,16.18-77.04,35.58c-6.58,5.75-13.68,11.11-18.61,18.34 c-7.43,10.91-15.51,21.47-20.92,33.64c-3.57,8.03-7.82,15.78-9.84,24.44c-6.01,25.75-6.87,51.77-5.29,78.09 c0.39,6.5,1.19,8.87,8.22,9.42c12.7,1,24.97,4.93,37.42,7.67c2.75,0.61,3.42-0.2,4.23-2.39c4.4-11.84,9.15-23.53,15.63-34.44 c5.71-9.62,12-18.8,21.01-25.58c25.54-19.23,54.36-25.59,85.56-19.83c27.04,4.99,49.72,18.93,66.44,40.26 c19.67,25.1,25.35,54.3,17.94,85.68c-3.87,16.41-10.4,31.86-17,47.27c-1.35,3.14-0.84,5.04,1.57,6.84 c10.71,8.01,18.48,19,28.46,27.82C1085.94,372.43,1096.44,385.94,1104.03,401.79z M537.12,1605.92c-0.3,0.24-0.59,0.48-0.89,0.72 c1.58,8.1,3.28,16.17,4.71,24.29c4.46,25.31,9.79,50.44,17.62,74.93c7.7,24.07,17.09,47.51,27.6,70.51 c9.44,20.65,19.51,40.84,34.54,58.24c15.18,17.57,34.04,29.33,55.48,37.49c24.47,9.32,49.59,12.52,75.75,10.04 c14.68-1.39,29.35-2.34,43.84-5.23c19.37-3.86,36.48-10.77,43.91-31.34c5.26-14.55,7.74-28.96-2.48-42.54 c-5.8-7.7-10.75-15.78-13.72-25.05c-4.25-13.29-7.6-26.79-10.53-40.42c-2.97-13.81-5.52-27.65-3.08-41.85 c0.29-1.69-0.19-1.96-2.07-2.08c-11.23-0.72-22.43-1.92-33.65-2.68c-14.88-1.01-29.74-2.54-44.32-5.4 c-39.1-7.68-77.54-17.87-115.05-31.51c-21.6-7.86-41.42-18.73-59.32-33.13C549.31,1615.97,543.23,1610.92,537.12,1605.92z M1223.75,1604.51c-1.45,0.97-2.19,1.3-2.73,1.85c-14.86,14.94-32.97,25.05-51.41,34.71c-26.86,14.08-55.85,22.22-84.98,29.56 c-32.09,8.08-64.68,13.96-97.51,18.32c-5.8,0.77-6.95,2.17-5.67,7.85c0.34,1.53,0.2,2.86-0.04,4.37 c-3.15,19.95-7.11,39.73-11.43,59.46c-4.15,18.98-9.83,37.14-23.15,52.05c-8.34,9.33-13.9,19.82-11.89,32.99 c1.79,11.71,6.49,21.37,17.6,27.15c15.53,8.08,32.05,12.23,49.35,14.46c15.27,1.97,30.48,2.17,45.64,0.41 c18.98-2.21,37.44-7.04,55.32-13.86c25.19-9.62,45.84-25.26,60.72-47.78c15.2-22.99,25.8-48.27,35.29-74.07 c11.83-32.14,17.32-65.59,20.97-99.4C1221.51,1636.95,1222.41,1621.26,1223.75,1604.51z M165.99,547.96 c-0.08,22.75,11.33,46.78,28.54,61.43c15.24,12.98,33.44,20.32,51.43,28.15c3.24,1.41,3.12-0.62,3.39-2.71 c1.9-15.01,4.34-29.94,8.17-44.6c10.79-41.32,27.73-80.06,49.5-116.71c2.05-3.45,1.43-4.51-1.94-5.94 c-8.72-3.71-17.47-7.34-26.49-10.29c-15.5-5.07-30.95-6.61-46.97-1.6C192.54,467.9,166.14,504.68,165.99,547.96z M1047.13,256.82 c0.22-19.79-6.39-40.66-17.2-53.22c-23.29-27.05-52.49-40.37-88.57-35.29c-19.45,2.74-36.98,10.19-49.86,25.72 c-10.76,12.98-16.98,28.5-22.99,44.06c-1.17,3.04,1.06,2.88,2.69,3.36c15.32,4.53,30.29,10.04,45.25,15.62 c37.61,14.04,73.53,31.15,104.99,56.59c7.37,5.96,7.48,5.89,11.05-2.92C1039.95,292.38,1047.29,273.97,1047.13,256.82z M914.52,1156.34c-5.1,10.43-13.77,15.15-23.23,18.8c-1.65,0.63-2.81,1.54-3.57,3.19c-2.23,4.83-4.54,9.61-6.9,14.37 c-0.75,1.5-0.93,2.69,0.45,3.98c5.75,5.38,10.17,11.84,14.59,18.28c1.17,1.7,1.88,1.62,3.33,0.22 c9.44-9.12,20.21-16.16,32.76-20.26c2.24-0.73,2.51-1.75,1.5-3.62C927.28,1179.93,921.13,1168.56,914.52,1156.34z M923.24,1248.66 c6.36-0.57,14.53-0.34,22.61-1.63c6.9-1.1,9.26-4.03,8.61-11.18c-0.24-2.66-1-5.21-2.2-7.63c-3.18-6.4-6.46-12.76-9.44-19.26 c-1.36-2.98-3.03-3.22-5.92-2.32c-10.71,3.36-19.68,9.47-28.03,16.77c-3.66,3.2-4.8,6.36-2.01,10.71 c1.23,1.92,1.78,4.28,2.59,6.47C912.5,1248.82,912.49,1248.83,923.24,1248.66z M898.61,1248.74 c-4.18-15.27-13.18-27.38-22.68-39.19c-0.85-1.06-1.88-2.22-2.87,0.03c-3.82,8.68-8.2,17.16-10.71,26.33 c-1.51,5.49,1.96,10.25,7.6,11.14C879.32,1248.52,888.79,1248.91,898.61,1248.74z M918.05,1125.94 c7.27-1.68,14.17-3.27,21.05-4.88c0.62-0.14,1.27-0.27,1.48-1.09c0.56-2.13-5.56-9.16-7.74-8.77c-4.53,0.8-9.05,1.65-13.55,2.54 c-7.32,1.46-7.37,1.51-4.13,8.55C915.82,1123.76,915.68,1126.23,918.05,1125.94z" fill="inherit"/><path d="M886.48,446.43c68.1,3.01,123.22,30.78,164.2,84.18c20.26,26.4,33.85,57.03,36.2,90.62 c3.83,54.74-17.43,97.69-65.55,125.81c-20.48,11.97-42.35,20.21-66.58,19.96c-20.51-0.21-40.05-4.76-57.71-15.32 c-21.74-12.99-44.69-23.69-67.26-34.98c-22.61-11.31-38.63-27.85-49.18-50.31c-14.47-30.8-22.39-63.21-23.62-97.24 c-1.64-45.2,32.65-109.48,99.95-120.07c6.58-1.03,13.11-2.34,19.78-2.64C880.19,446.3,883.69,446.43,886.48,446.43z M772.9,568.98 c-0.21,9.87,1.26,19.52,3.03,29.16c4.52,24.6,11.04,48.54,23.82,70.32c6.53,11.13,13.99,21.54,25.88,27.65 c14.34,7.37,28.03,15.97,42.91,22.3c14.88,6.34,28.15,15.74,42.69,22.76c16.88,8.14,34.93,12.05,53.24,9.46 c31.13-4.41,58.07-18.1,79.28-41.88c23.96-26.85,31.43-59,26.68-93.56c-3.42-24.87-14.58-47.59-27.81-68.88 c-10-16.09-23.75-28.93-38.51-40.71c-20.23-16.14-42.19-28.79-67.49-35.21c-23.54-5.98-47.08-10.49-71.61-6.49 c-25.58,4.18-47.72,13.83-64.85,34.23C782.8,518.79,773.16,541.98,772.9,568.98z" fill="inherit"/><path d="M378.9,782.1c0.1-47.92,12.4-89.55,38.61-126.8c16.85-23.95,37.48-43.62,64.42-56.09 c42.08-19.49,99.47-9.47,133.18,25.13c29.08,29.84,49.16,65.26,58.32,106.3c3.18,14.23,2.33,28.34-1.85,42.42 c-8.36,28.2-18.58,55.79-27.18,83.93c-12.82,41.97-42.67,66.75-83.91,79.58c-67.07,20.86-124.48-10.1-152.52-56.65 C389.64,849.47,377.86,816.12,378.9,782.1z M394.91,783.26c-0.86,16.58,3.96,35.85,10.9,54.94c9.75,26.83,23.46,50.46,47.23,67.46 c16.77,11.99,35.13,19.59,55.58,21.2c21.73,1.71,42.44-2.89,62.61-11.27c29.09-12.08,48.6-32.91,57.72-62.68 c8.32-27.15,18.19-53.78,26.24-81c1.46-4.93,3.33-9.8,3.73-14.93c1.06-13.58-0.89-26.81-5.3-39.71 c-8.15-23.82-20.54-45.35-35.42-65.51c-10.07-13.65-21.96-25.38-37.22-33.24c-19.14-9.86-39.34-14.08-60.96-12.69 c-12.22,0.78-23.51,3.85-34.29,9.32c-17.86,9.06-33.11,21.12-45.66,36.97c-13.02,16.44-24.06,34-31.85,53.32 C398.72,729.04,394.87,753.93,394.91,783.26z" fill="inherit"/><path d="M807.14,778.84c5.09,0.23,9.07-0.04,13.04,0.8c10.7,2.28,16.48,8.94,16.66,19.85 c0.15,9.07-2.97,16.92-9.37,23.45c-6.63,6.77-14.54,11.56-23.11,15.43c-6.97,3.14-6.94,3.22-4,10.47c1,2.46,1.97,4.94,3,7.39 c5.44,12.9,16.63,18.86,30.12,15.69c9.35-2.2,17.94-6.15,25.01-12.86c7.44-7.06,8.67-14.9,3.8-23.95 c-2.64-4.91-6.24-8.99-10.86-12.18c-4.75-3.27-6.03-7.53-3.57-11.43c2.54-4.04,7.48-5.01,12.31-1.71 c20.06,13.73,33.15,44.04,3.8,65.19c-12.95,9.33-27.27,15.34-43.82,13.09c-5.34-0.73-10.37-2.71-14.79-5.71 c-3.18-2.16-4.04-1.48-5.09,1.93c-8.89,29.04-36.57,37.71-59.07,35.21c-15.85-1.76-27.03-14.64-29.23-31.05 c-0.75-5.64-1.09-11.27,0-16.91c1.1-5.71,4.82-9.05,9.36-8.35c4.91,0.76,7.38,5.06,6.2,11.12c-0.98,5.03-0.5,9.98,0.76,14.84 c2.67,10.31,9.24,15.55,20.02,14.93c20.99-1.22,31.32-8.76,36.88-24.22c4.04-11.23-1.75-19.98-6.78-28.96 c-1.2-2.14-2.96-0.56-4.39-0.01c-7.8,3.02-15.77,5.18-24.16,5.76c-11.09,0.77-20.77-2.09-28.44-10.46 c-7.29-7.95-7.85-17.17-1.41-25.86c5.31-7.16,11.79-13.23,19.23-18.04c17.78-11.51,37.08-19.35,58.06-22.73 C800.88,778.97,804.58,779.01,807.14,778.84z M807,795c-3.26,0.35-7.03-0.17-10.88,0.71c-11.22,2.57-22.08,6.2-32.44,11.1 c-11.13,5.26-21.83,11.33-29.51,21.43c-3.41,4.49-2.76,6.86,2.12,9.95c6.74,4.27,13.83,3.05,20.74,1.24 c16.3-4.26,31.6-11.2,46.75-18.43c5.27-2.52,9.73-6.39,13.55-10.85c3.09-3.61,4.92-8.03,3.11-12.44c-1.6-3.9-6.04-2.51-9.42-2.7 C809.87,794.94,808.7,795,807,795z" fill="inherit"/><path d="M921.35,714.25c-19.43-1.49-36.78-7.39-51.98-20.12c-25.37-21.26-40.22-48.8-48.66-80.01 c-7.42-27.42-3.78-53.92,12.47-77.48c11.9-17.26,29.23-27.14,50.04-30.61c33.86-5.64,62.67,6.6,88.94,26.11 c12.06,8.96,20.7,21.39,28.16,34.53c8.98,15.83,14.46,32.77,16.39,50.76c1.38,12.81-1.73,25.13-6.53,36.91 c-8.5,20.88-24.23,35.37-42.93,46.98C953.21,710.05,937.5,713,921.35,714.25z M924.27,675.18c2.99-0.14,6.13,0.29,8.94-0.5 c19.58-5.52,37.91-20.39,36.89-46.84c-0.16-4.21-1.61-5.98-5.43-6.72c-13.64-2.65-27.24-5.45-40.88-8.11 c-11.44-2.23-14.65-8.28-9.43-18.61c3.9-7.71,7.99-15.33,12.33-22.79c8.43-14.48,8.66-14.94-3.38-25.59 c-6.64-5.87-14.27-10.71-23.51-10.88c-14.45-0.26-25.9,6.56-33.71,18.09c-10.89,16.1-11.06,34.51-7.49,52.78 c4.24,21.7,15.49,39.93,31.74,54.62C899.72,669.09,910.51,676.04,924.27,675.18z M871.64,526.31c-2.28-0.13-3.85,1.25-5.53,2.17 c-26.16,14.37-34.9,38.49-32.31,65.83c3.51,36.92,20.57,67.82,50.1,91.03c10.65,8.37,23.24,12.8,36.68,12.49 c33.95-0.8,58.13-17.91,73.88-47.22c5.58-10.38,7.94-22.1,6.07-33.92c-7.1-44.81-30.58-76.53-74.44-91.55 c-2.09-0.72-4.17-1.7-6.86-0.6c11.13,5.13,19.17,13.39,26.94,22.14c5.15,5.8,6.05,11.12,2.05,17.98 c-5.61,9.62-10.36,19.74-15.8,29.47c-1.98,3.54-0.91,4.26,2.49,4.91c13.22,2.53,26.4,5.31,39.61,7.96 c4.31,0.87,8.07,2.51,9.31,7.18c2.07,7.79,3.09,15.77,1.97,23.76c-5.81,41.71-54.82,68.64-93.37,44 c-21.22-13.56-35.01-32.95-44.38-55.72c-8.23-20-9.06-40.67-4.15-61.73C847.77,547.81,857.92,535.92,871.64,526.31z" fill="inherit"/><path d="M623.96,780c0.26,9.81,0.41,19.64-2.18,29.2c-5.91,21.78-19.11,37.84-38.51,49.23 c-19.63,11.53-41.12,14.53-63.03,12.29c-29.26-2.99-51.02-18.68-65.38-44.25c-11.93-21.24-18.13-44.17-17.74-68.6 c0.24-14.96,4.82-29.08,10.5-42.75c5.84-14.07,13.68-26.91,25.12-37.3c13-11.8,27.9-19.32,45.45-21.87 c23.6-3.43,43.39,4.92,61.24,19.12c24.55,19.52,35.33,46.92,42.56,76.21C624.33,760.73,624.21,770.36,623.96,780z M492.59,682.31 c-5.54,3.75-11.23,7.33-14.58,13.45c-2.07,2.6-4.39,5.04-6.19,7.82c-24.68,38.31-25.33,79.45,0.63,121.11 c9.34,14.99,23.13,24.1,40.06,28.55c12.15,3.2,24.53,2.91,36.67,0.62c25.38-4.79,45.07-17.47,55.18-42.35 c1.41-3.47,2.9-6.99,2.42-11.98c-1.07,2.76-1.87,4.54-2.47,6.38c-10.48,32.16-57.92,56.61-95.22,27.45 c-15.29-11.95-25.78-27.26-33.34-44.75c-13.41-31.02-13.41-61.64,3.7-91.49c4.17-5.04,8.75-9.66,13.81-13.81 c0.88-0.47,2.56-0.74,1.59-2.09C494.31,680.46,493.25,681.66,492.59,682.31z M533.9,672.86c5.51,0.83,10.49,3.03,15.28,5.79 c11.39,6.56,19.71,16.11,27.05,26.81c3.6,5.24,3.9,9.81,0.34,15.09c-6.31,9.38-12.17,19.07-18.53,28.41 c-2.46,3.61-2.71,5.03,2.15,6.33c12.51,3.32,24.84,7.29,37.28,10.9c5.61,1.62,9.65,4.46,9.78,10.91 c-0.42,3.82,0.98,7.4,1.37,12.02c-0.15-4.65,0.83-8.41-0.08-12.12c-0.22-28.44-9.28-54.09-26.18-76.58 c-11.96-15.92-28.23-26.12-48.4-29.11c-13.81-1.6-26.31,1.96-37.84,9.35C507.91,674.25,520.43,671.31,533.9,672.86z M481.94,745.57c-0.5,5.08,0.46,10.06,1.49,14.86c4.64,21.58,13.98,40.68,30.38,55.98c10.3,9.62,21.84,15.01,36.35,13.71 c21.16-1.89,42.65-20.65,41.91-44.69c-0.1-3.15-0.93-4.61-4.18-5.53c-14.2-4.01-28.34-8.25-42.42-12.68 c-9.54-2.99-11.79-9.32-6.52-17.58c7.05-11.06,14.12-22.11,21.37-33.04c1.53-2.3,1.82-3.88,0.02-6.13 c-3.1-3.89-6.05-7.9-9.68-11.34c-19.36-18.39-41.86-11.97-56.15,4.85C484.39,715.92,483.32,730.87,481.94,745.57z M607.48,792.08 l0.05-0.37l0.07,0.37L607.48,792.08z" fill="inherit"/></g><g fill="#543D3B" id="change3_1"><path d="M914.48,944.89c19.18,0.09,35.17,1.51,51.1,3.92c4.24,0.64,8.66,0.39,12.98,0.15 c34.83-1.93,68.81,2.71,102.38,12c10.43,2.88,21.52,3.4,32.3,5.01c19.2,2.85,38.13,6.8,56.66,12.78 c12.66,4.09,25.36,8.04,37.42,13.61c11.5,5.31,21.77,12.61,31.45,20.85c15.26,13,27.68,28.21,36.65,46.08 c7.85,15.64,13.58,32.07,16.53,49.4c1.71,10.03,2.35,20.11,1.97,30.26c-0.93,25.19-8.34,48.11-23.01,68.84 c-8.16,11.52-18.32,20.46-30.19,27.67c-10,6.08-21.29,8.36-32.72,9.42c-19.59,1.81-38.39-1.9-56.39-9.63 c-17.46-7.49-34.47-15.89-49.21-28.09c-11.11-9.2-21.94-18.73-31.56-29.6c-7.16-8.09-14.87-15.69-22.34-23.51 c-2.37-2.48-5.4-3.07-8.65-3.07c-6.5,0.01-13.01,0.28-19.49-0.03c-28.01-1.34-49.89-13.4-64.66-37.57 c-2.77-4.54-5.09-9.36-8.02-13.79c-2.87-4.33-6.69-6.11-12.38-5.01c-12.98,2.5-26,4.92-39.3,5.49 c-11.86,0.51-19.74-5.91-25.27-14.95c-12.17-19.89-5.08-43.29,15.69-55.43c10.42-6.09,21.95-8.25,33.45-10.71 c4.67-1,7.62-4.65,6.95-8.82c-0.61-3.81-5.33-7.79-9.09-7.03c-16.14,3.26-32.21,6.76-45.89,16.86c-2.4,1.78-4.17,5.83-6.77,5.37 c-3.32-0.59-6.3-3.42-9.29-5.47c-15.44-10.58-14.84-19.43-13.31-35.68c1.82-19.34,15.72-27.35,32.08-32.48 C888.52,947.35,902.63,943.46,914.48,944.89z" fill="inherit"/><path d="M492.99,1211.39c-1.46-30.01,5.83-58.28,17.3-85.65c2.26-5.39,6.77-9.4,10.44-13.86 c18.8-22.87,43.02-38.81,68.54-53c28.81-16.02,59.7-26.6,91.63-34.28c15.28-3.68,30.76-6.17,46.46-7.81 c21.25-2.21,42.51-1.98,63.76-1.61c11.21,0.2,22.31,2.77,33.48,3.96c6.89,0.73,11.54,3.86,15.82,8.73 c3.2,3.63,7.48,6.02,11.47,8.72c1.68,1.13,3.95,1.98,2.34,5.01c-1.34,2.53-2.43,3.74-5.72,2.91c-4.13-1.05-8.52-1.42-12.8-1.39 c-5.93,0.04-8.87,3.23-8.75,8.56c0.1,4.49,3.33,7.07,8.85,7.35c3.47,0.18,6.91,0.8,10.38,0.95c3.12,0.13,2.83,2.22,2.77,4.2 c-0.31,9.7,1.77,18.84,6.73,27.19c8.22,13.82,19.36,23.52,36.25,24.58c1.97,0.12,3.07,0.89,3.82,2.56 c1.77,3.94,3.66,7.83,5.34,11.81c4.94,11.73-0.33,23.76-12.2,28.59c-9.81,3.99-19.95,5.57-30.17,2.87 c-8.65-2.28-14.9,1.04-20.61,6.64c-4.75,4.66-9.85,8.89-14.96,13.14c-11.63,9.67-25.69,12.1-39.95,13.25 c-9.78,0.79-16.38,3.47-21.63,13.14c-14.57,26.84-30.38,53.13-49.5,77.04c-14.81,18.52-34.44,30.81-56.71,39.09 c-21.37,7.95-43.41,11.12-66.01,9.76c-20.9-1.25-40.52-6.91-57.19-20.39c-4.77-3.85-7.4-9.36-10.65-14.35 c-7.44-11.42-14.49-23.04-19.91-35.63c-6.21-14.44-8.82-29.47-8.64-45.08C493.02,1216.05,492.99,1213.72,492.99,1211.39z" fill="inherit"/><path d="M24.99,527.67c0.18-30.61,6.5-56.34,18.18-80.79c6.64-13.9,14.49-27.03,23.77-39.43 c22.51-30.09,51.59-50.98,86.84-63.37c16.55-5.82,33.81-8.88,51.33-7.86c28.16,1.65,55.1,8.36,79.44,23.22 c9.35,5.71,17.47,13.17,25.74,20.34c7.01,6.07,12.67,13.54,20.1,19.19c5.15,3.92,7.48,10.56,13.16,14.06 c1.55,0.95,1.47,2.16,0.4,3.76c-8.38,12.57-16.7,25.19-24.91,37.88c-1.25,1.94-2.24,0.66-3.3,0.24 c-8.93-3.6-17.78-7.44-26.78-10.84c-12.16-4.59-24.81-8.15-37.77-7.76c-16.45,0.5-32.16,5.22-46.25,13.92 c-23.38,14.45-40.66,34.05-48.96,60.75c-4.42,14.22-7.14,28.79-5.78,43.66c2.03,22.27,10.33,42.06,25.63,58.66 c14.07,15.26,31.75,24.99,50.57,32.98c5.35,2.27,10.57,4.94,16.06,6.8c3.96,1.34,5.03,3.56,4.65,7.4 c-1.42,14.26-0.8,28.58-1.1,42.87c-0.29,13.87,1.05,27.48,4.61,40.89c1.19,4.48,0.12,5.44-4.5,4.3 c-34.91-8.63-69.08-19.51-101.17-35.91c-10.86-5.55-20.57-13.24-30.12-21.05c-7.59-6.21-13.82-13.76-21.43-19.92 c-7.26-5.87-11.88-14.2-18.02-21.16c-9.25-10.48-17.16-22.05-24.1-34.09c-10.72-18.58-19.47-38.14-23.16-59.55 C26.25,546.06,24.79,535.22,24.99,527.67z" fill="inherit"/><path d="M1104.03,401.79c-7.59-15.85-18.09-29.37-30.91-40.7c-9.99-8.83-17.75-19.81-28.46-27.82 c-2.41-1.8-2.91-3.71-1.57-6.84c6.61-15.41,13.13-30.87,17-47.27c7.41-31.38,1.73-60.58-17.94-85.68 c-16.72-21.33-39.4-35.27-66.44-40.26c-31.2-5.76-60.01,0.61-85.56,19.83c-9.01,6.78-15.3,15.97-21.01,25.58 c-6.48,10.92-11.23,22.6-15.63,34.44c-0.82,2.19-1.48,3-4.23,2.39c-12.44-2.74-24.72-6.67-37.42-7.67 c-7.03-0.55-7.83-2.92-8.22-9.42c-1.58-26.32-0.72-52.34,5.29-78.09c2.02-8.66,6.27-16.42,9.84-24.44 c5.41-12.17,13.48-22.74,20.92-33.64c4.93-7.24,12.03-12.59,18.61-18.34c22.21-19.4,48.49-30.14,77.04-35.58 c28.78-5.48,57.33-3.47,85.58,4.24c24.28,6.62,46.94,16.67,67.38,31.39c6.44,4.64,12.14,10.31,18.1,15.55 c7.72,6.79,13.88,14.79,19.57,22.85c11.31,16.03,19.57,33.81,25.06,52.84c4.8,16.61,8.13,33.49,9.7,50.64 c1.66,18.03,1.31,36.1,0.47,54.24c-1.43,31.02-12.8,58.76-25.83,86.14C1126.28,365.29,1115.56,383.52,1104.03,401.79z" fill="inherit"/><path d="M537.12,1605.92c6.11,5,12.2,10.04,18.35,14.99c17.9,14.4,37.72,25.28,59.32,33.13 c37.5,13.64,75.95,23.84,115.05,31.51c14.59,2.86,29.45,4.39,44.32,5.4c11.23,0.76,22.42,1.96,33.65,2.68 c1.88,0.12,2.36,0.39,2.07,2.08c-2.44,14.21,0.11,28.05,3.08,41.85c2.93,13.62,6.27,27.13,10.53,40.42 c2.97,9.26,7.92,17.34,13.72,25.05c10.23,13.57,7.74,27.98,2.48,42.54c-7.43,20.58-24.54,27.48-43.91,31.34 c-14.49,2.89-29.17,3.84-43.84,5.23c-26.16,2.47-51.27-0.73-75.75-10.04c-21.44-8.16-40.3-19.92-55.48-37.49 c-15.03-17.4-25.11-37.59-34.54-58.24c-10.51-22.99-19.9-46.44-27.6-70.51c-7.83-24.49-13.16-49.62-17.62-74.93 c-1.43-8.12-3.13-16.19-4.71-24.29C536.53,1606.4,536.82,1606.16,537.12,1605.92z" fill="inherit"/><path d="M1223.75,1604.51c-1.34,16.75-2.24,32.44-3.92,48.04c-3.65,33.82-9.14,67.26-20.97,99.4 c-9.5,25.8-20.09,51.08-35.29,74.07c-14.89,22.51-35.53,38.16-60.72,47.78c-17.88,6.83-36.33,11.65-55.32,13.86 c-15.16,1.77-30.37,1.56-45.64-0.41c-17.3-2.23-33.82-6.38-49.35-14.46c-11.11-5.78-15.81-15.44-17.6-27.15 c-2.01-13.17,3.55-23.66,11.89-32.99c13.32-14.91,19-33.07,23.15-52.05c4.31-19.73,8.28-39.51,11.43-59.46 c0.24-1.51,0.38-2.84,0.04-4.37c-1.27-5.68-0.12-7.08,5.67-7.85c32.83-4.36,65.42-10.24,97.51-18.32 c29.13-7.34,58.12-15.48,84.98-29.56c18.43-9.66,36.54-19.77,51.41-34.71C1221.56,1605.81,1222.3,1605.48,1223.75,1604.51z" fill="inherit"/><path d="M918.05,1125.94c-2.36,0.3-2.22-2.18-2.89-3.64c-3.24-7.04-3.19-7.09,4.13-8.55 c4.51-0.9,9.03-1.74,13.55-2.54c2.18-0.39,8.3,6.64,7.74,8.77c-0.21,0.81-0.87,0.94-1.48,1.09 C932.21,1122.67,925.32,1124.25,918.05,1125.94z" fill="inherit"/><path d="M772.9,568.98c0.26-27,9.91-50.2,27.25-70.85c17.13-20.4,39.28-30.06,64.85-34.23 c24.53-4.01,48.08,0.51,71.61,6.49c25.29,6.42,47.26,19.07,67.49,35.21c14.77,11.78,28.51,24.62,38.51,40.71 c13.23,21.29,24.39,44,27.81,68.88c4.75,34.56-2.72,66.71-26.68,93.56c-21.21,23.77-48.15,37.47-79.28,41.88 c-18.31,2.59-36.36-1.31-53.24-9.46c-14.54-7.01-27.81-16.42-42.69-22.76c-14.88-6.34-28.57-14.93-42.91-22.3 c-11.88-6.11-19.35-16.52-25.88-27.65c-12.78-21.78-19.29-45.72-23.82-70.32C774.15,588.51,772.69,578.85,772.9,568.98z M921.35,714.25c16.14-1.25,31.86-4.2,45.92-12.93c18.7-11.62,34.42-26.1,42.93-46.98c4.8-11.78,7.9-24.1,6.53-36.91 c-1.94-17.99-7.41-34.93-16.39-50.76c-7.46-13.15-16.09-25.58-28.16-34.53c-26.27-19.51-55.08-31.75-88.94-26.11 c-20.82,3.47-38.14,13.36-50.04,30.61c-16.25,23.56-19.9,50.06-12.47,77.48c8.45,31.21,23.29,58.75,48.66,80.01 C884.57,706.87,901.92,712.77,921.35,714.25z" fill="inherit"/><path d="M394.91,783.26c-0.04-29.33,3.81-54.22,13.33-77.82c7.79-19.32,18.83-36.88,31.85-53.32 c12.56-15.85,27.81-27.91,45.66-36.97c10.78-5.47,22.06-8.53,34.29-9.32c21.62-1.38,41.82,2.83,60.96,12.69 c15.26,7.86,27.14,19.59,37.22,33.24c14.88,20.16,27.27,41.69,35.42,65.51c4.41,12.9,6.36,26.12,5.3,39.71 c-0.4,5.13-2.27,9.99-3.73,14.93c-8.06,27.22-17.93,53.85-26.24,81c-9.12,29.77-28.63,50.6-57.72,62.68 c-20.17,8.38-40.89,12.97-62.61,11.27c-20.45-1.61-38.81-9.21-55.58-21.2c-23.78-17-37.48-40.63-47.23-67.46 C398.88,819.11,394.05,799.84,394.91,783.26z M623.96,780c0.25-9.64,0.37-19.27-1.97-28.73c-7.23-29.29-18.01-56.7-42.56-76.21 c-17.85-14.19-37.64-22.55-61.24-19.12c-17.55,2.55-32.45,10.07-45.45,21.87c-11.44,10.39-19.28,23.23-25.12,37.3 c-5.67,13.67-10.26,27.79-10.5,42.75c-0.39,24.43,5.81,47.36,17.74,68.6c14.36,25.57,36.12,41.26,65.38,44.25 c21.91,2.24,43.4-0.76,63.03-12.29c19.39-11.39,32.59-27.44,38.51-49.23C624.37,799.64,624.22,789.8,623.96,780z" fill="inherit"/><path d="M807,795c1.7,0,2.86-0.06,4.03,0.01c3.38,0.2,7.81-1.2,9.42,2.7c1.81,4.41-0.03,8.83-3.11,12.44 c-3.82,4.47-8.28,8.33-13.55,10.85c-15.14,7.23-30.45,14.17-46.75,18.43c-6.91,1.8-14,3.03-20.74-1.24 c-4.88-3.09-5.53-5.47-2.12-9.95c7.68-10.1,18.38-16.17,29.51-21.43c10.36-4.9,21.22-8.53,32.44-11.1 C799.97,794.83,803.74,795.35,807,795z" fill="inherit"/><path d="M924.27,675.18c-13.77,0.87-24.56-6.09-33.93-14.55c-16.25-14.68-27.5-32.92-31.74-54.62 c-3.57-18.27-3.4-36.68,7.49-52.78c7.8-11.53,19.26-18.35,33.71-18.09c9.23,0.17,16.87,5.01,23.51,10.88 c12.04,10.65,11.81,11.1,3.38,25.59c-4.34,7.46-8.44,15.08-12.33,22.79c-5.22,10.33-2.01,16.38,9.43,18.61 c13.64,2.66,27.24,5.46,40.88,8.11c3.83,0.74,5.27,2.51,5.43,6.72c1.02,26.45-17.3,41.32-36.89,46.84 C930.41,675.47,927.26,675.04,924.27,675.18z" fill="inherit"/><path d="M481.94,745.57c1.37-14.7,2.45-29.65,12.58-41.57c14.28-16.82,36.79-23.24,56.15-4.85 c3.63,3.45,6.57,7.45,9.68,11.34c1.79,2.25,1.51,3.82-0.02,6.13c-7.25,10.93-14.32,21.98-21.37,33.04 c-5.27,8.26-3.02,14.58,6.52,17.58c14.08,4.42,28.22,8.66,42.42,12.68c3.25,0.92,4.08,2.37,4.18,5.53 c0.74,24.04-20.75,42.8-41.91,44.69c-14.51,1.29-26.05-4.1-36.35-13.71c-16.4-15.31-25.74-34.41-30.38-55.98 C482.4,755.63,481.45,750.65,481.94,745.57z" fill="inherit"/></g><g fill="#FEF5EA" id="change4_1"><path d="M1193.85,719.86c3.5,51.06-5.06,98.78-37.64,140.27c-16.67,21.23-33.49,42.32-51.02,62.84 c-6.53,7.64-14.71,13.51-21.23,21.1c-1.6,1.87-3.33,0.64-5.03,0.22c-18.58-4.54-37.12-9.2-56.27-10.79 c-8.32-0.69-16.68-1.06-24.96-0.6c-21.4,1.2-42.55-1.59-63.76-3.4c-23.89-2.04-47.1,0.29-69.65,9.03 c-23.77,9.21-38.73,22.21-38.47,58.42c0.05,6.63,0.2,6.58-6.43,5.44c-22.62-3.9-45.44-3.91-68.26-3.19 c-56.06,1.77-109.2,15.69-159.32,40.44c-32.58,16.09-62.66,36.03-85.68,64.98c-1.14,1.44-2.05,2.12-4.11,1.19 c-27.9-12.69-54.49-27.39-76.12-49.62c-6.36-6.54-12.27-13.51-18.34-20.32c-0.39-0.43-0.39-1.21-0.58-1.83 c4.85,2.35,8.35,6.75,13.96,8.12c8.96,2.19,17.8,2.06,26.72,0.38c25.17-4.75,47.12-16.15,66.07-33.14 c9.86-8.84,18.34-18.93,20.86-32.64c1.67-9.1-1.82-15.94-10.09-20.11c-9.07-4.58-18.83-4.77-28.36-3.22 c-30.2,4.92-56.1,18.45-76.92,40.99c-10.26,11.11-17.72,23.5-12.2,39.67c-6.45-6.57-11.2-14.39-15.92-22.19 c-16.31-26.97-29.2-55.71-42.88-84.03c-25.26-52.32-47.43-106.03-71.58-158.84c-10.83-23.69-15.13-47.82-14.87-73.5 c0.47-46.06,5.06-91.38,21.35-134.87c12.64-33.75,28.78-65.65,47.99-96.25c32.35-51.55,71.64-97.28,113.83-140.76 c10.79-11.12,21.66-22.15,32.91-32.83c19.08-18.1,41.14-31.58,64.95-42.38c3.19-1.45,6.49-2.46,10.16-1.66 c2.08,0.45,3.02,1.11,2.12,3.27c-0.25,0.61-0.39,1.27-0.55,1.92c-1.48,6.05,0.19,11.18,4.62,14.21c4.36,2.99,9.99,2.76,14.91-0.88 c6.99-5.17,14.2-9.91,22.42-12.9c8.41-3.07,12.36-1.87,17.73,5.28c5.94,7.91,10.78,9.61,20.38,6.82 c18.85-5.48,37.42-11.92,56.69-15.9c18.44-3.81,36.95-7.48,55.68-9.09c18.78-1.61,37.7,0.01,56.29,2.89 c55.32,8.59,107.68,26.7,157.83,51.26c38.23,18.73,69.42,46.75,99.22,76.56c14.4,14.4,27.21,29.98,34.8,48.92 c5.74,14.33,10.75,28.98,16.29,43.42c24.11,62.92,47.58,126.08,67.96,190.33c5.43,17.13,10.74,34.31,12.65,52.31 c-7.12-9.33-17.39-12.91-28.28-13.85c-32.58-2.8-62.33,5.62-88.97,24.56c-7.95,5.65-14.7,12.63-17.91,22.18 c-2.47,7.37-1.46,14.18,4.67,19.54c4.05,3.54,8.71,6.01,13.95,7.49c16.31,4.61,32.7,3.82,48.85-0.16 C1152.58,757.99,1179.16,747.99,1193.85,719.86z M886.48,446.43c-2.79,0-6.29-0.13-9.78,0.03c-6.66,0.3-13.2,1.6-19.78,2.64 c-67.3,10.58-101.58,74.87-99.95,120.07c1.23,34.03,9.15,66.44,23.62,97.24c10.55,22.46,26.57,39,49.18,50.31 c22.58,11.29,45.52,21.99,67.26,34.98c17.66,10.56,37.2,15.11,57.71,15.32c24.23,0.25,46.1-7.99,66.58-19.96 c48.11-28.12,69.37-71.07,65.55-125.81c-2.35-33.59-15.94-64.23-36.2-90.62C1009.7,477.21,954.58,449.44,886.48,446.43z M378.9,782.1c-1.04,34.03,10.74,67.37,29.07,97.82c28.03,46.55,85.44,77.51,152.52,56.65c41.24-12.82,71.08-37.61,83.91-79.58 c8.6-28.14,18.82-55.73,27.18-83.93c4.17-14.08,5.02-28.19,1.85-42.42c-9.16-41.04-29.24-76.46-58.32-106.3 c-33.71-34.6-91.09-44.62-133.18-25.13c-26.94,12.47-47.57,32.14-64.42,56.09C391.31,692.55,379,734.18,378.9,782.1z M807.14,778.84c-2.56,0.17-6.26,0.13-9.85,0.71c-20.98,3.39-40.28,11.22-58.06,22.73c-7.44,4.81-13.92,10.88-19.23,18.04 c-6.44,8.69-5.87,17.91,1.41,25.86c7.67,8.37,17.35,11.23,28.44,10.46c8.4-0.59,16.37-2.74,24.16-5.76 c1.43-0.55,3.19-2.13,4.39,0.01c5.03,8.97,10.82,17.73,6.78,28.96c-5.56,15.46-15.9,23-36.88,24.22 c-10.78,0.63-17.35-4.62-20.02-14.93c-1.26-4.86-1.74-9.81-0.76-14.84c1.18-6.06-1.28-10.36-6.2-11.12 c-4.54-0.7-8.26,2.64-9.36,8.35c-1.09,5.64-0.76,11.28,0,16.91c2.2,16.41,13.38,29.3,29.23,31.05 c22.51,2.5,50.19-6.17,59.07-35.21c1.05-3.41,1.91-4.09,5.09-1.93c4.42,3,9.45,4.98,14.79,5.71c16.55,2.25,30.86-3.75,43.82-13.09 c29.35-21.15,16.26-51.46-3.8-65.19c-4.82-3.3-9.77-2.33-12.31,1.71c-2.45,3.9-1.18,8.16,3.57,11.43 c4.63,3.18,8.22,7.26,10.86,12.18c4.87,9.05,3.64,16.89-3.8,23.95c-7.07,6.71-15.66,10.66-25.01,12.86 c-13.5,3.17-24.69-2.79-30.12-15.69c-1.03-2.45-2.01-4.92-3-7.39c-2.94-7.25-2.97-7.33,4-10.47c8.57-3.86,16.48-8.66,23.11-15.43 c6.4-6.53,9.52-14.38,9.37-23.45c-0.18-10.92-5.96-17.57-16.66-19.85C816.21,778.79,812.23,779.07,807.14,778.84z" fill="inherit"/><path d="M946.17,1181.12c-7.11-13.02-13.94-25.55-20.83-38.05c-1.15-2.09-0.09-2.59,1.63-2.97 c7.3-1.61,14.61-3.23,21.9-4.9c1.62-0.37,2.77,0,3.97,1.24c21.36,22.2,47.55,32.34,78.21,30.56c5.77-0.33,9.43,1.48,13.2,5.69 c14.1,15.79,28.72,31.17,45.23,44.46c27.55,22.18,58.52,37.29,93.63,43.25c5.61,0.95,11.28,0.98,16.94,0.77 c1.91-0.07,2.87,0.25,3.43,2.41c8.55,32.85,18.18,65.44,25.66,98.52c14.8,65.39,17.78,131.22,3.65,197.26 c-0.67,3.12-1.94,5.96-3.46,8.77c-11.82,21.94-29.46,37.71-50.84,50.18c-33.8,19.71-70.71,30.53-108.33,39.39 c-31.26,7.36-62.88,13.15-94.77,16.79c-15.81,1.8-31.94,0.71-47.92,1.14c-27.65,0.75-55.29,2.07-82.94,2.43 c-57.39,0.76-113.93-5.53-169.22-21.57c-20.28-5.88-40.53-11.78-60.24-19.42c-28.13-10.91-52.3-27.65-72.9-49.56 c-14.58-15.51-21.78-34.73-26.87-54.99c-10.53-41.98-13.63-84.48-8.22-127.41c3.15-25.05,11.58-48.84,19.64-72.65 c0.62-1.83,1.19-2.52,3.05-1.29c26.35,17.46,55.75,20.65,86.23,17.87c34.9-3.19,66.17-15.44,93.11-38.25 c10.03-8.49,17.99-18.7,25.47-29.36c14.93-21.27,28.43-43.46,41.4-65.96c1.49-2.58,2.91-4.36,6.37-4.54 c24.14-1.28,45.58-9.03,62.53-27.01c2.34-2.48,3.93-3.74,6.54,0.09c2.3,3.37,5.92,5.78,8.19,9.35c1.41,2.21,1.51,4.03,0.42,6.45 c-4.02,8.94-7.83,17.98-11.64,27.02c-2.33,5.52-2.82,11.17-1.45,17.1c2.49,10.82,9.46,17.75,20.47,18.94 c27.09,2.95,54.24,2.65,81.31-0.13c17.72-1.82,26.71-18.89,19.79-36.84c-2.68-6.96-5.91-13.79-9.66-20.23 c-4.06-6.97-3.03-13.69-0.58-20.54c1.17-3.27,3.15-6.24,4.49-9.46c1.44-3.45,1.07-6.76-2.58-8.57c-3.61-1.79-6.53-0.28-8.4,3.04 C949.89,1173.49,948.27,1176.97,946.17,1181.12z" fill="inherit"/><path d="M871.64,526.31c-13.72,9.61-23.86,21.5-27.75,38.18c-4.91,21.06-4.07,41.73,4.15,61.73 c9.37,22.78,23.16,42.16,44.38,55.72c38.55,24.64,87.56-2.3,93.37-44c1.11-7.99,0.09-15.97-1.97-23.76 c-1.24-4.67-4.99-6.32-9.31-7.18c-13.2-2.65-26.38-5.43-39.61-7.96c-3.39-0.65-4.47-1.37-2.49-4.91 c5.44-9.72,10.19-19.85,15.8-29.47c4-6.85,3.1-12.18-2.05-17.98c-7.78-8.75-15.82-17.02-26.94-22.14c2.7-1.1,4.77-0.11,6.86,0.6 c43.86,15.03,67.34,46.74,74.44,91.55c1.87,11.82-0.49,23.54-6.07,33.92c-15.76,29.3-39.94,46.42-73.88,47.22 c-13.44,0.32-26.03-4.12-36.68-12.49c-29.53-23.21-46.59-54.11-50.1-91.03c-2.6-27.34,6.15-51.47,32.31-65.83 C867.78,527.56,869.35,526.18,871.64,526.31z" fill="inherit"/><path d="M479.44,697.12c-17.1,29.86-17.11,60.47-3.7,91.49c7.56,17.49,18.06,32.8,33.34,44.75 c37.3,29.16,84.75,4.7,95.22-27.45c0.6-1.84,1.39-3.62,2.47-6.38c0.49,5-1.01,8.52-2.42,11.98 c-10.11,24.88-29.8,37.56-55.18,42.35c-12.15,2.29-24.53,2.57-36.67-0.62c-16.93-4.46-30.72-13.56-40.06-28.55 c-25.96-41.65-25.3-82.79-0.63-121.11c1.79-2.78,4.11-5.22,6.18-7.82C478.48,696.21,478.96,696.66,479.44,697.12z" fill="inherit"/><path d="M533.95,671.29c20.17,3,36.44,13.19,48.4,29.11c16.9,22.49,25.97,48.14,26.18,76.58 c-0.43,0.03-0.86,0.07-1.29,0.11c-0.12-6.45-4.17-9.28-9.78-10.91c-12.44-3.6-24.77-7.58-37.28-10.9 c-4.87-1.29-4.61-2.71-2.15-6.33c6.36-9.34,12.22-19.03,18.53-28.41c3.56-5.28,3.26-9.85-0.34-15.09 c-7.34-10.7-15.66-20.25-27.05-26.81c-4.79-2.76-9.77-4.96-15.28-5.79C533.92,672.34,533.94,671.82,533.95,671.29z" fill="inherit"/><path d="M533.95,671.29c-0.02,0.52-0.03,1.04-0.05,1.56c-13.48-1.55-25.99,1.39-37.79,7.79 C507.65,673.25,520.14,669.69,533.95,671.29z" fill="inherit"/><path d="M479.44,697.12c-0.48-0.45-0.96-0.9-1.44-1.36c3.35-6.12,9.04-9.7,14.58-13.45 c0.22,0.33,0.45,0.66,0.67,0.99C488.2,687.45,483.61,692.07,479.44,697.12z" fill="inherit"/><path d="M607.25,777.09c0.43-0.04,0.86-0.07,1.29-0.11c0.91,3.72-0.06,7.47,0.08,12.13 C608.23,784.49,606.83,780.91,607.25,777.09z" fill="inherit"/><path d="M492.59,682.31c0.67-0.64,1.72-1.85,2.26-1.1c0.97,1.35-0.71,1.62-1.59,2.09 C493.03,682.97,492.81,682.64,492.59,682.31z" fill="inherit"/></g><g fill="#FE7E7E" id="change5_1"><path d="M0.09,508.04c0.33,0.08,0.65,0.16,0.98,0.23c-0.01,10.51-0.02,21.03-0.03,31.55 c-0.33,0-0.65,0.07-0.95,0.22C0.09,529.38,0.09,518.71,0.09,508.04z" fill="inherit"/><path d="M1040.71,1912.94c0.08,0.32,0.16,0.65,0.23,0.97c-10.33,0-20.66,0-31,0c0.09-0.33,0.17-0.67,0.25-1 C1020.37,1912.91,1030.54,1912.93,1040.71,1912.94z" fill="inherit"/><path d="M982.95,0.1c-0.08,0.33-0.17,0.66-0.25,0.99c-9.17-0.01-18.35-0.02-27.52-0.03 c-0.08-0.32-0.15-0.64-0.23-0.96C964.29,0.1,973.62,0.1,982.95,0.1z" fill="inherit"/><path d="M165.99,547.96c0.15-43.27,26.55-80.06,65.63-92.26c16.02-5,31.47-3.47,46.97,1.6 c9.02,2.95,17.76,6.58,26.49,10.29c3.36,1.43,3.99,2.49,1.94,5.94c-21.77,36.65-38.71,75.39-49.5,116.71 c-3.83,14.66-6.26,29.58-8.17,44.6c-0.26,2.09-0.15,4.12-3.39,2.71c-17.99-7.84-36.19-15.18-51.43-28.15 C177.33,594.74,165.92,570.71,165.99,547.96z" fill="inherit"/><path d="M1047.13,256.82c0.16,17.15-7.18,35.56-14.63,53.93c-3.57,8.8-3.68,8.87-11.05,2.92 c-31.46-25.44-67.38-42.55-104.99-56.59c-14.96-5.58-29.93-11.09-45.25-15.62c-1.63-0.48-3.86-0.32-2.69-3.36 c6.01-15.56,12.23-31.08,22.99-44.06c12.88-15.53,30.41-22.98,49.86-25.72c36.08-5.08,65.28,8.24,88.57,35.29 C1040.74,216.16,1047.34,237.03,1047.13,256.82z" fill="inherit"/><path d="M1193.85,719.86c-14.68,28.13-41.27,38.13-69.56,45.1c-16.14,3.98-32.53,4.77-48.85,0.16 c-5.24-1.48-9.9-3.94-13.95-7.49c-6.13-5.36-7.15-12.17-4.67-19.54c3.21-9.55,9.96-16.53,17.91-22.18 c26.64-18.95,56.39-27.36,88.97-24.56c10.89,0.94,21.17,4.52,28.28,13.85C1194.5,709.84,1194.05,714.87,1193.85,719.86z" fill="inherit"/><path d="M407.01,1034.08c-5.52-16.16,1.94-28.56,12.2-39.67c20.82-22.54,46.72-36.07,76.92-40.99 c9.53-1.55,19.29-1.36,28.36,3.22c8.27,4.18,11.76,11.02,10.09,20.11c-2.52,13.7-11,23.8-20.86,32.64 c-18.96,16.98-40.9,28.39-66.07,33.14c-8.91,1.68-17.76,1.81-26.72-0.38c-5.61-1.37-9.11-5.78-13.96-8.12 C406.97,1034.03,407.01,1034.08,407.01,1034.08z" fill="inherit"/><path d="M607.48 792.08L607.61 792.08 607.54 791.71z" fill="inherit"/></g></g></svg>