<?xml version="1.0" encoding="UTF-8"?><svg xmlns="http://www.w3.org/2000/svg" xmlns:xlink="http://www.w3.org/1999/xlink" height="491.7" preserveAspectRatio="xMidYMid meet" version="1.0" viewBox="-0.7 -4.7 371.2 491.7" width="371.2" zoomAndPan="magnify"><defs><clipPath id="a"><path d="M 146 6 L 370.460938 6 L 370.460938 385 L 146 385 Z M 146 6"/></clipPath></defs><g><g id="change1_1"><path d="M 370.457031 32.902344 C 358.402344 38.765625 345.710938 43.300781 332.6875 46.460938 C 331.71875 49.945312 330.347656 53.308594 329.035156 57.269531 C 324.171875 71.921875 315.898438 85.988281 311.257812 100.871094 C 307.636719 112.480469 306.253906 124.601562 304.757812 136.703125 C 303.503906 146.808594 302.175781 156.898438 299.394531 166.664062 C 298.601562 169.457031 297.6875 172.199219 296.671875 174.894531 C 292.414062 186.203125 286.292969 196.65625 278.890625 206.261719 C 276.558594 209.28125 274.101562 212.21875 271.535156 215.070312 L 271.523438 215.085938 C 271.523438 215.085938 271.515625 215.09375 271.511719 215.097656 C 260.007812 227.871094 246.285156 238.945312 231.867188 248.261719 C 222.511719 254.304688 212.816406 259.746094 202.953125 264.894531 C 200.253906 266.464844 197.894531 267.6875 196.003906 268.464844 C 195.996094 268.46875 195.988281 268.472656 195.980469 268.476562 C 192.167969 270.402344 188.335938 272.296875 184.496094 274.175781 C 188.644531 278.199219 193.492188 281.304688 199.15625 283.121094 C 206.589844 285.507812 214.46875 285.851562 222.085938 287.347656 C 234.242188 289.734375 245.835938 296.03125 249.898438 308.386719 C 251.972656 314.695312 242.046875 317.371094 239.988281 311.117188 C 239.34375 309.164062 238.414062 307.488281 237.277344 306.035156 C 241.726562 315.003906 243.292969 325.660156 242.925781 335.363281 C 242.675781 341.96875 232.394531 341.980469 232.648438 335.363281 C 233.042969 324.96875 231.15625 312.320312 223.929688 304.226562 C 220.632812 300.535156 216.175781 298.375 211.4375 296.894531 C 212.898438 299.589844 214.015625 302.492188 214.722656 305.558594 C 216.210938 312.007812 206.300781 314.734375 204.8125 308.289062 C 203.261719 301.566406 199.410156 296.019531 193.488281 292.421875 C 192.949219 292.09375 192.539062 291.703125 192.1875 291.292969 C 185.609375 288.507812 179.730469 284.429688 174.804688 278.871094 C 169.769531 281.304688 164.734375 283.730469 159.714844 286.1875 C 167.113281 302.0625 176.566406 317.949219 193.542969 324.148438 C 201.671875 327.113281 210.328125 328.976562 217.800781 333.523438 C 221.496094 335.773438 225.058594 338.617188 227.207031 342.453125 C 229.371094 346.320312 229.757812 350.871094 231.4375 354.925781 C 233.976562 361.039062 224.027344 363.683594 221.527344 357.65625 C 219.308594 352.3125 219.449219 347.167969 214.34375 343.503906 C 210.8125 340.972656 206.679688 339.359375 202.609375 337.941406 C 200.621094 337.253906 198.601562 336.605469 196.585938 335.960938 C 208.160156 348.914062 220.738281 360.902344 222.152344 379.59375 C 222.652344 386.199219 212.367188 386.148438 211.875 379.59375 C 210.800781 365.410156 200.773438 354.722656 191.015625 344.390625 C 194.035156 354.101562 195.832031 364.074219 194.535156 374.421875 C 193.722656 380.90625 183.4375 380.964844 184.257812 374.421875 C 186.210938 358.847656 180.628906 344.4375 174.890625 330.246094 C 174.195312 328.527344 174.496094 327.101562 175.3125 326.042969 C 164.160156 317.40625 156.648438 303.867188 150.632812 290.910156 C 136.492188 298.316406 124.816406 304.621094 124.363281 304.863281 C 120.078125 307.390625 115.839844 310.019531 111.683594 312.761719 C 111.574219 312.835938 111.464844 312.90625 111.351562 312.980469 C 91.136719 326.363281 72.808594 342.460938 59.871094 362.582031 C 58.503906 364.710938 57.179688 366.871094 55.9375 369.089844 C 47.96875 383.316406 42.9375 398.957031 37.039062 414.15625 C 27.167969 439.589844 14.757812 464.027344 0.046875 487 C -0.664062 436.621094 29.917969 392.464844 48.660156 345.3125 C 48.335938 341.714844 50.21875 338.257812 52.09375 335.132812 C 52.398438 334.625 52.71875 334.128906 53.023438 333.625 C 53.578125 332.023438 54.113281 330.417969 54.632812 328.808594 C 54.878906 328.050781 55.097656 327.28125 55.335938 326.519531 L 55.136719 326.40625 C 55.304688 326.101562 55.484375 325.796875 55.652344 325.488281 C 57.148438 320.585938 58.507812 315.640625 59.785156 310.675781 C 58.289062 313.796875 56.816406 316.929688 55.394531 320.082031 L 54.90625 319.875 C 56.910156 314.910156 59.019531 309.988281 61.203125 305.097656 C 61.496094 303.921875 61.789062 302.746094 62.082031 301.570312 C 61.929688 301.515625 61.777344 301.464844 61.628906 301.382812 C 58.816406 299.867188 59.457031 295.710938 60.5 292.691406 C 71.628906 260.492188 83.324219 228.335938 99.410156 198.300781 C 115.5 168.269531 136.210938 140.261719 163.023438 119.238281 L 161.769531 122.410156 C 165.121094 118.492188 168.855469 114.910156 172.859375 111.664062 C 172.972656 111.476562 173.09375 111.289062 173.207031 111.101562 C 186.191406 89.277344 190.675781 63.253906 203.417969 41.289062 C 205.53125 37.644531 207.941406 34.132812 210.59375 30.792969 C 210.589844 30.761719 210.589844 30.730469 210.585938 30.699219 C 210.605469 30.707031 210.628906 30.714844 210.652344 30.722656 C 227.140625 9.980469 253.171875 -3.933594 278.882812 0.996094 C 294.933594 4.070312 310.398438 13.992188 325.992188 15.773438 C 338.402344 8.445312 353.214844 4.542969 367.128906 7.945312 C 347.34375 11.542969 335.195312 19.6875 320.074219 34.335938 C 337.808594 31.96875 352.652344 34.671875 370.457031 32.902344" fill="#fdf9fd"/></g><g id="change2_1"><path d="M 37.179688 388.511719 C 32.226562 398.464844 27.742188 408.632812 23.746094 418.980469 C 19.710938 429.320312 16.605469 439.960938 12.964844 450.410156 L 7.671875 466.1875 C 6.839844 468.835938 5.949219 471.476562 5.046875 474.117188 C 4.175781 476.769531 3.3125 479.425781 2.316406 482.0625 L 1.796875 481.957031 C 2.007812 479.148438 2.347656 476.359375 2.683594 473.566406 C 3.113281 470.792969 3.554688 468.019531 4.054688 465.253906 C 4.582031 462.492188 5.214844 459.757812 5.796875 457.007812 L 7.890625 448.84375 C 10.839844 437.980469 15.3125 427.617188 19.816406 417.351562 C 24.355469 407.089844 29.367188 397.046875 34.832031 387.269531 C 40.371094 377.539062 46.296875 368.039062 52.765625 358.933594 L 53.210938 359.222656 C 47.460938 368.777344 42.050781 378.519531 37.179688 388.511719 Z M 48.648438 345.730469 C 48.628906 345.589844 48.636719 345.453125 48.625 345.3125 C 29.882812 392.464844 -0.699219 436.621094 0.0117188 487 C 14.722656 464.03125 27.136719 439.589844 37.003906 414.15625 C 42.902344 398.957031 47.933594 383.316406 55.902344 369.089844 C 57.144531 366.871094 58.46875 364.710938 59.835938 362.582031 C 57.488281 359.570312 55.144531 356.5625 52.796875 353.550781 C 50.960938 351.195312 49.054688 348.6875 48.648438 345.730469 Z M 280.46875 40.773438 C 279.136719 46.519531 274.828125 51.992188 268.992188 52.816406 C 264.476562 53.453125 259.78125 51.070312 257.289062 47.253906 C 255.003906 43.765625 254.5 39.171875 255.96875 35.269531 C 257.441406 31.363281 260.847656 28.246094 264.867188 27.128906 L 267.699219 26.742188 C 271.019531 26.695312 274.601562 26.726562 277.273438 28.695312 C 280.828125 31.3125 281.46875 36.476562 280.46875 40.773438 Z M 265.730469 113.789062 C 258.4375 110.328125 250.769531 107.769531 242.921875 106.289062 C 235.09375 104.722656 227.101562 104.152344 219.195312 104.550781 L 213.28125 105.0625 L 207.4375 105.976562 C 205.507812 106.386719 203.582031 106.773438 201.648438 107.113281 C 199.738281 107.574219 197.816406 107.980469 195.886719 108.371094 L 190.148438 109.800781 C 188.253906 110.347656 186.371094 110.945312 184.433594 111.449219 C 182.566406 112.109375 180.664062 112.71875 178.738281 113.324219 C 176.859375 114.023438 174.96875 114.738281 172.992188 115.351562 L 172.726562 114.890625 C 174.308594 113.582031 175.976562 112.371094 177.65625 111.152344 C 179.414062 110.082031 181.1875 109.015625 183 108 C 184.847656 107.070312 186.746094 106.238281 188.632812 105.359375 L 194.496094 103.242188 C 196.5 102.699219 198.511719 102.164062 200.539062 101.695312 C 202.589844 101.34375 204.644531 101.042969 206.703125 100.769531 L 212.914062 100.363281 L 219.121094 100.300781 C 227.386719 100.429688 235.605469 101.566406 243.527344 103.703125 C 251.425781 105.929688 259.042969 109.089844 265.980469 113.324219 Z M 290.316406 51.78125 L 288.78125 50.882812 C 298.953125 38.890625 309.3125 26.746094 322.386719 18.003906 C 323.550781 17.226562 324.746094 16.488281 325.960938 15.773438 C 310.363281 13.992188 294.898438 4.070312 278.847656 0.996094 C 248.96875 -4.730469 218.648438 14.976562 203.382812 41.289062 C 190.640625 63.253906 186.15625 89.277344 173.171875 111.101562 C 173.058594 111.289062 172.9375 111.476562 172.824219 111.664062 C 168.820312 114.910156 165.089844 118.492188 161.734375 122.410156 L 162.988281 119.238281 C 136.175781 140.261719 115.464844 168.269531 99.375 198.300781 C 83.289062 228.335938 71.59375 260.492188 60.464844 292.691406 C 59.421875 295.710938 58.78125 299.867188 61.59375 301.382812 C 61.738281 301.464844 61.894531 301.515625 62.046875 301.570312 C 62.25 301.648438 62.457031 301.703125 62.671875 301.742188 C 67.332031 291.523438 72.375 281.46875 77.785156 271.609375 C 86.441406 256.011719 96.011719 240.902344 106.429688 226.386719 L 114.378906 215.59375 L 122.605469 204.996094 L 131.242188 194.730469 C 134.25 191.421875 137.300781 188.148438 140.359375 184.886719 L 149.898438 175.453125 C 153.203125 172.441406 156.472656 169.394531 159.8125 166.429688 C 163.21875 163.527344 166.65625 160.675781 170.101562 157.839844 C 173.679688 155.15625 177.1875 152.402344 180.808594 149.796875 L 181.152344 150.203125 C 178.058594 153.425781 174.851562 156.503906 171.71875 159.648438 C 168.621094 162.839844 165.519531 166.011719 162.386719 169.140625 C 159.367188 172.386719 156.273438 175.554688 153.222656 178.757812 L 144.234375 188.519531 C 141.304688 191.832031 138.367188 195.132812 135.386719 198.394531 L 126.644531 208.367188 L 118.082031 218.503906 L 109.847656 228.917969 C 99.097656 242.984375 89.152344 257.6875 80.085938 272.933594 C 74.425781 282.339844 69.105469 291.960938 64.132812 301.769531 C 62.636719 304.71875 61.183594 307.691406 59.75 310.675781 C 58.46875 315.640625 57.113281 320.585938 55.617188 325.488281 C 60.945312 315.832031 66.730469 306.417969 72.9375 297.277344 C 76.394531 292.191406 79.972656 287.183594 83.683594 282.273438 C 94.347656 268.316406 106.027344 255.113281 118.601562 242.792969 L 128.175781 233.699219 L 138.046875 224.910156 L 148.320312 216.585938 C 151.863281 213.964844 155.441406 211.394531 159.027344 208.832031 L 170.117188 201.640625 C 173.632812 199.59375 177.128906 197.515625 180.65625 195.507812 C 180.949219 195.339844 181.242188 195.164062 181.535156 195 C 185.429688 192.9375 189.347656 190.933594 193.261719 188.945312 C 197.292969 187.160156 201.265625 185.292969 205.316406 183.597656 L 205.558594 184.070312 C 201.886719 186.488281 198.136719 188.734375 194.441406 191.0625 C 190.792969 193.472656 187.144531 195.859375 183.472656 198.195312 C 179.902344 200.699219 176.28125 203.109375 172.691406 205.558594 L 162.101562 213.164062 C 158.640625 215.792969 155.179688 218.410156 151.679688 220.980469 L 141.390625 228.972656 L 131.300781 237.226562 L 122.035156 245.425781 L 121.53125 245.875 C 108.738281 257.671875 96.773438 270.390625 85.769531 283.921875 C 83.578125 286.585938 81.4375 289.289062 79.324219 292.019531 C 70.75 303.085938 62.796875 314.648438 55.5625 326.671875 L 55.300781 326.519531 C 55.0625 327.28125 54.84375 328.050781 54.597656 328.808594 C 54.082031 330.417969 53.542969 332.023438 52.988281 333.625 C 63.304688 316.578125 74.742188 300.21875 87.148438 284.625 C 129.65625 244.886719 189.199219 228.484375 235.011719 192.570312 C 249.292969 181.375 262.582031 167.558594 268.21875 150.433594 C 268.558594 149.394531 268.882812 148.34375 269.167969 147.28125 C 271.355469 139.09375 271.675781 130.414062 270.097656 122.085938 C 269.972656 121.429688 269.835938 120.777344 269.683594 120.125 C 269.457031 119.125 269.1875 118.136719 268.890625 117.15625 C 269.792969 115.886719 270.691406 114.617188 271.566406 113.328125 C 271.929688 112.261719 272.308594 111.199219 272.734375 110.152344 C 279.890625 92.433594 295.210938 79.433594 310.695312 68.234375 C 316.457031 64.070312 322.496094 60.015625 329 57.269531 C 330.3125 53.308594 331.683594 49.945312 332.652344 46.460938 C 318.800781 49.824219 304.570312 51.632812 290.316406 51.78125" fill="#3583a6"/></g><g id="change1_2"><path d="M 34.832031 387.269531 C 29.367188 397.046875 24.355469 407.089844 19.816406 417.351562 C 15.3125 427.617188 10.839844 437.980469 7.890625 448.84375 L 5.796875 457.007812 C 5.214844 459.757812 4.582031 462.492188 4.054688 465.253906 C 3.554688 468.019531 3.113281 470.792969 2.683594 473.566406 C 2.347656 476.359375 2.007812 479.148438 1.796875 481.957031 L 2.316406 482.0625 C 3.3125 479.425781 4.175781 476.769531 5.046875 474.117188 C 5.949219 471.476562 6.839844 468.835938 7.671875 466.1875 L 12.964844 450.410156 C 16.605469 439.960938 19.710938 429.320312 23.746094 418.980469 C 27.742188 408.632812 32.226562 398.464844 37.179688 388.511719 C 42.050781 378.519531 47.460938 368.777344 53.210938 359.222656 L 52.765625 358.933594 C 46.296875 368.039062 40.371094 377.539062 34.832031 387.269531 Z M 181.535156 195 C 181.242188 195.164062 180.949219 195.339844 180.65625 195.507812 C 177.128906 197.515625 173.632812 199.59375 170.117188 201.640625 L 159.027344 208.832031 C 155.441406 211.394531 151.863281 213.964844 148.320312 216.585938 L 138.046875 224.910156 L 128.175781 233.699219 L 118.601562 242.792969 C 106.027344 255.113281 94.347656 268.316406 83.683594 282.273438 C 79.972656 287.183594 76.394531 292.191406 72.9375 297.277344 C 66.730469 306.417969 60.945312 315.832031 55.617188 325.488281 C 55.449219 325.796875 55.269531 326.101562 55.101562 326.40625 L 55.300781 326.519531 L 55.5625 326.671875 C 62.796875 314.648438 70.75 303.085938 79.324219 292.019531 C 81.4375 289.289062 83.578125 286.585938 85.769531 283.921875 C 96.773438 270.390625 108.738281 257.671875 121.53125 245.875 L 122.035156 245.425781 L 131.300781 237.226562 L 141.390625 228.972656 L 151.679688 220.980469 C 155.179688 218.410156 158.640625 215.792969 162.101562 213.164062 L 172.691406 205.558594 C 176.28125 203.109375 179.902344 200.699219 183.472656 198.195312 C 187.144531 195.859375 190.792969 193.472656 194.441406 191.0625 C 198.136719 188.734375 201.886719 186.488281 205.558594 184.070312 L 205.316406 183.597656 C 201.265625 185.292969 197.292969 187.160156 193.261719 188.945312 C 189.347656 190.933594 185.429688 192.9375 181.535156 195 Z M 269.566406 210.847656 L 269.246094 210.421875 C 267.394531 211.292969 265.628906 212.257812 263.804688 213.136719 C 262.011719 214.050781 260.234375 214.980469 258.476562 215.929688 C 256.714844 216.875 254.679688 217.390625 253.246094 218.8125 C 251.78125 220.1875 250.429688 221.742188 249.511719 224.046875 L 249.796875 224.496094 C 252.273438 224.679688 254.289062 224.070312 256.164062 223.253906 C 258.074219 222.472656 259.359375 220.753906 260.890625 219.425781 C 262.425781 218.097656 263.917969 216.71875 265.363281 215.285156 C 266.78125 213.816406 268.226562 212.394531 269.566406 210.847656 Z M 253.3125 209.40625 C 255.382812 208.539062 256.8125 206.703125 258.46875 205.25 C 260.128906 203.792969 261.726562 202.269531 263.257812 200.675781 C 264.757812 199.046875 266.261719 197.449219 267.636719 195.714844 L 267.289062 195.3125 C 265.371094 196.394531 263.527344 197.542969 261.617188 198.585938 L 256 201.789062 C 254.128906 202.855469 251.980469 203.460938 250.417969 204.949219 C 248.820312 206.398438 247.320312 208.007812 246.203125 210.367188 L 246.472656 210.824219 C 249.089844 210.988281 251.277344 210.316406 253.3125 209.40625 Z M 245.804688 197.003906 C 247.980469 195.707031 249.449219 193.558594 251.230469 191.78125 C 253.011719 190.007812 254.761719 188.195312 256.484375 186.355469 C 258.175781 184.472656 259.917969 182.652344 261.566406 180.722656 L 261.226562 180.3125 C 259.03125 181.59375 256.929688 182.984375 254.78125 184.316406 C 252.660156 185.683594 250.566406 187.085938 248.503906 188.519531 C 246.441406 189.953125 244.066406 191.015625 242.398438 192.929688 C 240.699219 194.796875 239.148438 196.847656 238.167969 199.578125 L 238.507812 199.984375 C 241.371094 199.507812 243.660156 198.347656 245.804688 197.003906 Z M 233.828125 236.746094 L 233.53125 236.304688 L 227.230469 239.164062 C 225.144531 240.121094 223.074219 241.085938 221.015625 242.058594 C 218.953125 243.03125 216.644531 243.550781 214.867188 245 C 213.0625 246.40625 211.355469 247.992188 210.015625 250.351562 L 210.261719 250.820312 C 212.972656 251.058594 215.28125 250.464844 217.46875 249.636719 C 219.679688 248.851562 221.332031 247.078125 223.195312 245.707031 C 225.0625 244.335938 226.882812 242.898438 228.65625 241.40625 C 230.402344 239.871094 232.171875 238.378906 233.828125 236.746094 Z M 203.21875 240.945312 C 206.113281 240.96875 208.574219 240.171875 210.894531 239.144531 C 213.246094 238.164062 214.996094 236.214844 216.972656 234.65625 C 218.949219 233.097656 220.882812 231.476562 222.761719 229.792969 C 224.613281 228.074219 226.484375 226.394531 228.242188 224.574219 L 227.929688 224.148438 L 221.246094 227.609375 L 214.644531 231.101562 C 212.453125 232.269531 209.996094 232.988281 208.105469 234.621094 C 206.1875 236.210938 204.367188 237.96875 202.953125 240.484375 Z M 204.882812 224.125 L 205.167969 224.574219 C 207.382812 224.910156 209.140625 224.445312 210.75 223.761719 C 212.398438 223.117188 213.394531 221.539062 214.636719 220.347656 C 215.882812 219.152344 217.074219 217.902344 218.214844 216.601562 C 219.320312 215.261719 220.449219 213.960938 221.457031 212.539062 L 221.113281 212.136719 C 219.558594 212.910156 218.089844 213.761719 216.558594 214.519531 C 215.058594 215.316406 213.574219 216.121094 212.109375 216.929688 C 210.636719 217.738281 208.886719 218.117188 207.75 219.378906 C 206.578125 220.597656 205.519531 221.984375 204.882812 224.125 Z M 187.066406 250.476562 L 186.917969 249.964844 C 184.789062 250.144531 182.699219 250.550781 180.59375 250.96875 C 178.503906 251.433594 176.433594 252.027344 174.40625 252.742188 C 172.386719 253.457031 170.132812 253.835938 168.453125 255.261719 C 166.761719 256.632812 165.234375 258.277344 164.339844 260.675781 L 164.640625 261.113281 C 167.179688 261.148438 169.183594 260.574219 171.105469 259.867188 C 173.039062 259.214844 174.484375 257.65625 176.226562 256.585938 C 177.964844 255.515625 179.734375 254.472656 181.539062 253.453125 C 183.328125 252.386719 185.191406 251.464844 187.066406 250.476562 Z M 166.273438 243.851562 L 166.609375 244.265625 C 169.023438 244.179688 170.859375 243.480469 172.582031 242.636719 C 174.324219 241.835938 175.449219 240.179688 176.90625 238.9375 L 181.296875 235.21875 C 182.746094 233.933594 184.273438 232.746094 185.769531 231.46875 L 185.519531 230.996094 C 183.613281 231.53125 181.785156 232.246094 179.929688 232.941406 C 178.097656 233.675781 176.300781 234.496094 174.546875 235.402344 C 172.796875 236.308594 170.765625 236.867188 169.414062 238.367188 C 168.039062 239.816406 166.835938 241.488281 166.273438 243.851562 Z M 151.902344 248.929688 L 151.730469 248.429688 C 149.4375 248.773438 147.195312 249.347656 144.941406 249.945312 C 142.707031 250.585938 140.503906 251.355469 138.347656 252.257812 C 136.195312 253.152344 133.804688 253.734375 132.039062 255.335938 C 130.257812 256.886719 128.652344 258.707031 127.722656 261.253906 L 128.039062 261.679688 C 130.730469 261.484375 132.855469 260.710938 134.902344 259.8125 C 136.960938 258.96875 138.492188 257.253906 140.347656 256.007812 C 142.199219 254.769531 144.082031 253.558594 146.007812 252.378906 C 147.914062 251.152344 149.90625 250.070312 151.902344 248.929688 Z M 148.539062 264.714844 L 148.347656 264.21875 C 146.441406 264.503906 144.585938 265.011719 142.714844 265.539062 C 140.863281 266.113281 139.046875 266.8125 137.28125 267.636719 C 135.523438 268.453125 133.492188 268.976562 132.15625 270.46875 C 130.796875 271.90625 129.640625 273.601562 129.214844 275.953125 L 129.570312 276.347656 C 131.933594 276.203125 133.679688 275.523438 135.328125 274.730469 C 136.992188 273.984375 138.070312 272.402344 139.503906 271.261719 C 140.929688 270.128906 142.390625 269.011719 143.894531 267.921875 C 145.378906 266.785156 146.957031 265.78125 148.539062 264.714844 Z M 125.648438 296.480469 L 125.378906 296.023438 C 123.460938 296.652344 121.621094 297.449219 119.757812 298.222656 C 117.914062 299.035156 116.109375 299.925781 114.34375 300.890625 C 112.582031 301.851562 110.535156 302.46875 109.179688 304.007812 C 107.792969 305.496094 106.574219 307.199219 105.988281 309.589844 L 106.328125 310 C 108.777344 309.878906 110.648438 309.132812 112.398438 308.230469 C 114.175781 307.378906 115.3125 305.671875 116.78125 304.375 Z M 105.21875 300.535156 C 106.535156 299.585938 107.089844 297.953125 108.097656 296.667969 C 109.097656 295.394531 110.140625 294.128906 111.234375 292.875 C 112.300781 291.585938 113.484375 290.402344 114.671875 289.15625 L 114.386719 288.707031 C 112.730469 289.246094 111.167969 290.003906 109.59375 290.785156 C 108.042969 291.609375 106.554688 292.554688 105.140625 293.613281 C 103.734375 294.664062 101.992188 295.492188 101.152344 297.113281 C 100.277344 298.6875 99.660156 300.46875 99.929688 302.691406 L 100.367188 302.992188 C 102.519531 302.433594 103.929688 301.53125 105.21875 300.535156 Z M 95.613281 289.832031 C 98.054688 289.28125 99.824219 288.246094 101.46875 287.09375 C 103.144531 285.984375 104.09375 284.128906 105.449219 282.648438 C 106.800781 281.171875 108.175781 279.703125 109.574219 278.234375 C 110.949219 276.730469 112.425781 275.332031 113.875 273.851562 L 113.578125 273.410156 C 111.648438 274.191406 109.8125 275.15625 107.960938 276.128906 C 106.132812 277.136719 104.359375 278.246094 102.648438 279.449219 C 100.945312 280.644531 98.921875 281.566406 97.71875 283.328125 C 96.480469 285.046875 95.460938 286.976562 95.214844 289.480469 Z M 92.125 316 L 91.792969 315.585938 C 90.476562 316.101562 89.238281 316.765625 88.019531 317.480469 C 86.808594 318.203125 85.648438 319.019531 84.554688 319.921875 C 83.464844 320.8125 82.011719 321.476562 81.476562 322.855469 C 81.183594 323.519531 80.96875 324.234375 80.894531 325.027344 C 80.808594 325.8125 80.828125 326.652344 81.113281 327.625 L 81.566406 327.90625 C 82.566406 327.746094 83.316406 327.460938 83.980469 327.136719 C 84.664062 326.824219 85.230469 326.449219 85.734375 326.039062 C 86.804688 325.269531 87.046875 323.855469 87.734375 322.742188 C 88.417969 321.636719 89.121094 320.523438 89.851562 319.402344 C 90.570312 318.265625 91.351562 317.160156 92.125 316 Z M 81.902344 305.277344 L 81.492188 304.9375 C 80.074219 305.984375 78.773438 307.148438 77.429688 308.285156 C 76.125 309.449219 74.871094 310.667969 73.664062 311.929688 C 72.464844 313.191406 70.875 314.199219 70.214844 315.859375 C 69.515625 317.484375 69.027344 319.253906 69.328125 321.488281 L 69.773438 321.777344 C 71.933594 321.144531 73.347656 320.066406 74.589844 318.878906 C 75.871094 317.722656 76.269531 315.945312 77.089844 314.449219 C 77.914062 312.957031 78.722656 311.449219 79.523438 309.921875 C 80.289062 308.363281 81.136719 306.863281 81.902344 305.277344 Z M 74.382812 337.753906 L 74.003906 337.382812 C 72.761719 338.046875 71.617188 338.851562 70.5 339.714844 C 69.390625 340.589844 68.355469 341.558594 67.398438 342.605469 C 66.445312 343.640625 65.097656 344.515625 64.78125 345.964844 C 64.589844 346.667969 64.488281 347.410156 64.539062 348.203125 C 64.578125 348.992188 64.730469 349.816406 65.175781 350.726562 L 65.667969 350.929688 C 66.625 350.609375 67.316406 350.21875 67.917969 349.796875 C 68.542969 349.386719 69.039062 348.9375 69.472656 348.460938 C 70.402344 347.554688 70.421875 346.136719 70.941406 344.949219 C 71.457031 343.769531 71.992188 342.585938 72.5625 341.386719 C 73.121094 340.179688 73.753906 338.992188 74.382812 337.753906 Z M 63.707031 334.472656 L 63.238281 334.222656 C 62.390625 334.925781 61.632812 335.671875 60.871094 336.417969 C 60.117188 337.171875 59.40625 337.941406 58.734375 338.738281 C 58.0625 339.53125 56.960938 340.097656 56.835938 341.179688 C 56.734375 341.703125 56.710938 342.265625 56.816406 342.898438 C 56.902344 343.519531 57.082031 344.191406 57.515625 344.996094 L 57.984375 345.246094 C 58.894531 345.152344 59.550781 344.925781 60.113281 344.652344 C 60.695312 344.382812 61.148438 344.050781 61.527344 343.675781 C 62.355469 342.964844 62.207031 341.734375 62.488281 340.730469 C 62.769531 339.730469 63.011719 338.707031 63.214844 337.664062 C 63.40625 336.613281 63.601562 335.566406 63.707031 334.472656 Z M 278.855469 206.261719 C 266.085938 222.828125 249.480469 236.863281 231.835938 248.261719 C 216.691406 258.039062 200.664062 266.257812 184.460938 274.175781 C 183.074219 272.832031 181.765625 271.386719 180.53125 269.851562 C 180.433594 269.730469 180.328125 269.648438 180.226562 269.542969 C 180.488281 269.480469 180.75 269.425781 181.007812 269.355469 C 182.644531 268.953125 183.804688 267.601562 185.21875 266.703125 L 189.46875 263.988281 C 190.875 263.027344 192.339844 262.167969 193.777344 261.203125 L 193.601562 260.703125 C 191.867188 260.871094 190.179688 261.214844 188.464844 261.527344 C 186.765625 261.886719 185.089844 262.324219 183.4375 262.84375 C 181.789062 263.359375 179.917969 263.484375 178.566406 264.636719 C 177.363281 265.597656 176.285156 266.773438 175.535156 268.464844 C 172.652344 269.691406 170.632812 273.851562 173.265625 277.121094 C 173.753906 277.726562 174.261719 278.300781 174.769531 278.871094 C 169.734375 281.304688 164.699219 283.730469 159.679688 286.1875 C 158.464844 283.582031 157.304688 280.980469 156.175781 278.417969 C 156.625 278.113281 157.074219 277.820312 157.515625 277.503906 L 157.304688 277.019531 C 156.757812 277.140625 156.222656 277.285156 155.6875 277.425781 C 153.296875 273.03125 147.234375 275.730469 146.632812 280.105469 C 146.128906 280.277344 145.621094 280.445312 145.121094 280.625 C 143.140625 281.347656 140.9375 281.652344 139.242188 282.964844 C 137.527344 284.230469 135.929688 285.71875 134.777344 287.996094 L 135.027344 288.464844 C 137.558594 288.777344 139.660156 288.332031 141.660156 287.699219 C 143.683594 287.113281 145.21875 285.558594 146.984375 284.445312 C 147.164062 284.335938 147.34375 284.214844 147.523438 284.101562 C 148.484375 286.277344 149.480469 288.496094 150.519531 290.738281 C 145.613281 293.207031 140.734375 295.722656 135.90625 298.332031 C 106.398438 314.285156 77.878906 334.523438 59.835938 362.582031 C 57.488281 359.570312 55.144531 356.5625 52.796875 353.550781 C 50.960938 351.195312 49.054688 348.6875 48.648438 345.730469 C 48.628906 345.589844 48.636719 345.453125 48.625 345.3125 C 48.300781 341.714844 50.183594 338.257812 52.058594 335.132812 C 52.363281 334.625 52.683594 334.128906 52.988281 333.625 C 63.304688 316.578125 74.742188 300.21875 87.148438 284.625 C 129.65625 244.886719 189.199219 228.484375 235.011719 192.570312 C 249.292969 181.375 262.582031 167.558594 268.21875 150.433594 C 268.375 152.445312 268.558594 154.453125 268.773438 156.453125 C 270.574219 173.320312 273.972656 190.015625 278.855469 206.261719 Z M 178.738281 113.324219 C 180.664062 112.71875 182.566406 112.109375 184.433594 111.449219 C 186.371094 110.945312 188.253906 110.347656 190.148438 109.800781 L 195.886719 108.371094 C 197.816406 107.980469 199.738281 107.574219 201.648438 107.113281 C 203.582031 106.773438 205.507812 106.386719 207.4375 105.976562 L 213.28125 105.0625 L 219.195312 104.550781 C 227.101562 104.152344 235.09375 104.722656 242.921875 106.289062 C 250.769531 107.769531 258.4375 110.328125 265.730469 113.789062 L 265.980469 113.324219 C 259.042969 109.089844 251.425781 105.929688 243.527344 103.703125 C 235.605469 101.566406 227.386719 100.429688 219.121094 100.300781 L 212.914062 100.363281 L 206.703125 100.769531 C 204.644531 101.042969 202.589844 101.34375 200.539062 101.695312 C 198.511719 102.164062 196.5 102.699219 194.496094 103.242188 L 188.632812 105.359375 C 186.746094 106.238281 184.847656 107.070312 183 108 C 181.1875 109.015625 179.414062 110.082031 177.65625 111.152344 C 175.976562 112.371094 174.308594 113.582031 172.726562 114.890625 L 172.992188 115.351562 C 174.96875 114.738281 176.859375 114.023438 178.738281 113.324219 Z M 271.316406 39.351562 C 272.722656 39.152344 273.757812 37.835938 274.074219 36.457031 C 274.316406 35.421875 274.164062 34.179688 273.308594 33.550781 C 272.664062 33.078125 271.804688 33.070312 271.007812 33.082031 L 270.324219 33.175781 C 269.359375 33.441406 268.539062 34.191406 268.1875 35.132812 C 267.832031 36.070312 267.953125 37.175781 268.503906 38.015625 C 269.101562 38.933594 270.230469 39.503906 271.316406 39.351562 Z M 59.75 310.675781 C 61.183594 307.691406 62.636719 304.71875 64.132812 301.769531 C 69.105469 291.960938 74.425781 282.339844 80.085938 272.933594 C 89.152344 257.6875 99.097656 242.984375 109.847656 228.917969 L 118.082031 218.503906 L 126.644531 208.367188 L 135.386719 198.394531 C 138.367188 195.132812 141.304688 191.832031 144.234375 188.519531 L 153.222656 178.757812 C 156.273438 175.554688 159.367188 172.386719 162.386719 169.140625 C 165.519531 166.011719 168.621094 162.839844 171.71875 159.648438 C 174.851562 156.503906 178.058594 153.425781 181.152344 150.203125 L 180.808594 149.796875 C 177.1875 152.402344 173.679688 155.15625 170.101562 157.839844 C 166.65625 160.675781 163.21875 163.527344 159.8125 166.429688 C 156.472656 169.394531 153.203125 172.441406 149.898438 175.453125 L 140.359375 184.886719 C 137.300781 188.148438 134.25 191.421875 131.242188 194.730469 L 122.605469 204.996094 L 114.378906 215.59375 L 106.429688 226.386719 C 96.011719 240.902344 86.441406 256.011719 77.785156 271.609375 C 72.375 281.46875 67.332031 291.523438 62.671875 301.742188 C 62.457031 301.703125 62.25 301.648438 62.046875 301.570312 C 61.753906 302.746094 61.460938 303.921875 61.167969 305.097656 C 58.984375 309.988281 56.875 314.910156 54.871094 319.875 L 55.359375 320.082031 C 56.78125 316.929688 58.253906 313.796875 59.75 310.675781 Z M 268.890625 117.15625 C 269.792969 115.886719 270.691406 114.617188 271.566406 113.328125 C 270.808594 115.558594 270.195312 117.828125 269.683594 120.125 C 269.457031 119.125 269.1875 118.136719 268.890625 117.15625" fill="#fdf9fd"/></g><g clip-path="url(#a)" id="change3_1"><path d="M 249.863281 308.386719 C 245.800781 296.03125 234.207031 289.734375 222.050781 287.347656 C 214.429688 285.851562 206.554688 285.507812 199.121094 283.121094 C 193.457031 281.304688 188.609375 278.199219 184.460938 274.175781 C 183.074219 272.832031 181.765625 271.386719 180.53125 269.851562 C 180.433594 269.730469 180.328125 269.648438 180.226562 269.542969 C 178.785156 268.003906 177.046875 267.820312 175.535156 268.464844 C 172.652344 269.691406 170.632812 273.851562 173.265625 277.121094 C 173.753906 277.726562 174.261719 278.300781 174.769531 278.871094 C 179.695312 284.429688 185.570312 288.507812 192.152344 291.292969 C 192.503906 291.703125 192.914062 292.09375 193.453125 292.421875 C 199.375 296.019531 203.226562 301.566406 204.777344 308.289062 C 206.261719 314.734375 216.175781 312.007812 214.6875 305.558594 C 213.980469 302.492188 212.863281 299.589844 211.402344 296.894531 C 216.140625 298.375 220.597656 300.535156 223.894531 304.226562 C 231.121094 312.320312 233.007812 324.96875 232.613281 335.363281 C 232.359375 341.980469 242.640625 341.96875 242.890625 335.363281 C 243.257812 325.660156 241.691406 315.003906 237.242188 306.035156 C 238.382812 307.488281 239.308594 309.164062 239.953125 311.117188 C 242.011719 317.375 251.9375 314.695312 249.863281 308.386719 Z M 231.402344 354.925781 C 229.722656 350.871094 229.335938 346.320312 227.171875 342.453125 C 225.023438 338.617188 221.464844 335.773438 217.765625 333.523438 C 210.292969 328.976562 201.636719 327.113281 193.507812 324.148438 C 176.53125 317.949219 167.078125 302.0625 159.679688 286.1875 C 158.464844 283.582031 157.304688 280.980469 156.175781 278.417969 C 156.09375 278.226562 156.007812 278.035156 155.925781 277.84375 C 155.855469 277.6875 155.765625 277.566406 155.6875 277.425781 C 153.296875 273.03125 147.234375 275.730469 146.632812 280.105469 C 146.503906 281.023438 146.601562 282.015625 147.050781 283.03125 C 147.203125 283.386719 147.367188 283.746094 147.523438 284.101562 C 148.484375 286.277344 149.480469 288.496094 150.519531 290.738281 C 156.546875 303.746094 164.074219 317.367188 175.277344 326.042969 C 174.460938 327.097656 174.160156 328.527344 174.855469 330.25 C 180.59375 344.4375 186.175781 358.847656 184.222656 374.421875 C 183.402344 380.964844 193.6875 380.90625 194.5 374.421875 C 195.796875 364.074219 194.003906 354.101562 190.980469 344.390625 C 200.738281 354.722656 210.765625 365.410156 211.839844 379.59375 C 212.335938 386.148438 222.617188 386.199219 222.117188 379.59375 C 220.703125 360.902344 208.125 348.914062 196.550781 335.960938 C 198.566406 336.605469 200.585938 337.253906 202.574219 337.941406 C 206.644531 339.359375 210.777344 340.972656 214.304688 343.503906 C 219.414062 347.167969 219.273438 352.3125 221.492188 357.65625 C 223.992188 363.683594 233.941406 361.039062 231.402344 354.925781 Z M 273.308594 33.550781 C 272.664062 33.078125 271.804688 33.070312 271.007812 33.082031 L 270.324219 33.175781 C 269.359375 33.441406 268.539062 34.191406 268.1875 35.132812 C 267.832031 36.070312 267.953125 37.175781 268.503906 38.015625 C 269.101562 38.933594 270.230469 39.503906 271.316406 39.351562 C 272.722656 39.152344 273.757812 37.835938 274.074219 36.457031 C 274.316406 35.421875 274.164062 34.179688 273.308594 33.550781 Z M 280.46875 40.773438 C 279.136719 46.519531 274.828125 51.992188 268.992188 52.816406 C 264.476562 53.453125 259.78125 51.070312 257.289062 47.253906 C 255.003906 43.765625 254.5 39.171875 255.96875 35.269531 C 257.441406 31.363281 260.847656 28.246094 264.867188 27.128906 L 267.699219 26.742188 C 271.019531 26.695312 274.601562 26.726562 277.273438 28.695312 C 280.828125 31.3125 281.46875 36.476562 280.46875 40.773438 Z M 370.421875 32.902344 C 358.367188 38.765625 345.675781 43.296875 332.652344 46.460938 C 318.800781 49.824219 304.570312 51.632812 290.316406 51.78125 L 288.78125 50.882812 C 298.953125 38.890625 309.3125 26.746094 322.386719 18.003906 C 323.550781 17.226562 324.746094 16.488281 325.960938 15.773438 C 338.367188 8.445312 353.179688 4.542969 367.09375 7.945312 C 347.308594 11.542969 335.160156 19.6875 320.039062 34.335938 C 337.773438 31.96875 352.617188 34.671875 370.421875 32.902344" fill="#181817"/></g><g id="change4_1"><path d="M 131.257812 206.15625 C 131.695312 205.683594 131.941406 205.199219 132.320312 205.050781 C 133.390625 204.628906 133.53125 203.917969 133.199219 202.960938 C 134.941406 202.445312 135.789062 200.015625 134.773438 198.992188 C 134.121094 199.523438 133.492188 200.042969 132.726562 200.667969 C 132.835938 201.285156 132.972656 202.089844 133.113281 202.894531 C 132.382812 203.53125 131.648438 204.171875 130.789062 204.917969 C 130.894531 205.199219 131.0625 205.640625 131.257812 206.15625 Z M 134.46875 216.359375 C 134.894531 215.40625 135.148438 214.851562 135.507812 214.042969 C 134.839844 214.15625 134.398438 214.234375 133.847656 214.328125 C 134.054688 215.007812 134.203125 215.492188 134.46875 216.359375 Z M 135.035156 227.34375 C 136.414062 226.15625 136.496094 225.835938 135.6875 224.152344 C 135.089844 225.261719 133.929688 225.988281 135.035156 227.34375 Z M 157.402344 141.96875 C 157.535156 141.097656 157.671875 140.226562 157.828125 139.226562 C 157.328125 139.335938 156.871094 139.4375 156.308594 139.566406 C 156.542969 140.425781 156.753906 141.191406 156.964844 141.960938 C 157.109375 141.964844 157.253906 141.964844 157.402344 141.96875 Z M 146.25 192.953125 C 146.21875 192.8125 146.117188 192.6875 145.777344 192.046875 C 145.320312 193.039062 145.015625 193.699219 144.710938 194.359375 C 145.289062 194.332031 145.871094 194.304688 146.488281 194.269531 C 146.382812 193.652344 146.332031 193.300781 146.25 192.953125 Z M 81.492188 304.9375 C 80.074219 305.984375 78.773438 307.148438 77.429688 308.285156 C 76.125 309.449219 74.871094 310.667969 73.664062 311.929688 C 72.464844 313.191406 70.875 314.199219 70.214844 315.859375 C 69.515625 317.484375 69.027344 319.253906 69.328125 321.488281 L 69.773438 321.777344 C 71.933594 321.144531 73.347656 320.066406 74.589844 318.878906 C 75.871094 317.722656 76.269531 315.941406 77.089844 314.449219 C 77.914062 312.957031 78.722656 311.449219 79.523438 309.921875 C 80.289062 308.363281 81.136719 306.863281 81.902344 305.277344 Z M 88.019531 317.480469 C 86.808594 318.203125 85.648438 319.019531 84.554688 319.921875 C 83.464844 320.8125 82.011719 321.476562 81.476562 322.855469 C 81.183594 323.519531 80.96875 324.234375 80.894531 325.027344 C 80.808594 325.8125 80.828125 326.652344 81.113281 327.625 L 81.566406 327.90625 C 82.566406 327.746094 83.316406 327.460938 83.980469 327.136719 C 84.664062 326.824219 85.230469 326.449219 85.734375 326.039062 C 86.804688 325.269531 87.046875 323.855469 87.734375 322.742188 C 88.417969 321.636719 89.121094 320.523438 89.851562 319.402344 C 90.570312 318.265625 91.351562 317.160156 92.125 316 L 91.792969 315.585938 C 90.476562 316.105469 89.238281 316.765625 88.019531 317.480469 Z M 105.449219 282.648438 C 106.800781 281.171875 108.175781 279.703125 109.574219 278.234375 C 110.949219 276.730469 112.425781 275.332031 113.875 273.851562 L 113.578125 273.410156 C 111.648438 274.191406 109.8125 275.15625 107.960938 276.128906 C 106.132812 277.136719 104.359375 278.246094 102.648438 279.449219 C 100.945312 280.644531 98.921875 281.566406 97.71875 283.328125 C 96.480469 285.046875 95.464844 286.976562 95.214844 289.480469 L 95.613281 289.832031 C 98.054688 289.28125 99.824219 288.246094 101.46875 287.09375 C 103.144531 285.984375 104.09375 284.128906 105.449219 282.648438 Z M 70.5 339.714844 C 69.390625 340.589844 68.355469 341.558594 67.398438 342.605469 C 66.445312 343.640625 65.097656 344.515625 64.78125 345.964844 C 64.589844 346.667969 64.488281 347.410156 64.539062 348.203125 C 64.578125 348.992188 64.730469 349.816406 65.175781 350.726562 L 65.667969 350.929688 C 66.625 350.609375 67.316406 350.21875 67.917969 349.796875 C 68.542969 349.386719 69.039062 348.9375 69.472656 348.460938 C 70.402344 347.554688 70.421875 346.136719 70.941406 344.949219 C 71.457031 343.769531 71.992188 342.585938 72.5625 341.386719 C 73.121094 340.179688 73.753906 338.992188 74.382812 337.753906 L 74.003906 337.382812 C 72.761719 338.046875 71.617188 338.851562 70.5 339.714844 Z M 219.449219 157.820312 C 219.03125 155.949219 218.652344 154.25 218.269531 152.550781 C 217.621094 154.257812 218.273438 156.9375 219.449219 157.820312 Z M 85.464844 272.777344 C 85.285156 271.980469 85.105469 271.183594 84.910156 270.304688 C 84.398438 270.367188 83.90625 270.429688 83.414062 270.488281 C 83.3125 270.636719 83.210938 270.78125 83.109375 270.929688 C 83.78125 271.605469 84.453125 272.285156 85.125 272.964844 C 85.238281 272.902344 85.351562 272.839844 85.464844 272.777344 Z M 60.871094 336.417969 C 60.117188 337.171875 59.40625 337.941406 58.734375 338.738281 C 58.0625 339.53125 56.960938 340.097656 56.835938 341.179688 C 56.734375 341.703125 56.710938 342.265625 56.816406 342.898438 C 56.902344 343.519531 57.082031 344.191406 57.515625 344.996094 L 57.984375 345.246094 C 58.894531 345.152344 59.550781 344.925781 60.113281 344.652344 C 60.695312 344.382812 61.148438 344.050781 61.527344 343.675781 C 62.355469 342.964844 62.207031 341.734375 62.488281 340.730469 C 62.769531 339.730469 63.011719 338.707031 63.214844 337.664062 C 63.40625 336.613281 63.601562 335.566406 63.707031 334.472656 L 63.238281 334.222656 C 62.390625 334.925781 61.632812 335.671875 60.871094 336.417969 Z M 172.582031 242.636719 C 174.328125 241.835938 175.449219 240.179688 176.90625 238.9375 L 181.296875 235.21875 C 182.746094 233.933594 184.273438 232.746094 185.769531 231.46875 L 185.519531 230.996094 C 183.613281 231.53125 181.785156 232.246094 179.929688 232.9375 C 178.097656 233.675781 176.300781 234.496094 174.546875 235.402344 C 172.796875 236.308594 170.765625 236.867188 169.414062 238.367188 C 168.039062 239.816406 166.835938 241.488281 166.273438 243.851562 L 166.609375 244.265625 C 169.023438 244.179688 170.859375 243.480469 172.582031 242.636719 Z M 209.867188 118.804688 C 209.976562 117.523438 209.464844 116.183594 209.160156 114.882812 C 209.109375 114.671875 208.78125 114.519531 208.585938 114.34375 C 208.472656 114.585938 208.296875 114.816406 208.265625 115.066406 C 208.152344 116.003906 208.132812 116.945312 208.003906 117.875 C 207.863281 118.894531 207.644531 119.902344 207.460938 120.914062 C 207.707031 120.992188 207.953125 121.074219 208.199219 121.152344 C 208.789062 120.371094 209.800781 119.628906 209.867188 118.804688 Z M 170.371094 171.582031 C 170.929688 171.390625 171.367188 171.242188 172.132812 170.984375 C 171.242188 170.558594 170.703125 170.300781 169.921875 169.929688 C 170.113281 170.632812 170.226562 171.046875 170.371094 171.582031 Z M 212.710938 34.484375 C 212.632812 34.605469 212.554688 34.726562 212.476562 34.847656 C 213.222656 34.730469 213.972656 34.617188 214.710938 34.503906 C 214.933594 33.519531 215.113281 32.742188 215.226562 32.261719 C 214.597656 31.027344 214.082031 30.007812 213.421875 28.703125 C 212.832031 29.734375 212.378906 30.527344 212.003906 31.183594 C 211.449219 31 211 30.847656 210.550781 30.699219 C 210.628906 31.226562 210.554688 31.855469 210.824219 32.265625 C 211.351562 33.070312 212.070312 33.753906 212.710938 34.484375 Z M 211.761719 149.253906 C 211.617188 149.285156 211.472656 149.316406 211.328125 149.351562 C 211.503906 150.132812 211.679688 150.914062 211.855469 151.699219 C 212 151.667969 212.144531 151.636719 212.289062 151.605469 C 212.113281 150.820312 211.9375 150.039062 211.761719 149.253906 Z M 207.75 219.378906 C 206.578125 220.597656 205.519531 221.984375 204.882812 224.125 L 205.167969 224.574219 C 207.382812 224.910156 209.140625 224.445312 210.75 223.761719 C 212.398438 223.117188 213.394531 221.539062 214.636719 220.347656 C 215.882812 219.152344 217.074219 217.902344 218.214844 216.601562 C 219.320312 215.261719 220.449219 213.960938 221.457031 212.539062 L 221.113281 212.136719 C 219.558594 212.910156 218.089844 213.761719 216.558594 214.519531 C 215.058594 215.316406 213.574219 216.121094 212.109375 216.929688 C 210.636719 217.738281 208.886719 218.117188 207.75 219.378906 Z M 216.125 26.484375 C 216.046875 26.132812 215.972656 25.8125 215.898438 25.476562 C 215.449219 25.863281 215.007812 26.261719 214.566406 26.65625 C 214.597656 26.714844 214.597656 26.757812 214.632812 26.820312 C 215.09375 26.71875 215.574219 26.609375 216.125 26.484375 Z M 170.066406 146.722656 C 169.882812 145.890625 169.695312 145.058594 169.507812 144.226562 C 169.351562 144.261719 169.195312 144.296875 169.035156 144.332031 C 169.222656 145.160156 169.410156 145.992188 169.59375 146.820312 C 169.753906 146.789062 169.910156 146.753906 170.066406 146.722656 Z M 176.0625 144.890625 C 176.261719 144.632812 176.464844 144.367188 176.664062 144.109375 C 175.960938 143.1875 175.261719 142.261719 174.558594 141.339844 C 174.398438 141.339844 174.242188 141.339844 174.082031 141.34375 C 173.898438 142.15625 173.308594 143.261719 173.632812 143.722656 C 174.085938 144.363281 175.21875 144.523438 176.0625 144.890625 Z M 179.402344 188.957031 C 178.773438 189.875 177.578125 190.503906 178.820312 191.777344 C 179.421875 190.9375 180.414062 190.308594 179.402344 188.957031 Z M 181.410156 132.453125 C 182.246094 131.371094 182.242188 130.214844 181.535156 129.042969 C 180.476562 129.761719 179.894531 131.761719 180.542969 132.574219 C 180.644531 132.699219 181.273438 132.628906 181.410156 132.453125 Z M 186.167969 182.421875 C 186.613281 182.320312 187.105469 182.210938 187.773438 182.0625 C 187.488281 180.796875 187.277344 179.628906 186.957031 178.496094 C 186.742188 177.734375 185.535156 177.425781 185.167969 178.007812 C 184.859375 178.496094 184.683594 179.070312 184.449219 179.605469 C 184.5625 179.5625 184.675781 179.519531 184.789062 179.480469 C 185.238281 180.441406 185.691406 181.402344 186.167969 182.421875 Z M 180.550781 141.828125 C 180.765625 141.894531 180.996094 142.914062 180.828125 143.066406 C 179.757812 144.050781 180.570312 145.050781 180.667969 146.035156 C 180.703125 146.390625 180.855469 146.792969 180.742188 147.089844 C 179.960938 149.15625 179.941406 149.148438 181.898438 149.734375 C 182.40625 148.300781 182.871094 146.984375 183.320312 145.664062 C 183.367188 145.527344 183.339844 145.355469 183.308594 145.210938 C 182.808594 142.960938 182.304688 140.714844 181.832031 138.597656 C 180.164062 138.070312 180.171875 139.453125 179.769531 140.222656 C 179.394531 140.933594 179.617188 141.546875 180.550781 141.828125 Z M 105.066406 252.957031 C 104.617188 251.355469 104.347656 251.265625 102.148438 252.03125 C 102.492188 254.039062 103.117188 254.21875 105.066406 252.957031 Z M 236.414062 133.890625 C 236.90625 133.3125 237.398438 132.734375 238.035156 131.992188 C 236.140625 132.058594 235.984375 132.273438 236.414062 133.890625 Z M 227.230469 239.164062 C 225.144531 240.121094 223.074219 241.085938 221.015625 242.058594 C 218.953125 243.03125 216.644531 243.550781 214.871094 245 C 213.0625 246.40625 211.355469 247.992188 210.015625 250.351562 L 210.261719 250.820312 C 212.972656 251.058594 215.28125 250.464844 217.46875 249.636719 C 219.679688 248.851562 221.332031 247.078125 223.195312 245.707031 C 225.0625 244.335938 226.882812 242.898438 228.65625 241.40625 C 230.402344 239.871094 232.171875 238.378906 233.828125 236.746094 L 233.53125 236.304688 Z M 205.289062 81.414062 C 205.394531 81.316406 205.332031 80.867188 205.199219 80.75 C 205.0625 80.628906 204.640625 80.605469 204.519531 80.722656 C 203.929688 81.296875 203.394531 81.929688 202.84375 82.542969 C 203.007812 82.734375 203.171875 82.925781 203.335938 83.113281 C 203.992188 82.554688 204.671875 82.015625 205.289062 81.414062 Z M 236.414062 133.890625 C 236.402344 133.902344 236.390625 133.917969 236.378906 133.929688 L 236.378906 133.933594 C 236.394531 133.949219 236.40625 133.96875 236.421875 133.984375 C 236.425781 133.980469 236.429688 133.972656 236.433594 133.964844 C 236.425781 133.9375 236.421875 133.914062 236.414062 133.890625 Z M 216.972656 234.65625 C 218.949219 233.097656 220.882812 231.476562 222.761719 229.796875 C 224.613281 228.074219 226.484375 226.394531 228.242188 224.574219 L 227.929688 224.144531 L 221.246094 227.609375 L 214.644531 231.101562 C 212.453125 232.269531 209.996094 232.988281 208.105469 234.621094 C 206.1875 236.210938 204.367188 237.96875 202.953125 240.484375 L 203.21875 240.945312 C 206.113281 240.96875 208.574219 240.171875 210.894531 239.144531 C 213.246094 238.164062 214.996094 236.214844 216.972656 234.65625 Z M 258.46875 205.25 C 260.128906 203.792969 261.726562 202.269531 263.257812 200.675781 C 264.753906 199.046875 266.261719 197.449219 267.636719 195.714844 L 267.289062 195.3125 C 265.371094 196.394531 263.527344 197.542969 261.617188 198.585938 L 256 201.789062 C 254.128906 202.855469 251.980469 203.460938 250.417969 204.949219 C 248.820312 206.398438 247.320312 208.007812 246.203125 210.367188 L 246.472656 210.824219 C 249.089844 210.988281 251.277344 210.316406 253.3125 209.40625 C 255.382812 208.535156 256.8125 206.703125 258.46875 205.25 Z M 279.183594 90.792969 C 280.28125 91.875 281.816406 92.476562 283.332031 92.550781 C 283.464844 92.417969 283.597656 92.289062 283.726562 92.15625 C 284.089844 91.722656 284.464844 91.296875 284.835938 90.867188 C 282.90625 90.84375 281.175781 90.820312 279.183594 90.792969 Z M 237.972656 141.011719 C 237.953125 140.261719 238.03125 139.507812 238.070312 138.570312 C 237.308594 138.160156 236.550781 137.570312 237.523438 136.308594 C 237.703125 136.078125 237.234375 135.304688 237.003906 134.8125 C 236.863281 134.511719 236.625 134.257812 236.421875 133.984375 C 236.105469 134.59375 235.789062 135.203125 235.359375 136.027344 C 233.585938 136.59375 233.4375 136.980469 233.722656 139.214844 C 233.910156 140.691406 234.929688 142.152344 233.90625 143.726562 C 233.761719 143.949219 234.09375 144.480469 234.289062 145.171875 C 234.773438 144.488281 235.027344 144.132812 235.460938 143.523438 C 235.707031 144.625 235.890625 145.4375 236.078125 146.285156 C 235.5625 146.523438 235.070312 146.75 234.757812 146.898438 C 234.75 148.496094 234.746094 149.925781 234.742188 151.382812 C 237.132812 151.316406 235.644531 149.492188 236.15625 148.636719 C 236.90625 147.992188 237.992188 147.316406 238.089844 146.519531 C 238.308594 144.714844 238.019531 142.851562 237.972656 141.011719 Z M 310.695312 68.234375 C 310.113281 68.65625 309.527344 69.085938 308.945312 69.515625 L 308.941406 69.511719 C 308.941406 69.511719 307.472656 70.558594 305.632812 71.910156 C 305.066406 70.542969 306.546875 69.898438 306.972656 68.742188 C 306.460938 68.558594 306.050781 68.425781 305.652344 68.261719 C 304.625 67.835938 303.824219 67.722656 303.125 68.960938 C 302.753906 69.621094 301.464844 70.507812 301.121094 70.320312 C 299.230469 69.285156 298.691406 70.4375 298.054688 71.898438 C 299.699219 72.382812 300.871094 74.011719 302.605469 74.160156 C 301.933594 74.671875 301.289062 75.167969 300.710938 75.625 C 300.171875 75.695312 299.597656 75.832031 298.957031 75.925781 C 299.144531 76.183594 299.316406 76.410156 299.476562 76.632812 C 298.875 77.144531 298.476562 77.53125 298.402344 77.707031 C 298.402344 77.710938 298.402344 77.71875 298.402344 77.722656 C 293.53125 81.789062 288.921875 86.140625 284.835938 90.867188 C 284.878906 90.871094 284.914062 90.871094 284.953125 90.871094 C 284.960938 90.882812 284.96875 90.90625 284.972656 90.917969 C 284.550781 91.324219 284.136719 91.742188 283.726562 92.15625 C 279.203125 97.601562 275.402344 103.546875 272.734375 110.152344 C 272.308594 111.199219 271.929688 112.261719 271.566406 113.328125 C 270.808594 115.558594 270.195312 117.828125 269.683594 120.125 C 269.835938 120.777344 269.972656 121.429688 270.097656 122.085938 C 271.675781 130.414062 271.355469 139.09375 269.167969 147.28125 C 268.882812 148.34375 268.558594 149.394531 268.21875 150.433594 C 268.375 152.445312 268.558594 154.453125 268.773438 156.453125 C 270.574219 173.320312 273.972656 190.015625 278.855469 206.261719 C 288.023438 194.363281 295.230469 181.171875 299.359375 166.664062 C 302.140625 156.898438 303.46875 146.808594 304.722656 136.703125 C 306.21875 124.601562 307.601562 112.480469 311.222656 100.871094 C 315.863281 85.988281 324.136719 71.921875 329 57.269531 C 322.496094 60.015625 316.457031 64.070312 310.695312 68.234375 Z M 251.230469 191.78125 C 253.011719 190.007812 254.761719 188.195312 256.484375 186.355469 C 258.175781 184.472656 259.917969 182.652344 261.566406 180.722656 L 261.226562 180.3125 C 259.03125 181.59375 256.929688 182.984375 254.78125 184.3125 C 252.660156 185.683594 250.566406 187.085938 248.503906 188.519531 C 246.441406 189.953125 244.066406 191.015625 242.398438 192.929688 C 240.699219 194.796875 239.148438 196.847656 238.167969 199.578125 L 238.507812 199.984375 C 241.371094 199.507812 243.660156 198.347656 245.804688 197.003906 C 247.980469 195.707031 249.449219 193.558594 251.230469 191.78125 Z M 263.804688 213.136719 C 262.011719 214.050781 260.234375 214.980469 258.476562 215.929688 C 256.714844 216.875 254.679688 217.390625 253.246094 218.8125 C 251.78125 220.1875 250.429688 221.742188 249.511719 224.046875 L 249.796875 224.496094 C 252.273438 224.679688 254.289062 224.070312 256.164062 223.253906 C 258.074219 222.472656 259.359375 220.753906 260.890625 219.425781 C 262.425781 218.097656 263.917969 216.71875 265.363281 215.285156 C 266.78125 213.816406 268.226562 212.394531 269.566406 210.847656 L 269.246094 210.421875 C 267.394531 211.292969 265.628906 212.257812 263.804688 213.136719 Z M 199.757812 148.929688 C 199.945312 149.765625 200.132812 150.605469 200.320312 151.441406 C 200.449219 151.402344 200.582031 151.367188 200.714844 151.328125 C 200.527344 150.488281 200.339844 149.652344 200.152344 148.8125 C 200.019531 148.851562 199.886719 148.890625 199.757812 148.929688 Z M 155.6875 277.425781 C 155.765625 277.566406 155.855469 277.6875 155.925781 277.84375 C 156.007812 278.035156 156.09375 278.226562 156.175781 278.417969 C 156.625 278.113281 157.074219 277.820312 157.515625 277.503906 L 157.304688 277.019531 C 156.757812 277.140625 156.222656 277.285156 155.6875 277.425781 Z M 142.714844 265.539062 C 140.863281 266.113281 139.046875 266.8125 137.28125 267.640625 C 135.523438 268.453125 133.492188 268.976562 132.15625 270.46875 C 130.796875 271.90625 129.640625 273.601562 129.214844 275.953125 L 129.570312 276.347656 C 131.933594 276.203125 133.679688 275.523438 135.328125 274.730469 C 136.992188 273.984375 138.070312 272.402344 139.503906 271.261719 C 140.929688 270.128906 142.390625 269.011719 143.894531 267.921875 C 145.378906 266.785156 146.957031 265.78125 148.539062 264.714844 L 148.347656 264.21875 C 146.441406 264.503906 144.585938 265.011719 142.714844 265.539062 Z M 146.632812 280.105469 C 146.128906 280.277344 145.621094 280.445312 145.121094 280.625 C 143.140625 281.347656 140.9375 281.652344 139.242188 282.964844 C 137.527344 284.230469 135.929688 285.71875 134.777344 287.996094 L 135.027344 288.464844 C 137.558594 288.777344 139.660156 288.332031 141.660156 287.699219 C 143.683594 287.113281 145.21875 285.558594 146.984375 284.445312 C 147.164062 284.335938 147.34375 284.214844 147.523438 284.101562 C 147.367188 283.746094 147.203125 283.386719 147.050781 283.03125 C 146.601562 282.015625 146.503906 281.023438 146.632812 280.105469 Z M 129.320312 190.617188 C 128.828125 190.730469 128.335938 190.839844 127.710938 190.980469 C 127.773438 191.191406 127.832031 191.394531 127.890625 191.597656 C 128.386719 191.320312 128.886719 191.042969 129.382812 190.765625 C 129.363281 190.71875 129.34375 190.667969 129.320312 190.617188 Z M 119.757812 298.222656 C 117.914062 299.035156 116.109375 299.925781 114.34375 300.890625 C 112.582031 301.851562 110.535156 302.46875 109.179688 304.007812 C 107.792969 305.496094 106.574219 307.199219 105.988281 309.589844 L 106.328125 310 C 108.777344 309.878906 110.648438 309.132812 112.398438 308.230469 C 114.175781 307.378906 115.3125 305.671875 116.78125 304.375 L 125.648438 296.480469 L 125.378906 296.023438 C 123.460938 296.652344 121.621094 297.449219 119.757812 298.222656 Z M 144.941406 249.945312 C 142.707031 250.585938 140.503906 251.355469 138.347656 252.257812 C 136.195312 253.152344 133.804688 253.734375 132.039062 255.335938 C 130.257812 256.886719 128.652344 258.707031 127.722656 261.253906 L 128.039062 261.679688 C 130.730469 261.484375 132.855469 260.710938 134.902344 259.8125 C 136.964844 258.96875 138.492188 257.253906 140.347656 256.007812 C 142.199219 254.769531 144.082031 253.558594 146.007812 252.378906 C 147.914062 251.152344 149.90625 250.070312 151.902344 248.929688 L 151.730469 248.429688 C 149.4375 248.773438 147.195312 249.347656 144.941406 249.945312 Z M 128.140625 192.453125 C 128.058594 192.171875 127.976562 191.886719 127.890625 191.597656 C 127.746094 191.679688 127.605469 191.757812 127.460938 191.839844 C 127.6875 192.042969 127.914062 192.246094 128.140625 192.453125 Z M 157.183594 150.976562 C 157.6875 150.066406 158.011719 149.484375 158.414062 148.761719 C 156.730469 148.730469 156.496094 149.398438 157.183594 150.976562 Z M 188.464844 261.527344 C 186.765625 261.886719 185.089844 262.324219 183.4375 262.84375 C 181.789062 263.359375 179.917969 263.484375 178.566406 264.636719 C 177.363281 265.597656 176.285156 266.773438 175.535156 268.464844 C 177.046875 267.820312 178.785156 268.003906 180.226562 269.542969 C 180.488281 269.480469 180.75 269.425781 181.007812 269.355469 C 182.644531 268.953125 183.804688 267.601562 185.21875 266.703125 L 189.46875 263.988281 C 190.875 263.027344 192.339844 262.167969 193.777344 261.203125 L 193.601562 260.703125 C 191.867188 260.871094 190.179688 261.214844 188.464844 261.527344 Z M 197.84375 165.296875 C 197.640625 166.699219 197.472656 167.878906 197.300781 169.050781 C 199.199219 167.402344 199.25 166.855469 197.84375 165.296875 Z M 181.539062 253.453125 C 183.328125 252.386719 185.191406 251.464844 187.066406 250.476562 L 186.917969 249.964844 C 184.789062 250.144531 182.699219 250.550781 180.59375 250.96875 C 178.503906 251.433594 176.433594 252.027344 174.40625 252.742188 C 172.386719 253.457031 170.132812 253.835938 168.453125 255.261719 C 166.761719 256.632812 165.234375 258.277344 164.339844 260.675781 L 164.640625 261.113281 C 167.179688 261.148438 169.183594 260.574219 171.105469 259.867188 C 173.039062 259.214844 174.484375 257.65625 176.226562 256.585938 C 177.964844 255.515625 179.734375 254.472656 181.539062 253.453125 Z M 198.671875 178.855469 C 198.652344 178.941406 198.632812 179.03125 198.613281 179.121094 C 199.226562 179.320312 199.84375 179.519531 200.558594 179.753906 C 200.539062 179.585938 200.480469 179.050781 200.417969 178.464844 C 199.730469 178.617188 199.199219 178.734375 198.671875 178.855469 Z M 160.148438 143.636719 C 160.089844 143.738281 160.289062 144.144531 160.355469 144.140625 C 160.902344 144.109375 161.492188 144.117188 161.980469 143.90625 C 162.304688 143.765625 162.566406 143.316406 162.699219 142.949219 C 162.90625 142.359375 162.984375 141.722656 163.183594 140.789062 C 162.632812 140.914062 161.957031 140.859375 161.699219 141.164062 C 161.074219 141.894531 160.628906 142.785156 160.148438 143.636719 Z M 111.234375 292.875 C 112.300781 291.585938 113.484375 290.402344 114.671875 289.15625 L 114.386719 288.703125 C 112.730469 289.246094 111.167969 290.003906 109.59375 290.785156 C 108.042969 291.609375 106.554688 292.554688 105.140625 293.613281 C 103.734375 294.664062 101.992188 295.492188 101.152344 297.113281 C 100.277344 298.6875 99.660156 300.46875 99.929688 302.691406 L 100.367188 302.992188 C 102.519531 302.433594 103.929688 301.53125 105.21875 300.53125 C 106.535156 299.585938 107.089844 297.953125 108.097656 296.667969 C 109.097656 295.394531 110.140625 294.128906 111.234375 292.875 Z M 283.40625 80.332031 C 283.1875 79.355469 283.019531 78.605469 282.820312 77.707031 C 282.261719 78.386719 281.882812 78.84375 281.445312 79.375 C 282.105469 79.695312 282.648438 79.964844 283.40625 80.332031 Z M 271.757812 75.289062 C 272.59375 76.46875 273.300781 77.460938 274.09375 78.570312 C 274.644531 76.453125 273.851562 75.214844 271.757812 75.289062 Z M 266.796875 77.136719 C 268.363281 77.4375 268.722656 76.507812 268.992188 75.289062 C 267.929688 75.226562 267.136719 75.023438 266.660156 73.839844 C 266.425781 73.261719 265.171875 72.347656 264.09375 73.613281 C 264.203125 74.28125 264.324219 75.027344 264.476562 75.929688 C 265.925781 75.3125 266.507812 76.136719 266.796875 77.136719 Z M 267.421875 63.144531 C 267.695312 62.738281 267.898438 62.4375 268.097656 62.136719 C 267.222656 61.871094 266.347656 61.605469 265.46875 61.34375 C 265.402344 61.597656 265.222656 62.046875 265.28125 62.078125 C 265.90625 62.441406 266.570312 62.738281 267.421875 63.144531 Z M 275.140625 74.484375 C 275.171875 74.351562 275.203125 74.21875 275.238281 74.085938 C 274.980469 73.804688 274.753906 73.484375 274.457031 73.253906 C 274.265625 73.105469 273.972656 73.085938 273.722656 73.011719 C 273.742188 73.378906 273.621094 73.925781 273.808594 74.070312 C 274.160156 74.335938 274.6875 74.359375 275.140625 74.484375 Z M 266.613281 85.8125 C 266.671875 85.636719 266.523438 85.21875 266.386719 85.179688 C 265.554688 84.929688 264.703125 84.761719 263.460938 84.472656 C 263.800781 85.519531 263.980469 86.078125 264.15625 86.621094 C 264.785156 86.484375 265.421875 86.367188 266.042969 86.199219 C 266.261719 86.144531 266.554688 85.988281 266.613281 85.8125 Z M 260.328125 90.285156 C 261.101562 90.109375 261.894531 89.933594 262.539062 89.789062 C 263.265625 90.679688 263.90625 91.472656 264.601562 92.328125 C 265.128906 92.128906 265.636719 91.9375 265.871094 91.847656 C 266.070312 90.851562 266.222656 90.109375 266.410156 89.152344 C 265.742188 88.5625 264.902344 87.828125 264.085938 87.070312 C 264.023438 87.015625 264.085938 86.828125 264.109375 86.683594 C 263.269531 86.828125 262.425781 86.941406 261.597656 87.140625 C 259.449219 87.652344 259.253906 88.152344 260.328125 90.285156 Z M 281.386719 52.726562 C 282.0625 53.144531 282.890625 53.398438 283.6875 53.515625 C 284.113281 53.574219 284.605469 53.203125 285.117188 53.007812 C 284.605469 52.167969 284.277344 51.5 283.824219 50.925781 C 283.503906 50.515625 282.847656 49.859375 282.640625 49.957031 C 282.035156 50.238281 281.449219 50.765625 281.113281 51.347656 C 280.929688 51.671875 281.101562 52.546875 281.386719 52.726562 Z M 262.1875 81.199219 C 263.46875 80.742188 264.261719 81.394531 264.992188 82.3125 C 265.265625 82.652344 265.574219 83.03125 265.949219 83.203125 C 266.714844 83.554688 267.734375 83.566406 268.300781 84.09375 C 269.769531 85.46875 271.273438 86.203125 273.304688 85.519531 C 273.570312 85.433594 274.285156 85.847656 274.316406 86.085938 C 274.359375 86.464844 274.058594 86.9375 273.792969 87.285156 C 273.636719 87.492188 273.269531 87.550781 272.992188 87.675781 C 273.109375 88.191406 273.207031 88.632812 273.289062 88.996094 C 274.289062 89.238281 275.179688 89.453125 276.113281 89.679688 C 276.246094 88.058594 274.441406 86.714844 275.976562 85.535156 C 275.550781 84.910156 275.164062 84.457031 274.90625 83.9375 C 274.402344 82.921875 272.679688 81.894531 271.570312 82.011719 C 271.285156 82.039062 270.9375 82.089844 270.707031 81.96875 C 269.171875 81.160156 267.65625 80.074219 266.242188 82.292969 C 265.488281 81.136719 264.832031 80.128906 264.007812 78.863281 C 262.988281 79.449219 261.835938 80.113281 260.679688 80.78125 C 260.976562 81.644531 261.613281 81.402344 262.1875 81.199219 Z M 264.117188 86.632812 C 264.117188 86.648438 264.113281 86.664062 264.109375 86.683594 C 264.132812 86.679688 264.152344 86.675781 264.175781 86.671875 C 264.167969 86.65625 264.164062 86.640625 264.15625 86.621094 C 264.144531 86.625 264.128906 86.628906 264.113281 86.632812 C 264.113281 86.632812 264.117188 86.632812 264.117188 86.632812 Z M 260.660156 80.792969 C 260.667969 80.789062 260.675781 80.785156 260.679688 80.78125 C 260.679688 80.777344 260.679688 80.777344 260.679688 80.777344 C 260.671875 80.777344 260.667969 80.777344 260.664062 80.777344 C 260.664062 80.78125 260.660156 80.785156 260.660156 80.792969 Z M 260.664062 80.777344 C 260.769531 79.804688 262.273438 78.992188 261 77.859375 C 258.820312 78.046875 257.625 79.378906 258.167969 81.070312 C 258.992188 80.976562 259.828125 80.875 260.664062 80.777344 Z M 272.210938 97.707031 C 272.804688 98.378906 273.402344 99.050781 274.230469 99.980469 C 274.378906 98.140625 274.378906 98.140625 272.558594 97.398438 C 272.441406 97.503906 272.328125 97.605469 272.210938 97.707031 Z M 281.136719 61.214844 C 280.386719 60.976562 279.816406 60.726562 279.226562 60.632812 C 278.640625 60.539062 278.03125 60.601562 277.429688 60.597656 C 277.410156 60.800781 277.390625 61.003906 277.371094 61.210938 C 278.652344 61.65625 279.933594 62.101562 281.453125 62.628906 C 281.300781 61.953125 281.195312 61.472656 281.136719 61.214844 Z M 293.523438 61.671875 C 293.335938 62.296875 293.234375 62.949219 293.035156 63.867188 C 294.339844 63.574219 295.179688 63.386719 296.011719 63.199219 C 296.484375 61.585938 297.386719 60.457031 299.777344 60.609375 C 299.0625 59.757812 298.761719 59.199219 298.292969 58.914062 C 298.074219 58.78125 297.511719 59.125 297.148438 59.332031 C 296.800781 59.535156 296.402344 60.121094 296.214844 60.050781 C 295.8125 59.898438 295.453125 59.472656 295.230469 59.074219 C 295.019531 58.695312 295.011719 58.210938 294.925781 57.832031 C 293.257812 57.566406 292.710938 58.429688 292.472656 59.832031 C 293.992188 59.839844 293.816406 60.703125 293.523438 61.671875 Z M 295.929688 65.917969 C 298.054688 66.03125 296.109375 67.007812 296.253906 67.472656 C 297.859375 68.605469 297.851562 68.597656 299.1875 67.316406 C 299.355469 67.15625 299.648438 67.054688 299.886719 67.050781 C 301.226562 67.019531 301.808594 66.152344 302.058594 65.558594 C 301.394531 64.210938 300.921875 63.253906 300.367188 62.121094 C 299.921875 62.332031 299.121094 62.449219 298.957031 62.839844 C 298.484375 63.949219 297.886719 63.730469 297.085938 63.351562 C 296.78125 63.203125 296.382812 63.265625 296.023438 63.238281 C 295.949219 63.558594 295.832031 63.878906 295.828125 64.199219 C 295.820312 64.796875 295.859375 65.914062 295.929688 65.917969 Z M 295.996094 63.238281 C 296.007812 63.238281 296.015625 63.238281 296.023438 63.238281 C 296.027344 63.226562 296.03125 63.210938 296.035156 63.195312 C 296.027344 63.195312 296.019531 63.199219 296.011719 63.199219 C 296.007812 63.210938 296.003906 63.222656 296 63.234375 Z M 283.609375 82.386719 C 284.347656 82.59375 285.117188 82.695312 286.027344 82.859375 C 285.9375 81.949219 285.886719 81.453125 285.804688 80.644531 C 284.894531 81.003906 284.128906 81.296875 283.386719 81.640625 C 283.347656 81.660156 283.46875 82.347656 283.609375 82.386719 Z M 297.382812 58.089844 C 297.605469 57.539062 297.824219 56.988281 298.125 56.242188 C 297.566406 56.308594 297.113281 56.359375 296.472656 56.433594 C 296.699219 57.125 296.863281 57.628906 297.03125 58.128906 C 297.148438 58.117188 297.265625 58.105469 297.382812 58.089844 Z M 314.5 60.730469 C 314.242188 58.984375 313.867188 58.867188 311.761719 59.859375 C 312.136719 61.53125 312.410156 61.617188 314.5 60.730469 Z M 292.398438 68.8125 C 292.238281 68.101562 292.132812 67.632812 292.015625 67.105469 C 291.472656 67.230469 290.972656 67.339844 290.054688 67.546875 C 291.054688 68.085938 291.625 68.394531 292.398438 68.8125 Z M 289.460938 76.832031 C 289.171875 75.144531 288.363281 75.003906 285.742188 76.226562 C 286.179688 77.960938 287.226562 78.105469 289.460938 76.832031 Z M 284.285156 69.230469 C 284.140625 69.121094 283.992188 69.011719 283.847656 68.902344 C 283.332031 69.019531 282.8125 69.132812 282.21875 69.265625 C 282.351562 69.863281 282.46875 70.382812 282.585938 70.898438 C 282.734375 70.96875 282.886719 71.039062 283.039062 71.109375 C 283.453125 70.484375 283.871094 69.859375 284.285156 69.230469 Z M 291.796875 73.761719 C 291.175781 73.898438 290.65625 74.015625 290.042969 74.152344 C 290.09375 74.742188 290.136719 75.269531 290.191406 75.917969 C 290.925781 75.804688 291.507812 75.714844 292.207031 75.605469 C 292.039062 74.847656 291.921875 74.328125 291.796875 73.761719 Z M 290.476562 66.246094 C 290.886719 65.644531 291.238281 65.128906 291.679688 64.484375 C 289.878906 63.960938 288.828125 62.894531 289.042969 60.8125 C 288.222656 61.054688 287.667969 61.21875 286.839844 61.460938 C 287.507812 62.4375 287.996094 63.222656 288.554688 63.953125 C 289.15625 64.738281 289.824219 65.472656 290.476562 66.246094 Z M 288.210938 80.8125 C 289.46875 80.882812 290.269531 80.929688 291.300781 80.988281 C 291.589844 79.570312 290.765625 78.730469 289.226562 78.136719 C 288.90625 78.980469 288.578125 79.847656 288.210938 80.8125 Z M 243.484375 126.515625 C 243.671875 126.476562 243.855469 126.4375 244.042969 126.398438 C 243.949219 125.640625 243.878906 124.871094 243.746094 124.117188 C 243.726562 123.996094 243.398438 123.804688 243.308594 123.847656 C 243.128906 123.933594 242.867188 124.1875 242.894531 124.320312 C 243.050781 125.0625 243.28125 125.785156 243.484375 126.515625 Z M 234.730469 111.472656 C 233.949219 112.84375 232.941406 113.855469 232.945312 115.539062 C 232.945312 116.824219 231.433594 118.003906 232.351562 119.570312 C 235.929688 117.265625 236.765625 114.414062 234.730469 111.472656 Z M 238.214844 109.039062 C 237.753906 108.769531 237.304688 108.503906 236.621094 108.101562 C 236.847656 109.117188 237.011719 109.851562 237.230469 110.824219 C 237.664062 110.035156 237.933594 109.550781 238.214844 109.039062 Z M 236.203125 123.824219 C 236.6875 122.800781 236.964844 122.210938 237.316406 121.460938 C 236.664062 121.554688 236.222656 121.617188 235.722656 121.6875 C 235.867188 122.320312 235.988281 122.867188 236.203125 123.824219 Z M 242.707031 119.125 C 242.378906 118.40625 242.132812 117.867188 241.882812 117.328125 C 241.566406 117.902344 241.246094 118.480469 240.820312 119.257812 C 241.542969 119.203125 241.980469 119.175781 242.707031 119.125 Z M 239.515625 132.902344 C 239.480469 133.582031 239.460938 134.261719 239.429688 134.941406 C 240.445312 134.253906 241.300781 133.625 241.46875 132.847656 C 241.632812 132.074219 243.636719 131.148438 241.839844 130.511719 C 241.953125 128.617188 242.054688 126.910156 242.15625 125.199219 C 242.007812 125.0625 241.855469 124.929688 241.703125 124.792969 C 240.988281 125.265625 239.886719 125.585938 239.628906 126.238281 C 238.957031 127.9375 238.945312 129.765625 239.59375 131.554688 C 239.730469 131.945312 239.539062 132.449219 239.515625 132.902344 Z M 226.171875 117.640625 C 226.28125 117.714844 226.429688 117.734375 226.894531 117.894531 C 226.328125 116.574219 228.28125 115.527344 226.796875 114.207031 C 226.640625 114.386719 226.527344 114.484375 226.453125 114.609375 C 226.351562 114.769531 226.3125 114.988281 226.183594 115.113281 C 224.835938 116.414062 224.824219 116.734375 226.171875 117.640625 Z M 224.023438 88.503906 C 223.570312 89.449219 223.292969 90.039062 222.964844 90.730469 C 224.605469 90.746094 224.722656 90.03125 224.023438 88.503906 Z M 222.054688 33.871094 C 222.371094 32.765625 222.386719 31.621094 222.957031 30.9375 C 223.90625 29.800781 223.324219 28.910156 223.058594 27.75 C 222.121094 27.960938 221.292969 28.144531 220.546875 28.3125 C 220.207031 27.457031 219.921875 26.734375 219.636719 26.011719 C 219.515625 26.035156 219.394531 26.058594 219.273438 26.082031 C 219.199219 26.605469 219.128906 27.128906 219.054688 27.640625 C 218.570312 27.820312 218.105469 27.996094 217.65625 28.164062 C 217.921875 29.351562 218.164062 30.4375 218.421875 31.597656 C 220.445312 31.015625 221.03125 32.699219 222.054688 33.871094 Z M 225.769531 127.65625 C 225.929688 127.503906 226.15625 127.375 226.234375 127.1875 C 226.882812 125.652344 227.203125 123.867188 228.203125 122.632812 C 229.289062 121.292969 228.285156 120.28125 228.324219 119.140625 C 228.328125 118.988281 228.019531 118.714844 227.839844 118.699219 C 227.683594 118.691406 227.449219 118.929688 227.34375 119.113281 C 226.707031 120.203125 226.097656 121.308594 225.425781 122.507812 C 225.738281 122.769531 225.996094 122.988281 226.039062 123.027344 C 225.753906 124.507812 225.484375 125.765625 225.289062 127.035156 C 225.261719 127.214844 225.601562 127.449219 225.769531 127.65625 Z M 241.308594 89.773438 C 241.839844 88.863281 242.367188 87.953125 242.898438 87.046875 C 242.769531 86.878906 242.644531 86.714844 242.515625 86.550781 C 241.917969 87.054688 241.171875 87.464844 240.777344 88.09375 C 240.535156 88.480469 240.832031 89.203125 240.886719 89.773438 C 241.027344 89.773438 241.167969 89.773438 241.308594 89.773438 Z M 227.019531 141.585938 C 227.785156 139.804688 228.5625 138.011719 229.085938 136.152344 C 229.277344 135.464844 228.789062 134.582031 228.578125 133.625 C 227.683594 133.929688 226.886719 134.199219 226.148438 134.449219 C 226.214844 135.445312 226.511719 136.335938 226.277344 137.054688 C 225.746094 138.664062 225.222656 140.222656 225.777344 142.195312 C 226.328125 141.941406 226.902344 141.859375 227.019531 141.585938 Z M 265.910156 96.246094 C 265.132812 97.109375 264.136719 97.714844 264.105469 98.363281 C 264.042969 99.699219 264.496094 101.0625 264.734375 102.417969 C 264.945312 102.378906 265.15625 102.339844 265.371094 102.300781 C 265.285156 101.53125 265.203125 100.765625 265.113281 99.980469 C 266.417969 99.019531 266.6875 98.230469 265.910156 96.246094 Z M 229.050781 96.121094 C 228.722656 95.617188 228.398438 95.109375 228.074219 94.601562 C 227.695312 95.179688 227.320312 95.757812 226.941406 96.335938 C 227.507812 96.449219 228.074219 96.5625 228.640625 96.679688 C 228.777344 96.492188 228.914062 96.308594 229.050781 96.121094 Z M 259.515625 95.804688 C 260.566406 96.078125 261.332031 96.28125 262.136719 96.492188 C 262.421875 95.96875 262.742188 95.386719 263.058594 94.800781 C 261.6875 94.605469 260.503906 94.433594 259.167969 94.238281 C 259.34375 95.03125 259.472656 95.59375 259.515625 95.804688 Z M 251.78125 132.316406 C 251.710938 131.425781 253.570312 130.777344 252.148438 129.675781 C 251.308594 130.476562 250.609375 131.238281 251.78125 132.316406 Z M 253.675781 98.511719 C 253.847656 98.257812 254.015625 98 254.351562 97.5 C 253.390625 97.714844 252.820312 97.84375 252.097656 98.003906 C 252.339844 98.585938 252.527344 99.023438 252.828125 99.734375 C 253.246094 99.132812 253.460938 98.820312 253.675781 98.511719 Z M 255.828125 93.339844 C 255.816406 93.304688 255.351562 93.316406 255.28125 93.425781 C 254.941406 93.980469 254.664062 94.566406 254.210938 95.4375 C 255.128906 95.230469 255.613281 95.121094 256.300781 94.96875 C 256.15625 94.4375 256.011719 93.878906 255.828125 93.339844 Z M 220.660156 143.96875 C 223.390625 143 220.601562 140.652344 221.792969 139.757812 C 221.535156 138.921875 221.328125 138.296875 221.15625 137.660156 C 220.976562 137.003906 220.832031 136.335938 220.683594 135.667969 C 220.675781 135.640625 220.769531 135.597656 220.777344 135.554688 C 220.902344 134.925781 221.015625 134.296875 221.132812 133.664062 C 219.550781 134.292969 219.1875 135.207031 219.621094 136.574219 C 219.984375 137.730469 220.5625 139.164062 220.179688 140.128906 C 219.539062 141.742188 220.304688 142.734375 220.660156 143.96875 Z M 256.421875 78.476562 C 256.246094 77.683594 256.058594 76.847656 255.898438 76.132812 C 255.019531 76.085938 254.257812 76.046875 253.210938 75.988281 C 252.558594 76.570312 251.652344 77.382812 250.597656 78.328125 C 252.863281 79.367188 254.617188 79.78125 256.421875 78.476562 Z M 255.949219 118.992188 C 253.890625 119.144531 253.980469 121.128906 253.050781 121.96875 C 253.640625 122.699219 254.136719 123.3125 254.761719 124.089844 C 255.207031 122.28125 256.722656 120.960938 255.949219 118.992188 Z M 247.324219 80.960938 C 247.175781 80.867188 246.347656 81.863281 245.601562 82.582031 C 246.8125 83.019531 247.71875 83.351562 248.574219 83.660156 C 249.3125 81.863281 248.109375 81.449219 247.324219 80.960938 Z M 244.429688 91.867188 C 244.617188 91.527344 244.789062 91.175781 245.003906 90.855469 C 245.136719 90.65625 245.339844 90.503906 245.761719 90.074219 C 245.191406 90.074219 244.902344 89.996094 244.824219 90.089844 C 244.507812 90.480469 244.226562 90.910156 244.007812 91.359375 C 243.96875 91.441406 244.28125 91.691406 244.429688 91.867188 Z M 248.027344 133.808594 C 248.171875 133.941406 248.3125 134.074219 248.453125 134.210938 C 249.011719 133.597656 249.570312 132.984375 250.34375 132.140625 C 248.40625 131.792969 248.660156 133.242188 248.027344 133.808594 Z M 250.707031 9.445312 C 249.933594 9.46875 249.40625 9.484375 248.683594 9.507812 C 248.90625 10.246094 249.066406 10.796875 249.34375 11.71875 C 249.882812 10.816406 250.226562 10.242188 250.707031 9.445312 Z M 248.945312 74.460938 C 248.339844 74.597656 247.875 74.699219 247.058594 74.882812 C 247.453125 74.113281 247.730469 73.574219 248.15625 72.742188 C 248.488281 73.464844 248.6875 73.894531 248.945312 74.460938" fill="#f6ac43"/></g></g></svg>