<?xml version="1.0" encoding="UTF-8"?><svg xmlns="http://www.w3.org/2000/svg" xmlns:xlink="http://www.w3.org/1999/xlink" height="443.0" preserveAspectRatio="xMidYMid meet" version="1.0" viewBox="-2.1 0.0 472.0 443.0" width="472.0" zoomAndPan="magnify"><g><g id="change1_1"><path d="M 455.054688 390.5 C 450.054688 382.5 431.054688 376.5 440.054688 367.5 C 441.441406 365.417969 443.792969 368.632812 446.773438 370.460938 C 447.742188 367.761719 448.027344 364.703125 448.019531 361.820312 C 448.210938 361.558594 448.339844 361.238281 448.371094 360.871094 C 449.429688 345.390625 440.53125 329.121094 428.710938 319.210938 C 423.101562 314.488281 416.601562 310.730469 409.558594 308.339844 C 400.988281 305.421875 391.75 305.75 383.128906 303.171875 C 381.351562 301.371094 379.289062 299.878906 377.761719 297.769531 C 375.890625 295.21875 374.539062 292.449219 373.671875 289.429688 C 373.480469 288.769531 373 288.441406 372.46875 288.351562 C 372.21875 287.808594 371.828125 287.339844 371.339844 286.960938 C 368.578125 284.820312 363.871094 285.691406 360.699219 286.289062 C 360.460938 286.339844 360.238281 286.441406 360.039062 286.558594 L 359.921875 286.519531 C 337.589844 280.871094 320.359375 298.269531 307.96875 313.75 C 299.609375 315.988281 291.589844 315.558594 284.261719 311.660156 C 280.289062 306.96875 278.371094 301.28125 277.191406 295.339844 C 277.390625 295.511719 277.609375 295.671875 277.820312 295.839844 C 276.800781 292.75 276.039062 289.578125 275.621094 286.289062 C 275.570312 285.878906 275.589844 285.511719 275.640625 285.128906 C 274.191406 273.890625 272 262.851562 267.578125 252.320312 C 264.089844 244.011719 259.101562 236.210938 252.789062 229.730469 C 260.988281 208.410156 259.96875 185.339844 260.488281 162.96875 C 260.828125 148.335938 261.753906 133.699219 263.375 119.132812 C 259.832031 126.0625 256.359375 133.195312 251.054688 138.5 C 247.054688 141.5 241.054688 137.5 240.054688 132.5 C 237.054688 115.5 251.054688 97.5 240.054688 83.5 C 237.054688 80.5 227.054688 83.5 225.054688 90.5 C 223.054688 98.5 220.054688 107.5 212.054688 111.5 C 209.054688 112.5 205.054688 111.5 203.054688 108.5 C 201.054688 101.5 205.054688 95.5 204.054688 88.5 C 203.054688 83.5 197.054688 83.5 194.054688 86.5 C 186.054688 94.5 176.054688 115.5 167.054688 105.5 C 162.105469 99.0625 162.304688 91.648438 164.371094 83.980469 C 146.78125 116.125 136.15625 150.488281 128.75 186.011719 C 124.335938 207.191406 120.03125 228.394531 115.773438 249.597656 C 117.628906 258.210938 117.117188 266.957031 114.867188 275.335938 C 115.242188 275.230469 115.617188 275.117188 116 275.03125 C 105.410156 312.320312 119.890625 355.128906 147.941406 381.621094 C 147.601562 381.539062 147.261719 381.449219 146.921875 381.371094 C 146.386719 381.242188 145.898438 381.320312 145.496094 381.519531 C 145.96875 381.878906 146.476562 382.210938 147.054688 382.5 C 146.476562 382.210938 145.96875 381.878906 145.496094 381.519531 L 145.390625 381.570312 C 145.222656 381.503906 145.054688 381.445312 144.882812 381.386719 C 166.140625 395.363281 191.429688 378.386719 214.054688 376.5 C 216.054688 376.5 217.054688 380.5 216.054688 383.5 C 212.054688 390.5 204.054688 395.5 207.054688 404.5 C 210.054688 410.5 220.054688 409.5 222.054688 416.5 C 222.515625 418.339844 222.714844 420.113281 222.714844 421.835938 C 229.480469 420.878906 236.234375 419.820312 242.96875 418.699219 C 260.910156 415.71875 278.789062 412.378906 296.789062 409.800781 C 297.800781 409.648438 298.808594 409.511719 299.828125 409.359375 L 299.800781 409.300781 C 304.238281 409.570312 308.53125 410.261719 313.011719 411.769531 C 319.320312 413.898438 325.308594 416.859375 331.429688 419.46875 C 342.769531 424.308594 354.601562 428.128906 366.898438 429.359375 C 386.953125 431.378906 408.761719 424.636719 420.195312 407.195312 C 426.3125 393.539062 443.144531 395.464844 455.054688 390.5" fill="#c4ae8f"/></g><g id="change2_1"><path d="M 376.304688 370.25 C 370.957031 370.25 357.402344 369.148438 346.566406 358.820312 C 336.546875 349.273438 334.507812 337.226562 333.585938 331.773438 C 332.976562 328.175781 333.179688 322.703125 333.585938 311.761719 C 333.929688 302.460938 334.519531 297.140625 335.269531 293.972656 C 340.085938 291.523438 345.265625 289.980469 350.839844 289.859375 C 342.734375 292.660156 337.183594 301.671875 342.3125 310.207031 C 342.648438 310.761719 343.238281 311.007812 343.835938 311.007812 C 344.921875 311.007812 346.011719 310.191406 345.558594 308.976562 C 343.785156 304.25 343.804688 299.089844 347.632812 295.222656 C 349.945312 292.882812 353.054688 291.773438 356.21875 291.773438 C 357.855469 291.773438 359.503906 292.066406 361.070312 292.640625 C 361.246094 292.703125 361.410156 292.730469 361.5625 292.730469 C 361.609375 292.730469 361.65625 292.726562 361.699219 292.722656 C 363.574219 294.6875 365.789062 296.300781 368.34375 297.488281 C 368.714844 297.660156 369.140625 297.761719 369.558594 297.761719 C 370.257812 297.761719 370.941406 297.480469 371.320312 296.8125 C 371.679688 296.179688 371.941406 295.511719 372.089844 294.847656 C 374.113281 299.785156 377.582031 304.746094 382.398438 306.597656 C 382.59375 306.671875 382.777344 306.707031 382.949219 306.707031 C 383.296875 306.707031 383.597656 306.570312 383.832031 306.347656 C 390.320312 308.324219 397.164062 308.683594 403.710938 310.535156 C 407.1875 312.917969 410.289062 316.164062 412.707031 319.839844 C 411.289062 320.21875 410.144531 321.371094 410.496094 322.933594 C 409.09375 326.453125 408.222656 331.078125 410.285156 334.363281 C 411.160156 335.769531 412.203125 336.355469 413.230469 336.355469 C 414.824219 336.355469 416.378906 334.925781 417.179688 332.941406 C 417.328125 332.5625 417.464844 332.148438 417.574219 331.703125 C 417.808594 332.992188 417.941406 334.285156 417.96875 335.5625 C 418.339844 353.523438 397.46875 368.78125 378.480469 370.179688 C 378.175781 370.203125 377.417969 370.25 376.304688 370.25 M 352.238281 334.785156 C 349.765625 337.679688 348.273438 341.4375 348.273438 345.539062 C 348.273438 354.699219 355.699219 362.121094 364.855469 362.121094 C 374.011719 362.121094 381.433594 354.699219 381.433594 345.539062 C 381.433594 338.292969 376.78125 332.132812 370.300781 329.878906 C 370.339844 322.679688 367.152344 316.128906 362.070312 310.730469 C 361.921875 310.570312 361.746094 310.503906 361.574219 310.503906 C 361.378906 310.503906 361.191406 310.589844 361.058594 310.730469 C 360.910156 310.570312 360.738281 310.503906 360.566406 310.503906 C 360.046875 310.503906 359.570312 311.144531 360.019531 311.648438 C 364.292969 316.546875 366.007812 322.710938 366.023438 329.003906 C 365.636719 328.976562 365.246094 328.964844 364.855469 328.964844 C 360.679688 328.964844 356.863281 330.507812 353.949219 333.054688 C 358.308594 327.71875 359.003906 318.628906 357.394531 312.636719 C 357.300781 312.28125 357.023438 312.125 356.753906 312.125 C 356.558594 312.125 356.363281 312.207031 356.238281 312.355469 C 356.109375 312.199219 355.929688 312.128906 355.746094 312.128906 C 355.378906 312.128906 355.011719 312.421875 355.097656 312.90625 C 356.289062 319.691406 353.835938 330.28125 347.292969 333.738281 C 345.804688 334.53125 346.601562 336.539062 347.988281 336.539062 C 348.152344 336.539062 348.324219 336.511719 348.503906 336.449219 C 348.65625 336.511719 348.820312 336.542969 348.996094 336.542969 C 349.199219 336.542969 349.414062 336.496094 349.636719 336.398438 C 350.59375 335.976562 351.457031 335.433594 352.238281 334.785156 M 397.53125 327.289062 C 396.226562 330.453125 393.480469 331.8125 390.945312 334.082031 C 389.878906 335.058594 390.832031 336.917969 392.148438 336.917969 C 392.191406 336.917969 392.234375 336.917969 392.277344 336.914062 C 397.460938 336.449219 401.085938 330.324219 401.355469 325.484375 C 401.648438 320.144531 398.851562 315.871094 394.394531 313.28125 C 394.277344 313.214844 394.164062 313.1875 394.050781 313.1875 C 393.679688 313.1875 393.359375 313.511719 393.28125 313.875 C 391.429688 312.878906 389.210938 312.351562 387.035156 312.351562 C 384.402344 312.351562 381.835938 313.121094 380.035156 314.78125 C 375.355469 319.117188 380.777344 325.09375 384.925781 327.136719 C 386.734375 328.035156 389.460938 328.742188 392.101562 328.742188 C 394.109375 328.742188 396.066406 328.335938 397.53125 327.289062 M 413.230469 332.628906 C 412.882812 332.628906 412.679688 332.136719 412.417969 331.511719 C 412.078125 330.707031 412.078125 329.507812 412.058594 328.648438 C 412.019531 327.136719 412.238281 325.675781 412.628906 324.246094 L 412.640625 324.246094 C 412.820312 324.136719 412.988281 323.972656 413.121094 323.753906 C 413.230469 323.5625 413.335938 323.480469 413.4375 323.480469 C 414.09375 323.480469 414.546875 326.898438 414.582031 327.421875 C 414.691406 328.730469 414.863281 331.191406 413.890625 332.21875 C 413.617188 332.507812 413.40625 332.628906 413.230469 332.628906" fill="#7d6048"/></g><g id="change3_1"><path d="M 207.054688 404.5 C 204.054688 395.5 212.054688 390.5 216.054688 383.5 C 217.054688 380.5 216.054688 376.5 214.054688 376.5 C 191.429688 378.386719 166.140625 395.363281 144.882812 381.386719 C 137.566406 378.859375 129.421875 385.234375 131.640625 393.160156 C 128.511719 396.25 127.671875 401.5 129.980469 405.238281 C 130.640625 406.320312 131.511719 407.199219 132.511719 407.890625 C 130.308594 409.949219 131.269531 414.289062 132.441406 416.628906 C 133.46875 418.699219 135.050781 420.21875 137 421.289062 C 136.769531 422.339844 137.210938 423.488281 138.511719 423.75 C 155.421875 427.191406 173.480469 426.589844 190.628906 425.351562 C 201.363281 424.578125 212.058594 423.335938 222.714844 421.835938 C 222.714844 420.113281 222.515625 418.339844 222.054688 416.5 C 220.054688 409.5 210.054688 410.5 207.054688 404.5 Z M 115.03125 253.28125 C 110.390625 251.910156 105.640625 251.289062 100.898438 251.589844 C 100.550781 251.53125 100.179688 251.519531 99.78125 251.589844 C 99.417969 251.648438 99.070312 251.730469 98.710938 251.800781 C 96.941406 252.03125 95.167969 252.378906 93.410156 252.878906 C 93.03125 252.988281 92.71875 253.148438 92.46875 253.359375 C 80.109375 257.070312 68.839844 264.421875 61.339844 274.691406 C 50.832031 289.078125 51.039062 307.21875 56.402344 323.378906 C 62.320312 341.210938 79.597656 359.699219 75.519531 379.417969 C 73.179688 390.660156 61.191406 399.640625 49.902344 392.949219 C 42.449219 388.53125 38.039062 380.582031 30.929688 375.699219 C 17.570312 366.511719 2.941406 374.128906 0.402344 389.191406 C -2.128906 404.261719 7.679688 419.519531 20.871094 426.820312 C 50.070312 443.019531 88.039062 425.539062 98.371094 395.660156 C 105.929688 373.789062 96.25 351.28125 92.210938 329.820312 C 90.03125 318.289062 89.082031 305.789062 93.902344 294.699219 C 97.777344 285.777344 105.222656 278 114.867188 275.335938 C 117.117188 266.957031 117.628906 258.210938 115.773438 249.597656 C 115.527344 250.824219 115.277344 252.050781 115.03125 253.28125 Z M 270.320312 16.121094 C 269.699219 16 269.171875 16.191406 268.78125 16.511719 C 268.03125 16.628906 267.359375 16.890625 266.75 17.339844 C 262.871094 6.378906 246.960938 0.429688 235.339844 0 C 233.550781 0.21875 231.78125 0.539062 230.039062 0.960938 C 203.769531 23.761719 182.21875 51.921875 165.519531 81.859375 C 165.128906 82.5625 164.757812 83.273438 164.371094 83.980469 C 162.304688 91.648438 162.105469 99.0625 167.054688 105.5 C 173.996094 113.210938 181.53125 102.488281 188.285156 93.507812 C 191.867188 93.03125 195.847656 96.847656 196.863281 100.636719 C 198.140625 105.417969 196.792969 110.398438 196.8125 115.238281 C 196.835938 121.308594 199.019531 128.378906 205.164062 130.820312 C 211.800781 133.453125 218.183594 128.652344 220.992188 122.832031 C 222.746094 119.199219 223.539062 115.152344 224.515625 111.265625 L 224.554688 111.117188 C 229.195312 109.339844 232.246094 117.660156 232.324219 121.492188 C 232.410156 125.746094 231.390625 129.960938 231.867188 134.222656 C 232.503906 139.925781 236.414062 143.914062 242.335938 143.269531 C 249.535156 142.488281 254.382812 137.027344 257.265625 130.402344 C 259.488281 126.804688 261.425781 122.941406 263.375 119.132812 C 264.46875 109.308594 265.871094 99.519531 267.660156 89.789062 C 269.140625 81.679688 269.699219 66.75 277.101562 61.070312 C 280.828125 58.210938 285.921875 60.03125 289.789062 57.390625 C 292.878906 55.269531 294.230469 51.660156 294.769531 48.191406 C 297.109375 33.289062 285.261719 18.800781 270.320312 16.121094 Z M 469.820312 393.050781 C 469.851562 396.910156 462.398438 399.800781 455.699219 402.769531 C 450.320312 405.148438 444.441406 406.699219 438.519531 407.488281 C 437.800781 407.460938 437.070312 407.441406 436.339844 407.429688 C 431.191406 407.101562 426.050781 406.5 420.898438 406.109375 C 420.671875 406.480469 420.433594 406.835938 420.195312 407.195312 C 426.3125 393.539062 443.144531 395.464844 455.054688 390.5 C 450.054688 382.5 431.054688 376.5 440.054688 367.5 C 441.441406 365.417969 443.792969 368.632812 446.773438 370.460938 C 446.597656 370.953125 446.40625 371.4375 446.179688 371.898438 C 447.789062 374.011719 450.148438 376.871094 453.398438 379.859375 C 459.609375 385.570312 464.820312 387.859375 467.621094 389.878906 C 466.628906 389.851562 465.648438 389.820312 464.671875 389.800781 L 464.730469 389.820312 C 465.519531 390.050781 466.371094 390.101562 467.171875 390.261719 C 467.300781 390.179688 467.421875 390.109375 467.550781 390.03125 L 467.71875 389.941406 C 469.058594 390.910156 469.808594 391.832031 469.820312 393.050781" fill="#3a1e16"/></g><g id="change4_1"><path d="M 393.40625 314.585938 C 387.3125 311.644531 380.0625 314.078125 377.21875 320.023438 C 374.371094 325.972656 377.007812 333.171875 383.105469 336.113281 C 389.199219 339.054688 396.449219 336.617188 399.292969 330.675781 C 402.140625 324.726562 399.503906 317.523438 393.40625 314.585938" fill="#fff"/></g><g id="change5_1"><path d="M 467.617188 389.875 L 467.714844 389.9375 L 467.835938 389.875 L 467.617188 389.875 M 463.277344 392.746094 L 463.15625 392.707031 C 461.042969 391.878906 459.210938 390.703125 457.574219 389.191406 C 457.367188 388.996094 457.246094 388.796875 457.175781 388.59375 C 449.121094 383.335938 442.679688 374.476562 439.160156 366.765625 C 438.320312 364.921875 441.085938 363.398438 442.035156 365.234375 C 442.605469 366.34375 443.226562 367.410156 443.871094 368.449219 C 444.300781 366.394531 444.75 364.367188 444.972656 362.269531 C 444.722656 362.039062 444.539062 361.71875 444.472656 361.28125 C 442.136719 345.792969 437.527344 332.054688 424.832031 321.523438 C 418.800781 316.515625 411.617188 312.828125 404.003906 310.621094 C 397.367188 308.695312 390.414062 308.351562 383.832031 306.347656 C 383.480469 306.679688 382.980469 306.820312 382.398438 306.597656 C 377.582031 304.746094 374.113281 299.785156 372.089844 294.847656 C 371.941406 295.511719 371.679688 296.179688 371.320312 296.8125 C 370.71875 297.882812 369.335938 297.953125 368.34375 297.488281 C 365.789062 296.300781 363.574219 294.6875 361.699219 292.722656 C 361.511719 292.742188 361.300781 292.722656 361.070312 292.640625 C 356.472656 290.957031 351.140625 291.671875 347.632812 295.222656 C 343.804688 299.089844 343.785156 304.25 345.558594 308.976562 C 346.261719 310.851562 343.265625 311.777344 342.3125 310.207031 C 337.183594 301.671875 342.734375 292.660156 350.839844 289.859375 C 334.355469 290.222656 321.300781 302.980469 311.003906 314.964844 C 311.039062 315.054688 311.066406 315.144531 311.09375 315.238281 C 309.933594 316.347656 308.757812 317.433594 307.523438 318.445312 C 300.5 320.523438 293.132812 319.914062 286.574219 317.152344 C 286.488281 317.230469 286.394531 317.296875 286.296875 317.363281 C 284.027344 316.359375 281.84375 315.175781 279.789062 313.792969 C 279.476562 313.410156 279.175781 313.019531 278.890625 312.625 C 278.679688 312.453125 278.460938 312.304688 278.257812 312.132812 C 277.839844 311.777344 277.6875 311.347656 277.726562 310.902344 C 274.582031 305.84375 273.039062 299.945312 272.085938 293.941406 C 270.433594 283.582031 269.640625 273.199219 266.746094 263.039062 C 260.773438 242.117188 246.667969 222.515625 224.164062 216.820312 C 222.800781 223.585938 220.917969 230.246094 218.3125 236.765625 C 217.179688 239.589844 212.84375 238.359375 213.652344 235.394531 C 219.394531 214.472656 221.058594 193.402344 220.648438 171.84375 C 219.996094 136.921875 215.648438 100.882812 227.011719 66.929688 C 231.347656 53.960938 238.210938 37.492188 252.019531 31.472656 C 256.605469 29.480469 262.679688 29.066406 262.726562 22.980469 C 262.757812 18.726562 259.914062 14.765625 256.835938 11.984375 C 256.285156 11.480469 255.714844 11.015625 255.132812 10.550781 C 254.632812 19.289062 244.28125 25.367188 235.945312 23.25 C 234.183594 22.796875 234.644531 19.882812 236.476562 20.144531 C 244.171875 21.214844 249.722656 15.882812 250.976562 8.96875 C 251.054688 8.566406 251.226562 8.253906 251.457031 8.023438 C 245.695312 4.617188 238.921875 2.84375 232.148438 2.84375 C 218.441406 16.671875 205.40625 31.140625 193.945312 46.773438 C 173.136719 75.144531 157.003906 106.746094 146.585938 139.996094 C 134.75 177.738281 131.203125 217.265625 119.882812 255.058594 C 119.539062 256.1875 118.738281 256.703125 117.878906 256.78125 C 117.457031 257.476562 116.636719 257.941406 115.5625 257.679688 C 110.894531 256.519531 106.246094 256.25 101.558594 256.550781 C 101.40625 256.609375 101.257812 256.671875 101.074219 256.703125 C 83.03125 260.53125 65.566406 271.527344 60.054688 289.425781 C 53.292969 311.386719 65.96875 331.3125 75.164062 350.367188 C 81.46875 363.429688 85.714844 380.625 74.835938 392.769531 C 70.355469 397.765625 63.632812 401.132812 56.71875 400.71875 C 49.40625 400.285156 43.585938 395.527344 38.785156 390.632812 C 32.972656 384.683594 25.070312 374.042969 15.117188 377.175781 C 6.070312 380.019531 4.519531 391.949219 6.203125 399.511719 C 10.417969 418.386719 30.109375 428.90625 49.15625 427.527344 C 65.445312 426.347656 80.445312 416.53125 88.710938 403.046875 C 99.53125 385.390625 95.015625 365.011719 90.484375 346.277344 C 86.355469 329.214844 81.90625 310.277344 89.550781 293.417969 C 94.804688 281.867188 104.992188 272.664062 118.167969 271.296875 C 118.390625 271.234375 118.617188 271.214844 118.839844 271.226562 C 119.019531 271.214844 119.199219 271.183594 119.382812 271.164062 C 120.34375 271.101562 120.851562 271.679688 120.945312 272.351562 C 121.296875 272.867188 121.476562 273.511719 121.324219 274.257812 C 117.679688 293.273438 117.347656 311.980469 122.726562 330.707031 C 128.039062 349.148438 137.835938 366.0625 151.53125 379.867188 C 152.414062 380.753906 152.113281 381.824219 151.382812 382.4375 C 160.640625 384.5625 169.316406 385.792969 179.15625 384.25 C 189.496094 382.640625 199.375 379.039062 208.785156 374.648438 C 226.980469 366.160156 243.792969 355.296875 262.917969 348.714844 C 264.964844 348.011719 265.652344 351.105469 263.699219 351.832031 C 242.1875 359.820312 223.984375 374.152344 202.753906 382.6875 C 185.949219 389.441406 161.804688 395.125 145.269531 384.855469 C 144.878906 384.605469 144.628906 384.289062 144.488281 383.960938 C 139.480469 382.527344 134.691406 386.679688 135.382812 391.78125 C 136.042969 392.191406 136.472656 392.96875 136.375 393.714844 C 136.742188 394.269531 137.195312 394.792969 137.835938 395.277344 C 139.761719 396.699219 142.195312 397.382812 144.578125 396.878906 C 146.0625 396.558594 146.574219 398.652344 145.132812 399.085938 C 142.003906 400.015625 138.679688 399.570312 135.984375 397.777344 C 135.371094 397.371094 134.761719 396.867188 134.179688 396.304688 C 132.585938 398.21875 131.855469 400.578125 132.957031 403.097656 C 134.449219 406.453125 138.828125 407.863281 142.226562 406.484375 C 143.679688 405.898438 144.871094 407.875 143.417969 408.589844 C 140.992188 409.777344 138.167969 410 135.621094 409.316406 C 135.804688 411.070312 135.210938 412.832031 135.8125 414.667969 C 136.425781 416.550781 137.726562 418.398438 139.488281 419.445312 C 158.214844 420.359375 176.519531 421.21875 195.289062 419.625 C 213.855469 418.054688 232.269531 415.050781 250.636719 411.984375 C 264.382812 409.699219 278.128906 407.261719 291.9375 405.285156 C 292.113281 405.152344 292.335938 405.042969 292.574219 404.972656 C 302.714844 401.980469 313.996094 406.535156 323.234375 410.503906 C 334.507812 415.363281 345.617188 420.421875 357.652344 423.113281 C 379.433594 427.992188 405.0625 424.132812 418.429688 404.347656 C 419.171875 403.257812 420.585938 403.582031 421.085938 404.4375 C 429.371094 405.003906 437.707031 404.105469 445.644531 401.65625 C 452.355469 399.589844 457.707031 396.316406 463.277344 392.746094 M 252.789062 36.410156 C 243.832031 41.066406 238.753906 51.316406 235.105469 60.015625 C 225.636719 82.609375 225.117188 108.320312 225.097656 117.953125 C 225.023438 154.054688 225.277344 181.589844 225.527344 200.191406 C 225.835938 202.507812 226.601562 206.03125 228.667969 209.832031 C 230.253906 212.746094 232.089844 214.882812 233.542969 216.316406 C 235.054688 217.003906 236.617188 217.78125 238.210938 218.667969 C 242.839844 221.226562 246.648438 224.078125 249.714844 226.769531 C 254.253906 206.402344 254.453125 185.761719 254.902344 165.011719 C 255.375 143.3125 257.480469 121.613281 261.023438 100.167969 C 262.609375 90.613281 264.160156 80.949219 266.535156 71.546875 C 268.019531 65.71875 270.613281 58.757812 276.605469 55.894531 C 281.054688 53.769531 287.394531 55.449219 289.570312 50.027344 C 289.640625 49.847656 289.691406 49.65625 289.75 49.464844 C 288.769531 50.039062 287.738281 50.480469 286.824219 50.792969 C 283.179688 52.035156 279.429688 51.761719 275.953125 50.210938 C 274.25 49.453125 275.613281 46.601562 277.328125 47.308594 C 280.0625 48.425781 282.949219 48.527344 285.742188 47.4375 C 287.828125 46.632812 289.019531 45.019531 290.570312 43.769531 C 290.511719 41.511719 290.09375 39.253906 289.460938 37.230469 C 288.460938 34.046875 286.855469 31.152344 284.792969 28.644531 C 284.210938 31.492188 282.085938 34.546875 280.453125 36.242188 C 277.316406 39.507812 272.839844 41.289062 268.269531 41.210938 C 266.085938 41.171875 266.226562 38.035156 268.378906 37.953125 C 272.046875 37.824219 275.324219 36.121094 277.71875 33.4375 C 278.898438 32.109375 279.84375 30.558594 280.351562 28.863281 C 280.765625 27.5625 280.683594 26.3125 281.285156 25.113281 C 277.898438 22.304688 273.800781 20.285156 269.28125 19.359375 C 269.132812 19.328125 269.003906 19.285156 268.886719 19.230469 C 268.722656 19.28125 268.835938 19.238281 268.738281 19.285156 C 268.636719 19.335938 268.539062 19.394531 268.445312 19.457031 L 268.289062 19.585938 C 268.199219 19.667969 268.109375 19.757812 268.035156 19.855469 C 268.09375 19.777344 268.046875 19.859375 267.996094 19.945312 C 267.957031 20.007812 267.921875 20.070312 267.921875 20.066406 C 267.800781 20.289062 267.675781 20.480469 267.511719 20.648438 C 267.699219 22.226562 267.664062 23.886719 267.339844 25.640625 C 265.914062 33.277344 258.691406 33.347656 252.789062 36.410156 M 469.820312 393.046875 C 469.851562 396.910156 462.394531 399.800781 455.703125 402.765625 C 450.320312 405.152344 444.441406 406.695312 438.519531 407.492188 C 437.796875 407.460938 437.066406 407.441406 436.335938 407.429688 C 431.1875 407.097656 426.046875 406.503906 420.894531 406.109375 C 409.675781 424.363281 387.371094 431.417969 366.898438 429.359375 C 354.597656 428.132812 342.773438 424.3125 331.433594 419.476562 C 325.308594 416.863281 319.316406 413.902344 313.007812 411.773438 C 308.527344 410.261719 304.238281 409.566406 299.800781 409.296875 L 299.832031 409.355469 C 298.808594 409.507812 297.796875 409.648438 296.796875 409.800781 C 278.789062 412.378906 260.90625 415.714844 242.972656 418.699219 C 225.628906 421.582031 208.183594 424.089844 190.628906 425.351562 C 173.476562 426.589844 155.421875 427.195312 138.507812 423.75 C 137.203125 423.484375 136.773438 422.335938 136.996094 421.289062 C 135.050781 420.222656 133.46875 418.699219 132.4375 416.632812 C 131.273438 414.292969 130.3125 409.949219 132.507812 407.894531 C 131.515625 407.199219 130.644531 406.324219 129.980469 405.242188 C 127.667969 401.496094 128.507812 396.253906 131.644531 393.160156 C 129.371094 385.046875 137.945312 378.558594 145.390625 381.570312 C 145.8125 381.328125 146.34375 381.226562 146.925781 381.367188 C 147.265625 381.449219 147.597656 381.539062 147.9375 381.621094 C 119.890625 355.125 105.414062 312.324219 116.003906 275.035156 C 105.804688 277.382812 97.929688 285.433594 93.902344 294.695312 C 89.082031 305.792969 90.035156 318.289062 92.207031 329.820312 C 96.246094 351.273438 105.933594 373.789062 98.371094 395.660156 C 88.039062 425.542969 50.066406 443.015625 20.871094 426.820312 C 7.683594 419.515625 -2.136719 404.257812 0.402344 389.191406 C 2.9375 374.132812 17.574219 366.515625 30.929688 375.695312 C 38.042969 380.582031 42.453125 388.535156 49.898438 392.949219 C 61.1875 399.640625 73.179688 390.660156 75.515625 379.421875 C 79.601562 359.699219 62.320312 341.207031 56.398438 323.378906 C 51.039062 307.222656 50.828125 289.082031 61.339844 274.691406 C 68.84375 264.421875 80.113281 257.074219 92.46875 253.355469 C 92.71875 253.152344 93.03125 252.992188 93.410156 252.882812 C 95.171875 252.378906 96.9375 252.023438 98.710938 251.804688 C 99.070312 251.734375 99.421875 251.652344 99.78125 251.59375 C 100.183594 251.519531 100.554688 251.53125 100.894531 251.59375 C 105.644531 251.289062 110.394531 251.914062 115.03125 253.273438 C 119.53125 230.851562 124.078125 208.417969 128.75 186.011719 C 136.324219 149.710938 147.234375 114.609375 165.519531 81.855469 C 182.222656 51.921875 203.773438 23.765625 230.035156 0.957031 C 231.777344 0.546875 233.550781 0.222656 235.335938 0 C 246.964844 0.425781 262.867188 6.375 266.75 17.339844 C 267.359375 16.890625 268.03125 16.625 268.777344 16.511719 C 269.167969 16.1875 269.699219 16.003906 270.324219 16.113281 C 285.261719 18.796875 297.105469 33.289062 294.769531 48.195312 C 294.230469 51.660156 292.878906 55.269531 289.789062 57.386719 C 285.925781 60.027344 280.835938 58.210938 277.097656 61.074219 C 269.703125 66.746094 269.140625 81.683594 267.65625 89.785156 C 263.21875 113.953125 261.054688 138.476562 260.492188 162.976562 C 259.972656 185.339844 260.984375 208.40625 252.789062 229.730469 C 259.101562 236.214844 264.089844 244.011719 267.578125 252.316406 C 271.996094 262.851562 274.191406 273.886719 275.644531 285.132812 C 275.59375 285.503906 275.574219 285.878906 275.625 286.292969 C 276.046875 289.578125 276.796875 292.75 277.816406 295.835938 C 277.605469 295.675781 277.386719 295.511719 277.1875 295.339844 C 278.367188 301.277344 280.292969 306.972656 284.261719 311.65625 C 291.59375 315.558594 299.609375 315.992188 307.96875 313.753906 C 320.359375 298.273438 337.59375 280.867188 359.917969 286.523438 L 360.035156 286.5625 C 360.238281 286.441406 360.457031 286.34375 360.699219 286.292969 C 363.875 285.6875 368.585938 284.820312 371.339844 286.957031 C 371.828125 287.339844 372.222656 287.8125 372.472656 288.347656 C 373.003906 288.4375 373.484375 288.769531 373.675781 289.425781 C 374.535156 292.449219 375.886719 295.222656 377.761719 297.769531 C 379.296875 299.875 381.347656 301.367188 383.132812 303.171875 C 391.75 305.753906 400.984375 305.421875 409.5625 308.34375 C 416.597656 310.730469 423.101562 314.488281 428.710938 319.207031 C 440.53125 329.125 449.429688 345.390625 448.367188 360.871094 C 448.339844 361.242188 448.207031 361.554688 448.019531 361.816406 C 448.027344 365.234375 447.636719 368.894531 446.183594 371.894531 C 447.785156 374.011719 450.152344 376.875 453.398438 379.855469 C 459.609375 385.570312 464.820312 387.859375 467.617188 389.875 C 466.632812 389.855469 465.652344 389.824219 464.671875 389.804688 L 464.730469 389.824219 C 465.523438 390.046875 466.371094 390.097656 467.175781 390.257812 C 467.296875 390.175781 467.414062 390.105469 467.546875 390.027344 L 467.714844 389.9375 C 469.058594 390.914062 469.808594 391.832031 469.820312 393.046875 M 394.394531 313.28125 C 393.894531 313 393.382812 313.402344 393.28125 313.875 C 389.191406 311.679688 383.320312 311.75 380.035156 314.78125 C 375.355469 319.117188 380.777344 325.09375 384.925781 327.136719 C 388.109375 328.722656 394.144531 329.707031 397.53125 327.289062 C 396.226562 330.453125 393.480469 331.8125 390.945312 334.082031 C 389.84375 335.089844 390.898438 337.042969 392.277344 336.914062 C 397.460938 336.449219 401.085938 330.324219 401.355469 325.484375 C 401.648438 320.144531 398.851562 315.871094 394.394531 313.28125 M 414.582031 327.421875 C 414.542969 326.816406 413.941406 322.351562 413.121094 323.753906 C 412.988281 323.972656 412.820312 324.136719 412.640625 324.246094 L 412.628906 324.246094 C 412.238281 325.675781 412.019531 327.136719 412.058594 328.648438 C 412.078125 329.507812 412.078125 330.707031 412.417969 331.511719 C 412.808594 332.449219 413.070312 333.085938 413.890625 332.21875 C 414.863281 331.191406 414.691406 328.730469 414.582031 327.421875 M 416.234375 320.878906 C 418.410156 323.761719 418.472656 329.71875 417.179688 332.941406 C 415.863281 336.199219 412.527344 337.960938 410.285156 334.363281 C 408.222656 331.078125 409.09375 326.453125 410.496094 322.933594 C 409.835938 320.003906 414.441406 318.511719 416.234375 320.878906 M 361.058594 310.730469 C 360.449219 310.074219 359.425781 310.984375 360.019531 311.648438 C 365.566406 318.007812 366.800781 326.492188 365.609375 334.636719 C 365.4375 335.867188 366.78125 336.511719 367.753906 336.21875 C 368.53125 336.441406 369.464844 336.167969 369.675781 335.25 C 371.78125 325.9375 368.394531 317.441406 362.070312 310.730469 C 361.75 310.386719 361.308594 310.46875 361.058594 310.730469 M 357.394531 312.636719 C 359.4375 320.234375 357.773438 332.800781 349.636719 336.398438 C 349.226562 336.582031 348.835938 336.582031 348.503906 336.449219 C 346.820312 337.035156 345.628906 334.625 347.292969 333.738281 C 353.835938 330.28125 356.289062 319.691406 355.097656 312.90625 C 354.96875 312.183594 355.851562 311.890625 356.238281 312.355469 C 356.539062 312 357.230469 312.03125 357.394531 312.636719" fill="#5a3022"/></g><g id="change6_1"><path d="M 364.855469 362.121094 C 355.699219 362.121094 348.273438 354.699219 348.273438 345.539062 C 348.273438 341.4375 349.765625 337.679688 352.238281 334.785156 C 352.863281 334.269531 353.433594 333.6875 353.949219 333.054688 C 356.863281 330.507812 360.679688 328.964844 364.855469 328.964844 C 365.246094 328.964844 365.636719 328.976562 366.023438 329.003906 C 366.027344 330.878906 365.882812 332.765625 365.609375 334.636719 C 365.464844 335.667969 366.386719 336.289062 367.261719 336.289062 C 367.429688 336.289062 367.597656 336.265625 367.753906 336.21875 C 367.921875 336.265625 368.097656 336.292969 368.273438 336.292969 C 368.902344 336.292969 369.511719 335.96875 369.675781 335.25 C 370.089844 333.425781 370.289062 331.632812 370.300781 329.878906 C 376.78125 332.132812 381.433594 338.292969 381.433594 345.539062 C 381.433594 354.699219 374.011719 362.121094 364.855469 362.121094" fill="#6a4a36"/></g><g id="change7_1"><path d="M 368.273438 336.292969 C 368.097656 336.292969 367.921875 336.265625 367.753906 336.21875 C 367.597656 336.265625 367.429688 336.289062 367.261719 336.289062 C 366.386719 336.289062 365.464844 335.667969 365.609375 334.636719 C 365.882812 332.765625 366.027344 330.878906 366.023438 329.003906 C 367.511719 329.105469 368.945312 329.40625 370.300781 329.878906 C 370.289062 331.632812 370.089844 333.425781 369.675781 335.25 C 369.511719 335.96875 368.902344 336.292969 368.273438 336.292969 M 352.238281 334.785156 C 352.765625 334.167969 353.339844 333.589844 353.949219 333.054688 C 353.433594 333.6875 352.863281 334.269531 352.238281 334.785156" fill="#502a1c"/></g></g></svg>